<?xml version="1.0" standalone="no"?>
<!DOCTYPE svg PUBLIC "-//W3C//DTD SVG 1.1//EN" "http://www.w3.org/Graphics/SVG/1.1/DTD/svg11.dtd" >
<svg xmlns="http://www.w3.org/2000/svg">
<metadata>
Created by FontPrep 20130207 at Tue Sep  2 12:05:26 2014
 By Matthew Lane
Copyright (c) 2005-20011 Dalton Maag Ltd. All rights reserved. This font is for exclusive use by Vodafone only. This font may not be altered in any way without prior consent of Dalton Maag Ltd. DaMa is a trademark of Dalton Maag Ltd
</metadata>
<defs>
<font id="VodafoneLt-Regular" horiz-adv-x='1024' >
  <font-face
    font-family="VodafoneLt-Regular"
    font-weight="400"
    font-stretch="normal"
    units-per-em="2048"
    panose-1="2 11 6 6 4 2 2 2 2 4"
    ascent="1638"
    descent="-410"
    x-height="977"
    cap-height="1366"
    bbox="-424 -451 2048 1841"
    underline-thickness="143"
    underline-position="-236"
    unicode-range="U+000D-FB02"
  />
<missing-glyph horiz-adv-x="419"
 />
    <glyph glyph-name="fi" unicode="fi" horiz-adv-x="913"
d="M670 0v977h102v-977h-102zM182 0v887h-137v90h139v100q0 158 83 237t223 79t247 -80l-32 -86q-59 44 -128 60t-100 16q-109 0 -150.5 -63.5t-41.5 -160.5v-102h215v-90h-215v-887h-103z" />
    <glyph glyph-name="fl" unicode="fl" horiz-adv-x="985"
d="M670 168v1112q-71 23 -175 23q-210 0 -210 -232v-94h215v-90h-215v-887h-103v887h-137v90h139v108q0 154 88 231t231 77t267 -50v-1150q0 -72 16 -102t62 -30t108 31l19 -82q-64 -33 -127 -33q-110 0 -144 49.5t-34 141.5z" />
    <glyph glyph-name=".notdef" horiz-adv-x="419"
 />
    <glyph glyph-name=".null" horiz-adv-x="1945"
 />
    <glyph glyph-name=".null" horiz-adv-x="1945"
 />
    <glyph glyph-name="nonmarkingreturn" unicode="&#xd;" horiz-adv-x="1024"
 />
    <glyph glyph-name="space" unicode=" " horiz-adv-x="419"
 />
    <glyph glyph-name="exclam" unicode="!" horiz-adv-x="342"
d="M121 424v942h102v-942h-102zM172 -23q-35 0 -57.5 24t-22.5 64.5t22.5 63.5t57.5 23t58.5 -23t23.5 -63.5t-23.5 -64.5t-58.5 -24z" />
    <glyph glyph-name="quotedbl" unicode="&#x22;" horiz-adv-x="561"
d="M360 760v606h99v-606h-99zM104 760v606h97v-606h-97z" />
    <glyph glyph-name="numbersign" unicode="#" horiz-adv-x="1132"
d="M430 602h272v305h-272v-305zM338 152v354h-328v96h328v305h-328v94h328v365h92v-365h272v365h95v-365h325v-94h-325v-305h325v-96h-325v-354h-95v354h-272v-354h-92z" />
    <glyph glyph-name="dollar" unicode="$"
d="M788 341q0 116 -54 183.5t-181 128.5v-575q111 10 173 78.5t62 184.5zM242 1094q0 -76 15 -117t52 -82t154 -96v489q-104 -4 -162.5 -61t-58.5 -133zM553 -274h-90v254q-212 6 -361 161l68 84q47 -59 127 -102t166 -45v608q-163 72 -220 129t-81.5 114.5t-24.5 170
t95.5 196.5t230.5 88v252h90v-252q119 -4 201 -56t129 -118l-68 -65q-108 136 -262 143v-520q188 -87 265 -175.5t77 -244.5t-89 -255t-253 -113v-254z" />
    <glyph glyph-name="percent" unicode="%" horiz-adv-x="1394"
d="M926.5 438.5q-52.5 -63.5 -52.5 -150.5t52 -150.5t131.5 -63.5t133.5 62t54 152t-54.5 152t-133 62t-131 -63.5zM471 1231q-53 61 -134 61t-133 -61.5t-52 -151t52 -152.5t133 -63t134 62.5t53 153t-53 151.5zM1258 74.5q-79 -88.5 -197 -88.5t-197.5 88.5t-79.5 213.5
t80 211.5t197 86.5t196.5 -87t79.5 -211q0 -125 -79 -213.5zM121 -14l-64 71l1211 1319l63 -67zM535 866.5q-79 -88.5 -196 -88.5t-196.5 88.5t-79.5 213.5t80 211.5t196 86.5t195.5 -87t79.5 -211q0 -125 -79 -213.5z" />
    <glyph glyph-name="ampersand" unicode="&#x26;" horiz-adv-x="1134"
d="M416 68q188 0 327 260l-292 426l-56 -31q-113 -63 -178 -151.5t-65 -217.5q0 -195 100.5 -240.5t163.5 -45.5zM51 350q0 276 293 441l62 34q-47 66 -88.5 142.5t-41.5 154.5q0 117 79 186.5t193 69.5t190.5 -45t121.5 -157l-74 -52q-41 92 -95 131t-133 39t-129 -48
t-50 -120q0 -107 117 -260l299 -446l215 373l71 -54l-225 -397l234 -342h-113l-170 252q-155 -275 -375 -275q-279 0 -330 147.5t-51 225.5z" />
    <glyph glyph-name="quotesingle" unicode="'" horiz-adv-x="303"
d="M104 760v606h95v-606h-95z" />
    <glyph glyph-name="parenleft" unicode="(" horiz-adv-x="520"
d="M195 700.5q0 -241.5 85 -426t226 -301.5l-43 -73q-165 104 -268 316t-103 489q0 276 100.5 478.5t266.5 313.5l51 -65q-147 -117 -231 -303.5t-84 -428z" />
    <glyph glyph-name="parenright" unicode=")" horiz-adv-x="518"
d="M326 700.5q0 241.5 -84 428t-232 303.5l51 65q166 -111 266.5 -313.5t100.5 -483.5q0 -405 -144.5 -576t-226.5 -224l-43 73q141 117 226.5 301.5t85.5 426z" />
    <glyph glyph-name="asterisk" unicode="*" horiz-adv-x="798"
d="M358 657v312l-241 -172l-43 73l260 179l-260 184l45 72l239 -175v297h80v-297l244 173l43 -68l-260 -184l260 -183l-41 -71l-246 172v-312h-80z" />
    <glyph glyph-name="plus" unicode="+"
d="M465 174v457h-391v98h391v455h96v-455h389v-98h-389v-457h-96z" />
    <glyph glyph-name="comma" unicode="," horiz-adv-x="323"
d="M76 76q0 39 22.5 63.5t64.5 24.5t65.5 -34t23.5 -94t-41 -126t-94 -109l-35 45q75 75 82 136q-37 0 -62.5 27.5t-25.5 66.5z" />
    <glyph glyph-name="hyphen" unicode="-" horiz-adv-x="598"
d="M94 489v109h412v-109h-412z" />
    <glyph glyph-name="period" unicode="." horiz-adv-x="329"
d="M172 -23q-35 0 -59.5 25t-24.5 67t24.5 66.5t59.5 24.5t60.5 -24.5t25.5 -66.5t-25.5 -67t-60.5 -25z" />
    <glyph glyph-name="slash" unicode="/" horiz-adv-x="921"
d="M92 -47l-82 51l821 1548l80 -47z" />
    <glyph glyph-name="zero" unicode="0"
d="M840 678q0 102 -18.5 209.5t-57.5 194.5t-101.5 141.5t-149.5 54.5q-160 0 -243.5 -181.5t-83.5 -418.5t84.5 -422.5t243.5 -185.5q86 0 148.5 57t101.5 145t57.5 196t18.5 210zM950 674q0 -127 -25.5 -252t-78.5 -225.5t-135 -163t-197 -62.5t-198 62.5t-136 163
t-78.5 225.5t-25.5 252t25.5 253t78.5 226t136 162.5t198 62.5t198 -62.5t136 -162.5t77.5 -226t24.5 -253z" />
    <glyph glyph-name="one" unicode="1"
d="M539 0v1225l-303 -217l-52 79l363 265h98v-1352h-106z" />
    <glyph glyph-name="two" unicode="2"
d="M121 0v90q0 109 32.5 185t120.5 153l250 215q61 51 108.5 92t97.5 104t50 183q0 119 -71.5 188.5t-209.5 69.5t-223.5 -72.5t-111.5 -103.5l-53 82q93 116 209 154t203 38q177 0 274.5 -99.5t97.5 -268.5t-107.5 -266t-169.5 -148l-266 -225q-72 -59 -96.5 -121
t-24.5 -152h674v-98h-784z" />
    <glyph glyph-name="three" unicode="3"
d="M444 713q-78 0 -120 -6v88q98 155 240.5 290.5t185.5 165.5h-629v99h751v-119q-84 -53 -226.5 -197t-205.5 -237h31q219 0 321.5 -119.5t102.5 -297.5t-116.5 -293.5t-311.5 -115.5q-142 0 -240 43t-153 101l49 98q143 -143 340 -143q145 0 233 81.5t88 230.5t-88 240
t-252 91z" />
    <glyph glyph-name="four" unicode="4"
d="M694 432v731l-514 -731h514zM694 0v334h-610v115l637 903h74v-920h141v-98h-141v-334h-101z" />
    <glyph glyph-name="five" unicode="5"
d="M453 877q74 0 165 -30t190 -120t99 -301t-118 -333t-297 -122q-180 0 -274.5 54.5t-119.5 74.5l45 101q53 -47 143 -88t214 -41t212.5 92t88.5 265t-111.5 262t-275.5 89t-234 -24v596h662v-99h-559v-387q96 11 170 11z" />
    <glyph glyph-name="six" unicode="6"
d="M842 418q0 243 -116 294.5t-198 51.5t-163.5 -41t-133.5 -90q-8 -49 -8 -134q0 -192 81 -312.5t228 -120.5q146 0 228 96t82 256zM250 745q137 113 311 113t278.5 -120.5t104.5 -319.5t-107.5 -323t-301.5 -124t-305 149t-111 397q0 249 118.5 500.5t302 301t267.5 49.5
l22 -86q-211 -8 -346 -121q-183 -147 -233 -416z" />
    <glyph glyph-name="seven" unicode="7"
d="M113 1253v99h815v-80q-435 -593 -498 -1272h-108q37 354 162.5 677.5t318.5 575.5h-690z" />
    <glyph glyph-name="eight" unicode="8"
d="M512 662q-136 0 -223.5 -87.5t-87.5 -224.5t86 -209.5t225 -72.5t225 72.5t86 209.5t-87.5 224.5t-223.5 87.5zM805 1024q0 123 -80 192.5t-212 69.5t-212 -69.5t-80 -192.5t82 -196.5t209 -73.5t210 73.5t83 196.5zM98 343q0 158 70 241.5t174 122.5q-151 54 -187 156.5
t-36 172.5t28.5 134.5t81 110.5t124 71.5t202 25.5t240.5 -96.5t110 -265.5t-89 -231t-134 -78q104 -39 174 -122.5t70 -241.5t-111 -265t-303 -107t-303 107t-111 265z" />
    <glyph glyph-name="nine" unicode="9"
d="M813 858q0 186 -80 306t-228 120t-229 -93t-81 -248t79.5 -249t229.5 -94t303 131q6 47 6 127zM490 506q-182 0 -290 122t-108 313t108.5 314t304.5 123t306.5 -146.5t110.5 -371.5t-93 -472t-300 -329t-353 -82l19 97q141 0 253 55t198 163.5t112 188.5t43 135
q-49 -39 -133 -74.5t-178 -35.5z" />
    <glyph glyph-name="colon" unicode=":" horiz-adv-x="329"
d="M182 803q-36 1 -60 25t-24 66t25 67t59 25t61 -26q25 -24 25 -66t-25 -67q-26 -24 -61 -24zM182 -23q-36 0 -60 25t-24 67q0 43 25 67t59 24t61 -25q25 -25 25 -67t-26 -66q-26 -25 -60 -25z" />
    <glyph glyph-name="semicolon" unicode=";" horiz-adv-x="335"
d="M98 76q0 40 23 64t65 24t65 -34t23 -94t-41 -126t-94 -109l-35 45q77 77 82 136q-36 0 -62 28t-26 66zM172 803q-36 1 -60 25t-24 66t25 67t59 25t60 -26q26 -24 26 -66t-26 -66t-60 -25z" />
    <glyph glyph-name="less" unicode="&#x3c;"
d="M891 309l-778 328v90l766 317l36 -94l-649 -266l662 -276z" />
    <glyph glyph-name="equal" unicode="="
d="M74 776v98h878v-98h-878zM74 401v99h878v-99h-878z" />
    <glyph glyph-name="greater" unicode="&#x3e;"
d="M147 309l-34 99l659 276l-647 266l39 94l764 -317v-90z" />
    <glyph glyph-name="question" unicode="?" horiz-adv-x="698"
d="M418 65.5q0 -40.5 -23.5 -64.5t-58.5 -24t-57.5 24t-22.5 64.5t22.5 63.5t57.5 23t58.5 -23t23.5 -63.5zM383 446v-53h-98v62q0 92 40.5 157.5t100.5 135.5t104.5 143.5t44.5 176.5t-61.5 158.5t-159.5 55.5t-159.5 -47t-110.5 -113l-66 66q81 121 175 155.5t159 34.5
q160 0 246 -85t86 -242t-176 -353q-79 -93 -102 -138t-23 -114z" />
    <glyph glyph-name="at" unicode="@" horiz-adv-x="1472"
d="M932 778q-123 0 -186.5 -88t-63.5 -225t65 -233.5t179 -96.5q86 0 150.5 33t115.5 74v448q-53 37 -113.5 62.5t-146.5 25.5zM1370 -231q-194 -91 -491 -91t-472.5 130.5t-242 310.5t-66.5 368q0 390 176 618t506 228q251 0 381.5 -126.5t130.5 -315.5v-850h-98v98
q-120 -100 -271 -100t-249.5 118.5t-98.5 304.5t97.5 300.5t244.5 114.5q146 0 277 -84v77q0 183 -104 267q-121 104 -289 104t-276.5 -56.5t-216 -207.5t-107.5 -498q0 -275 109.5 -421t245.5 -215.5t362 -69.5t423 88z" />
    <glyph glyph-name="A" unicode="A" horiz-adv-x="1091"
d="M309 541h467l-235 696zM10 0l484 1366h98l489 -1366h-112l-160 438h-533l-155 -438h-111z" />
    <glyph glyph-name="B" unicode="B" horiz-adv-x="1024"
d="M776 1028q0 238 -266 238h-248v-496h234q137 0 208.5 70.5t71.5 187.5zM262 100h311q129 0 198 76t69 218t-89 209t-249 67h-240v-570zM508 1366q379 0 379 -340q0 -252 -250 -301q141 -10 228 -94t87 -255t-101.5 -273.5t-268.5 -102.5h-426v1366h352z" />
    <glyph glyph-name="C" unicode="C" horiz-adv-x="1110"
d="M954 1063q-116 227 -342 227q-74 0 -150.5 -40t-161.5 -161t-85 -403t117.5 -446t317.5 -164q201 0 337 180l62 -86q-155 -195 -408 -195t-396 187.5t-143 520.5t148.5 521.5t378.5 188.5q143 0 249.5 -73t161.5 -190z" />
    <glyph glyph-name="D" unicode="D" horiz-adv-x="1193"
d="M262 100h195q132 0 213 31q143 53 229 190t86 345t-89 404t-431 196h-203v-1166zM156 0v1366h319q372 0 496.5 -217t124.5 -473t-134.5 -466t-486.5 -210h-319z" />
    <glyph glyph-name="E" unicode="E" horiz-adv-x="974"
d="M156 0v1366h729v-100h-625v-492h453v-100h-453v-574h662v-100h-766z" />
    <glyph glyph-name="F" unicode="F" horiz-adv-x="880"
d="M156 0v1366h714v-100h-610v-512h451v-101h-451v-653h-104z" />
    <glyph glyph-name="G" unicode="G" horiz-adv-x="1163"
d="M1051 49q-173 -76 -410 -76t-388 184.5t-151 518.5t151.5 525.5t381.5 191.5q275 0 407 -258l-79 -64q-58 103 -137 162t-178 59q-193 0 -313 -161t-120 -445q0 -283 120 -448.5t307 -165.5q186 0 302 49v428h-244v100h351v-600z" />
    <glyph glyph-name="H" unicode="H" horiz-adv-x="1230"
d="M156 0v1366h106v-608h709v608h104v-1366h-104v655h-709v-655h-106z" />
    <glyph glyph-name="I" unicode="I" horiz-adv-x="417"
d="M156 0v1366h106v-1366h-106z" />
    <glyph glyph-name="J" unicode="J" horiz-adv-x="722"
d="M295 74q104 0 142 55t38 162v1075h107v-1092q0 -98 -28 -158t-94.5 -99.5t-177.5 -39.5t-178 34t-79 44l36 97q39 -39 112 -58.5t122 -19.5z" />
    <glyph glyph-name="K" unicode="K" horiz-adv-x="1062"
d="M262 653v-653h-106v1366h106v-614h215q57 0 97 35.5t83 132.5l199 446h115l-207 -465q-33 -72 -64.5 -119t-72.5 -63q57 -16 89 -50t60 -106l225 -563h-114l-172 422q-25 57 -43.5 101t-53.5 87t-116 43h-240z" />
    <glyph glyph-name="L" unicode="L" horiz-adv-x="921"
d="M156 0v1366h106v-1266h629v-100h-735z" />
    <glyph glyph-name="M" unicode="M" horiz-adv-x="1429"
d="M682 -23l-393 1188l-49 -1165h-105l62 1366h137l405 -1239l377 1239h131l62 -1366h-103l-51 1149l-364 -1172h-109z" />
    <glyph glyph-name="N" unicode="N" horiz-adv-x="1255"
d="M156 0v1366h112l727 -1151v1151h105v-1366h-92l-748 1178v-1178h-104z" />
    <glyph glyph-name="O" unicode="O" horiz-adv-x="1263"
d="M1051 684q0 111 -25 219.5t-76 194.5t-130 140t-187.5 54t-188 -53t-131 -140t-76 -195.5t-24.5 -219.5t25.5 -220.5t78 -196.5t131 -140t185 -53t185.5 54t131 141t77 195.5t25 219.5zM1161 684q0 -133 -31.5 -261t-96 -227.5t-165 -161t-294.5 -61.5t-333 208t-139 502
t140.5 502t390.5 208q135 0 235.5 -60.5t165 -160t96 -227.5t31.5 -261z" />
    <glyph glyph-name="P" unicode="P" horiz-adv-x="1032"
d="M262 674h301q135 0 214 79t79 217t-72.5 217t-222.5 79h-299v-592zM156 0v1366h405q197 0 303.5 -101.5t106.5 -294.5t-112.5 -295t-295.5 -102h-301v-573h-106z" />
    <glyph glyph-name="Q" unicode="Q" horiz-adv-x="1263"
d="M956 281q95 174 95 410t-108 418.5t-311.5 182.5t-311 -181.5t-107.5 -426.5t110 -427.5t310 -182.5q166 0 270 127q-95 58 -246 104l31 92q152 -51 268 -116zM241 181q-139 208 -139 502t140.5 502t390.5 208q135 0 235.5 -60.5t196.5 -208.5t96 -432t-114 -473
q92 -70 143 -130t80 -97l-74 -60q-82 107 -205 209q-136 -168 -358 -168q-253 0 -392 208z" />
    <glyph glyph-name="R" unicode="R" horiz-adv-x="1091"
d="M557 719q299 0 299 276q0 129 -74.5 200t-218.5 71h-301v-547h295zM969 995q0 -246 -226 -331q66 -20 97.5 -85t113.5 -368l56 -211h-113l-57 213q-10 35 -21.5 76t-24 79t-22.5 71.5t-24 73.5t-55.5 72.5t-102.5 32.5h-328v-618h-106v1366h409q197 0 300.5 -97.5
t103.5 -273.5z" />
    <glyph glyph-name="S" unicode="S" horiz-adv-x="983"
d="M825 1133q-129 159 -327 159q-120 0 -202.5 -59t-82.5 -165t58.5 -165t152.5 -94l133 -49q176 -64 260 -151t84 -263t-112.5 -274.5t-305.5 -98.5q-127 0 -245 55t-170 122l57 96q106 -113 207.5 -142.5t159.5 -29.5q134 0 216.5 69t82.5 201q0 180 -110 236.5t-177 81.5
l-139 49q-269 94 -269 333q0 158 111.5 253.5t267.5 95.5q269 0 416 -181z" />
    <glyph glyph-name="T" unicode="T" horiz-adv-x="931"
d="M412 0v1266h-402v100h912v-100h-404v-1266h-106z" />
    <glyph glyph-name="U" unicode="U" horiz-adv-x="1210"
d="M141 455v911h105v-881q0 -186 92 -297.5t266 -111.5t267.5 108.5t93.5 300.5v881h106v-911q0 -222 -132 -352t-334 -130t-333 129t-131 353z" />
    <glyph glyph-name="V" unicode="V" horiz-adv-x="1067"
d="M473 0l-463 1366h119l401 -1221l418 1221h109l-477 -1366h-107z" />
    <glyph glyph-name="W" unicode="W" horiz-adv-x="1470"
d="M330 0l-310 1366h109l258 -1139l297 1139h100l312 -1145l247 1145h107l-305 -1366h-92l-320 1159l-313 -1159h-90z" />
    <glyph glyph-name="X" unicode="X" horiz-adv-x="952"
d="M10 0l402 709l-367 657h125l305 -567l307 567h121l-366 -651l405 -715h-129l-340 627l-344 -627h-119z" />
    <glyph glyph-name="Y" unicode="Y" horiz-adv-x="1021"
d="M451 0v657l-441 709h121l375 -604l389 604h117l-455 -707v-659h-106z" />
    <glyph glyph-name="Z" unicode="Z" horiz-adv-x="1060"
d="M86 0v104l762 1162h-729v100h835v-113l-755 -1153h784v-100h-897z" />
    <glyph glyph-name="bracketleft" unicode="[" horiz-adv-x="397"
d="M143 -293v1800h244v-90h-147v-1618h147v-92h-244z" />
    <glyph glyph-name="backslash" unicode="\" horiz-adv-x="915"
d="M823 -37l-813 1542l84 49l811 -1538z" />
    <glyph glyph-name="bracketright" unicode="]" horiz-adv-x="397"
d="M10 -293v92h148v1618h-148v90h246v-1800h-246z" />
    <glyph glyph-name="asciicircum" unicode="^" horiz-adv-x="974"
d="M213 610l-88 39l315 721h90l322 -706l-90 -41l-277 616z" />
    <glyph glyph-name="underscore" unicode="_" horiz-adv-x="999"
d="M0 -451v144h1024v-144h-1024z" />
    <glyph glyph-name="grave" unicode="`" horiz-adv-x="593"
d="M352 1116l-342 260l76 84l317 -284z" />
    <glyph glyph-name="a" unicode="a" horiz-adv-x="897"
d="M199 270q0 -96 63.5 -149t153.5 -53q146 0 254 118v359q-206 -5 -338.5 -63t-132.5 -212zM94 257q0 121 51.5 191t161.5 126t363 61v39q0 237 -211 237q-128 0 -262 -100l-37 82q77 68 164.5 88t138.5 20q155 0 231 -87t76 -240v-674h-90l-6 86q-104 -109 -257 -109
q-152 0 -237.5 79.5t-85.5 200.5z" />
    <glyph glyph-name="b" unicode="b" horiz-adv-x="999"
d="M428 68q90 0 157.5 30.5t116 87t75 135t26.5 221t-94.5 255t-229.5 112.5t-237 -80v-723q96 -38 186 -38zM464 1001q206 0 322.5 -133t116.5 -370t-127.5 -379t-311.5 -142q-185 0 -323 64v1325h101v-436q113 71 222 71z" />
    <glyph glyph-name="c" unicode="c" horiz-adv-x="897"
d="M526 -23q-198 0 -314 137.5t-116 377.5t115 374.5t289 134.5q126 0 208 -61t126 -143l-74 -52q-53 82 -110.5 124t-137.5 42q-145 0 -229 -118.5t-84 -306.5t88.5 -302t234.5 -114q76 0 137.5 26.5t126.5 93.5l39 -88q-43 -45 -120 -85t-179 -40z" />
    <glyph glyph-name="d" unicode="d" horiz-adv-x="1003"
d="M532 911q-149 0 -242 -119.5t-93 -306.5t82 -302t231 -115t250 127v639q-33 29 -93.5 53t-134.5 24zM760 86q-104 -109 -275 -109q-170 0 -279.5 142t-109.5 367q0 224 116 369.5t312 145.5q140 0 236 -63v428h102v-1366h-92z" />
    <glyph glyph-name="e" unicode="e" horiz-adv-x="958"
d="M493 911q-108 0 -187 -74.5t-101 -240.5h565q-8 156 -88.5 235.5t-188.5 79.5zM197 506q0 -207 82.5 -322.5t250.5 -115.5t287 125l31 -93q-71 -71 -163.5 -97t-162.5 -26q-205 0 -315.5 135.5t-110.5 373.5t111.5 376.5t291.5 138.5t281 -133t105 -362h-688z" />
    <glyph glyph-name="f" unicode="f" horiz-adv-x="526"
d="M438 1303q-74 0 -114 -46t-39 -176v-104h215v-90h-215v-887h-103v887h-137v90h139v110q0 158 68 232t172 74t182 -39l-22 -86q-72 35 -146 35z" />
    <glyph glyph-name="g" unicode="g" horiz-adv-x="972"
d="M299 176.5q96 -108.5 236 -108.5q72 0 133 27.5t96 60.5v731q-84 24 -175 24q-90 0 -157 -28.5t-148 -116t-81 -284.5t96 -305.5zM462 -315q162 0 232 70.5t70 224.5v69q-104 -72 -267 -72t-280 137t-117 370t130 375t339 142q150 0 297 -36v-1010q0 -162 -94 -261.5
t-299 -99.5q-151 0 -234 35t-92 41l31 94q122 -79 284 -79z" />
    <glyph glyph-name="h" unicode="h" horiz-adv-x="1013"
d="M242 0h-101v1366h101v-475q136 110 286 110t230 -55t110 -160q18 -66 19 -176v-610h-103v604q0 100 -18 154q-53 152 -238 151q-138 0 -286 -118v-791z" />
    <glyph glyph-name="i" unicode="i" horiz-adv-x="382"
d="M190.5 1184q-30.5 0 -52 20.5t-21.5 59.5t21.5 60.5t52 21.5t52 -21.5t21.5 -60.5t-21.5 -59.5t-52 -20.5zM141 0v977h101v-977h-101z" />
    <glyph glyph-name="j" unicode="j" horiz-adv-x="382"
d="M196.5 1184q-30.5 0 -52 20.5t-21.5 59.5t21.5 60.5t52 21.5t52 -21.5t21.5 -60.5t-21.5 -59.5t-52 -20.5zM141 -6v983h101v-983q0 -152 -51.5 -243t-153.5 -152l-41 84q82 55 113.5 126.5t31.5 184.5z" />
    <glyph glyph-name="k" unicode="k" horiz-adv-x="899"
d="M242 594h159q59 0 102.5 39t86.5 137l90 207h108l-102 -225q-72 -158 -143 -187q57 -16 91 -48t62 -103l164 -414h-106l-117 289q-25 57 -43.5 98t-51 78t-116.5 37h-184v-502h-101v1366h101v-772z" />
    <glyph glyph-name="l" unicode="l" horiz-adv-x="448"
d="M133 168v1198h100v-1173q0 -72 15.5 -102t60.5 -30t111 31l18 -82q-64 -33 -127 -33q-110 0 -144 49.5t-34 141.5z" />
    <glyph glyph-name="m" unicode="m" horiz-adv-x="1550"
d="M514 907q-135 0 -272 -127v-780h-101v977h92l7 -92q140 116 300 116t238 -116q131 116 314 116q333 0 333 -383v-618h-104v627q0 137 -61.5 208.5t-163.5 71.5q-160 0 -281 -106q29 -75 29 -172v-629h-103v637q0 205 -91 237.5t-136 32.5z" />
    <glyph glyph-name="n" unicode="n" horiz-adv-x="1013"
d="M526 1001q154 0 234 -54t108 -161q20 -68 21 -176v-610h-103v604q0 102 -18 154q-53 152 -238 151q-154 0 -288 -127v-782h-101v977h90l11 -92q130 116 284 116z" />
    <glyph glyph-name="o" unicode="o" horiz-adv-x="1017"
d="M740 786q-81 125 -231 125t-231 -123.5t-81 -293.5t81 -298t231 -128t231 127.5t81 296.5t-81 294zM203 853.5q107 147.5 302 147.5t307 -149.5t112 -361.5t-110.5 -362.5t-304.5 -150.5t-303.5 154t-109.5 364.5t107 358z" />
    <glyph glyph-name="p" unicode="p" horiz-adv-x="999"
d="M451 68q158 0 254 112.5t96 311.5q0 291 -114 355t-195 64q-130 0 -250 -120v-654q88 -69 209 -69zM512 1001q189 0 290 -137.5t101 -368.5q0 -232 -120 -375t-322 -143q-124 0 -219 56v-428h-101v1372h90l11 -84q118 108 270 108z" />
    <glyph glyph-name="q" unicode="q" horiz-adv-x="1003"
d="M586 911q-90 0 -158 -28.5t-119 -84t-80.5 -135t-29.5 -229t96 -258t235 -108.5q72 0 133.5 27.5t96.5 60.5v731q-84 24 -174 24zM588 1001q127 0 274 -36v-1360h-102v444q-104 -72 -267 -72t-280 137t-117 370t130 375t362 142z" />
    <glyph glyph-name="r" unicode="r" horiz-adv-x="598"
d="M477 999q44 0 111 -14l-15 -98q-41 14 -86 14q-114 0 -245 -131v-770h-101v977h88l9 -100q122 122 239 122z" />
    <glyph glyph-name="s" unicode="s" horiz-adv-x="772"
d="M209 781q0 -50 11 -76.5t49 -58t171 -80.5q133 -48 199 -116.5t66 -196.5t-90.5 -202t-235.5 -74q-144 0 -213.5 47.5t-81.5 59.5l39 92q35 -35 102.5 -71.5t165.5 -36.5t154.5 46t56.5 136t-54 140.5t-191 99.5q-136 49 -193.5 109t-57.5 162t79.5 171t198.5 69
t195 -36.5t115 -77.5l-43 -80q-123 106 -260 106q-92 0 -137 -41t-45 -91z" />
    <glyph glyph-name="t" unicode="t" horiz-adv-x="595"
d="M303 207q0 -139 110 -139q51 0 122 45l40 -76q-29 -23 -67.5 -41.5t-107.5 -18.5q-197 0 -197 222v688h-160v90h160v260h100v-260h244v-90h-244v-680z" />
    <glyph glyph-name="u" unicode="u" horiz-adv-x="1011"
d="M125 362v615h100v-610q0 -102 21 -152q29 -78 87 -112.5t150 -34.5q148 0 287 127v782h100v-977h-92l-8 92q-132 -117 -301 -117q-258 0 -324 213q-20 63 -20 174z" />
    <glyph glyph-name="v" unicode="v" horiz-adv-x="845"
d="M371 0l-361 977h111l305 -848l305 848h105l-357 -977h-108z" />
    <glyph glyph-name="w" unicode="w" horiz-adv-x="1286"
d="M295 0l-285 977h111l231 -840l246 840h90l246 -836l235 836h107l-293 -977h-104l-238 805l-244 -805h-102z" />
    <glyph glyph-name="x" unicode="x" horiz-adv-x="759"
d="M10 0l316 500l-299 477h112l242 -393l244 393h108l-299 -475l316 -502h-111l-258 418l-260 -418h-111z" />
    <glyph glyph-name="y" unicode="y" horiz-adv-x="917"
d="M-4 -303q129 0 237.5 73.5t165.5 202.5l-381 1004h113l334 -897q193 404 326 897h106q-72 -283 -157.5 -498t-167.5 -391t-154 -273t-184.5 -152.5t-241.5 -55.5l-12 90h16z" />
    <glyph glyph-name="z" unicode="z" horiz-adv-x="872"
d="M84 0v106l594 781h-572v90h674v-109l-594 -778h609v-90h-711z" />
    <glyph glyph-name="braceleft" unicode="{" horiz-adv-x="452"
d="M199 113v307q0 117 -38 163t-122 60v78q84 14 122 60t38 163v307q0 134 63 190t160 56l10 -78q-82 -4 -106.5 -49t-24.5 -137v-289q0 -113 -32.5 -173t-121.5 -89q88 -29 121 -89.5t33 -172.5v-289q0 -92 24.5 -137t106.5 -49l-10 -78q-223 0 -223 246z" />
    <glyph glyph-name="bar" unicode="|" horiz-adv-x="382"
d="M143 -152v1663h97v-1663h-97z" />
    <glyph glyph-name="braceright" unicode="}" horiz-adv-x="452"
d="M152 131v289q0 113 32.5 173t120.5 89q-88 29 -120.5 89t-32.5 173v289q0 92 -25 137t-107 49l11 78q168 0 195.5 -98.5t27.5 -147.5v-307q0 -117 38 -163t122 -60v-78q-84 -14 -122 -60t-38 -163v-307q0 -189 -87 -217.5t-136 -28.5l-11 78q82 4 107 49t25 137z" />
    <glyph glyph-name="asciitilde" unicode="~" horiz-adv-x="843"
d="M592 1069q-41 0 -89 29.5t-118 83.5q-71 54 -137 55q-66 0 -105 -49t-49 -113h-86q16 123 81 187.5t166 64.5t198 -76q107 -88 165 -88q109 0 127 166h91q-7 -135 -82 -197.5t-162 -62.5z" />
    <glyph glyph-name="uni00A0" unicode="&#xa0;" horiz-adv-x="503"
 />
    <glyph glyph-name="exclamdown" unicode="&#xa1;" horiz-adv-x="342"
d="M176 817q-35 0 -57.5 22.5t-22.5 63.5t22.5 64.5t57.5 23.5t58.5 -23.5t23.5 -64.5t-23.5 -63.5t-58.5 -22.5zM125 -397v942h102v-942h-102z" />
    <glyph glyph-name="cent" unicode="&#xa2;"
d="M297 684q0 -135 55.5 -208t145.5 -91v594q-86 -12 -143.5 -86t-57.5 -209zM575 -8h-77v297q-133 23 -218 123t-85 269t83.5 270t219.5 122v293h77v-291q76 -4 135.5 -34.5t94.5 -65.5l-62 -70q-69 69 -168 76v-598q98 8 170 82l58 -72q-39 -43 -101.5 -72.5t-126.5 -33.5
v-295z" />
    <glyph glyph-name="sterling" unicode="&#xa3;"
d="M227 0v535h-131v96h131v340q0 197 90.5 302t258.5 105t237.5 -75.5t89.5 -114.5l-80 -66q-49 76 -103 117t-145 41q-240 0 -239 -317v-332h426v-96h-426v-437h569v-98h-678z" />
    <glyph glyph-name="currency" unicode="&#xa4;" horiz-adv-x="1320"
d="M687 377q87 1 171 65t117 150t33 184t-58 189q-104 172 -298 172q-86 -1 -170 -65t-117 -150t-33 -165t26.5 -148.5t72.5 -121t107.5 -81t148.5 -29.5zM268 755.5q0 139.5 90 286.5l-290 328l51 51l284 -325q134 110 263.5 110t259.5 -102l274 317l53 -51l-280 -315
q98 -148 98 -302t-106 -300l288 -332l-43 -45l-288 330q-137 -97 -258 -97t-252 105l-303 -338l-41 47l299 342q-99 151 -99 290.5z" />
    <glyph glyph-name="yen" unicode="&#xa5;"
d="M442 0v444h-297v97h297v104l-55 98h-242v97h191l-285 510h119l328 -605l348 605h112l-299 -510h187v-97h-240l-57 -96v-106h295v-97h-295v-444h-107z" />
    <glyph glyph-name="brokenbar" unicode="&#xa6;" horiz-adv-x="382"
d="M143 946v565h97v-565h-97zM143 -152v566h97v-566h-97z" />
    <glyph glyph-name="section" unicode="&#xa7;" horiz-adv-x="819"
d="M219 584q0 -84 38 -129t89 -86l88 -72q78 29 133.5 84t55.5 132t-35 127t-73 86t-91 81q-90 -23 -147.5 -81t-57.5 -142zM442 1309q-159 0 -159 -142q0 -70 53.5 -134.5t139.5 -140.5q148 -132 196.5 -203t48.5 -169t-60.5 -169.5t-154.5 -106.5q92 -76 132 -141t40 -137
q0 -127 -82.5 -196t-190.5 -69t-171.5 27.5t-110.5 70.5l51 86q90 -94 194 -94q207 0 207 160q0 79 -51 142.5t-178 155.5t-165 142.5t-50 91.5t-12 90q0 117 69.5 190t173.5 103q-126 112 -151 184t-25 124q0 102 70 162.5t175 60.5q169 0 259 -105l-53 -73q-76 90 -195 90
z" />
    <glyph glyph-name="dieresis" unicode="&#xa8;" horiz-adv-x="593"
d="M471 1231q-31 0 -52.5 20.5t-21.5 59.5t21.5 60.5t52.5 21.5t52.5 -21.5t21.5 -60.5t-21.5 -59.5t-52.5 -20.5zM121 1231q-31 0 -52.5 20.5t-21.5 59.5t21.5 60.5t52.5 21.5t52.5 -21.5t21.5 -60.5t-21.5 -59.5t-52.5 -20.5z" />
    <glyph glyph-name="copyright" unicode="&#xa9;" horiz-adv-x="1609"
d="M1096 303q-96 -156 -266 -156t-271.5 115.5t-101.5 342.5t102 346.5t260 119.5q104 0 171 -49t102 -111l-74 -43q-33 53 -77 86t-126 33q-117 0 -190.5 -97.5t-73.5 -281.5t77 -280.5t198 -96.5t200 123zM1421 608q0 131 -42 254t-120.5 217.5t-193.5 150.5t-260.5 56
t-260 -56t-193.5 -150.5t-121 -217.5t-42 -254t42 -254t121 -217t193.5 -151.5t260 -57.5t260.5 57.5t193.5 151.5t120.5 217t42 254zM1516 608.5q0 -153.5 -48.5 -293t-140.5 -244t-224 -167t-298 -62.5t-298 62.5t-224.5 167t-140.5 244t-48 293t48 291.5t140.5 242.5
t224.5 166t298 61.5t298 -61.5t224 -166t140.5 -242.5t48.5 -291.5z" />
    <glyph glyph-name="ordfeminine" unicode="&#xaa;" horiz-adv-x="641"
d="M301 829q104 0 174 82v252q-214 0 -266.5 -70.5t-52.5 -132.5t43 -96.5t102 -34.5zM479 823q-85 -78 -182 -78t-163 59t-66 149q0 157 119.5 222.5t287.5 65.5v39q0 76 -39 111.5t-120 35.5t-169 -71l-36 63q99 88 225 88q229 0 229 -252v-491h-80z" />
    <glyph glyph-name="guillemotleft" unicode="&#xab;" horiz-adv-x="956"
d="M809 121l-383 391l350 408l62 -60l-297 -340l325 -336zM453 121l-375 391l342 408l63 -60l-286 -340l315 -338z" />
    <glyph glyph-name="logicalnot" unicode="&#xac;"
d="M854 174v457h-780v98h876v-555h-96z" />
    <glyph glyph-name="uni00AD" unicode="&#xad;" horiz-adv-x="598"
d="M94 489v109h412v-109h-412z" />
    <glyph glyph-name="registered" unicode="&#xae;" horiz-adv-x="1609"
d="M821 649q195 0 195 170q0 78 -49 120t-138 42h-190v-332h182zM1108 819q0 -201 -213 -246l229 -401h-104l-223 395h-158v-395h-88v889h276q133 0 207 -64.5t74 -177.5zM1421 608q0 131 -42 254t-120.5 217.5t-193.5 150.5t-260.5 56t-260 -56t-193.5 -150.5t-121 -217.5
t-42 -254t42 -254t121 -217t193.5 -151.5t260 -57.5t260.5 57.5t193.5 151.5t120.5 217t42 254zM1516 608.5q0 -153.5 -48.5 -293t-140.5 -244t-224 -167t-298 -62.5t-298 62.5t-224.5 167t-140.5 244t-48 293t48 291.5t140.5 242.5t224.5 166t298 61.5t298 -61.5t224 -166
t140.5 -242.5t48.5 -291.5z" />
    <glyph glyph-name="macron" unicode="&#xaf;" horiz-adv-x="593"
d="M10 1243v94h572v-94h-572z" />
    <glyph glyph-name="degree" unicode="&#xb0;" horiz-adv-x="702"
d="M507.5 1219q-55.5 59 -138.5 59q-82 0 -137.5 -58.5t-55.5 -140.5t56.5 -140t136.5 -58t137 57t57 140q0 82 -55.5 141zM170.5 879.5q-82.5 84.5 -82.5 198.5t83 201t198 87t197.5 -84.5t82.5 -202.5t-83 -201t-198 -83t-197.5 84.5z" />
    <glyph glyph-name="plusminus" unicode="&#xb1;"
d="M465 174v457h-391v98h391v455h96v-455h389v-98h-389v-457h-96zM74 0v98h876v-98h-876z" />
    <glyph glyph-name="twosuperior" unicode="&#xb2;" horiz-adv-x="565"
d="M397 1194q0 98 -106 98t-187 -86l-41 74q48 57 116.5 77.5t111.5 20.5q106 0 154.5 -52t48.5 -124t-33 -118t-99 -95l-133 -102q-37 -29 -45 -55.5t-8 -61.5h328v-84h-422v80q0 49 15.5 90t66.5 80l121 92q63 47 87.5 81t24.5 85z" />
    <glyph glyph-name="threesuperior" unicode="&#xb3;" horiz-adv-x="565"
d="M223 1032q-31 0 -55 -4v68q71 94 209 188h-281v86h406v-90q-171 -104 -232 -180q119 0 179.5 -59.5t60.5 -148.5t-66 -150.5t-164 -61.5t-153 24.5t-74 43.5l33 77q23 -23 70.5 -45t111.5 -22t106 34.5t42 96.5q0 143 -193 143z" />
    <glyph glyph-name="acute" unicode="&#xb4;" horiz-adv-x="593"
d="M150 1116l-50 60l318 284l76 -84z" />
    <glyph glyph-name="mu" unicode="&#xb5;" horiz-adv-x="1081"
d="M254 -387h-98v1364h102v-617q0 -133 74 -212q74 -80 190 -80q153 0 239 108q24 31 36 68t12 131v602h104v-764q1 -70 13 -108t63 -37q13 0 58 14l18 -86q-37 -16 -92 -19q-135 0 -156 142q-110 -142 -297 -142q-90 0 -160 37t-106 107v-508z" />
    <glyph glyph-name="paragraph" unicode="&#xb6;" horiz-adv-x="950"
d="M453 -297v889q-166 0 -273.5 113t-107.5 274.5t105 274t251 112.5h119v-1663h-94zM717 -297v1663h96v-1663h-96z" />
    <glyph glyph-name="periodcentered" unicode="&#xb7;" horiz-adv-x="557"
d="M278.5 666q-34.5 0 -59 24.5t-24.5 66.5t24.5 66.5t59 24.5t60.5 -24.5t26 -66.5t-26 -66.5t-60.5 -24.5z" />
    <glyph glyph-name="cedilla" unicode="&#xb8;" horiz-adv-x="593"
d="M186 -356l99 266h121l-140 -266h-80z" />
    <glyph glyph-name="onesuperior" unicode="&#xb9;" horiz-adv-x="565"
d="M281 686v578l-156 -93l-41 74l205 125h84v-684h-92z" />
    <glyph glyph-name="ordmasculine" unicode="&#xba;" horiz-adv-x="741"
d="M586 1134q0 56 -13.5 110t-40 95t-66.5 67t-118.5 26t-135 -88t-56.5 -209q0 -197 79.5 -251.5t135 -54.5t95.5 27t66.5 70t40 97.5t13.5 110.5zM147.5 864q-79.5 114 -79.5 272q0 157 79 266t224 109t225 -112.5t80 -265.5t-80 -268t-224.5 -115t-224 114z" />
    <glyph glyph-name="guillemotright" unicode="&#xbb;" horiz-adv-x="956"
d="M537 123l-64 57l287 342l-316 336l60 62l375 -392zM180 121l-61 59l297 342l-326 334l57 64l383 -392z" />
    <glyph glyph-name="onequarter" unicode="&#xbc;" horiz-adv-x="1392"
d="M137 -14l-63 71l1210 1319l64 -67zM268 686v578l-155 -93l-41 74l204 125h84v-684h-92zM1133 240v301l-230 -301h230zM1133 0v158h-326v82l340 444h76v-444h86v-82h-86v-158h-90z" />
    <glyph glyph-name="onehalf" unicode="&#xbd;" horiz-adv-x="1392"
d="M88 -14l-63 71l1210 1319l63 -67zM260 686v578l-156 -93l-41 74l205 125h84v-684h-92zM1081 696q107 0 155 -52t48 -124t-33 -118t-98 -95l-133 -102q-37 -29 -45 -55t-8 -62h327v-84h-422v80q0 49 16 90q15 41 66 80l121 92q63 47 88 81t25 81q0 104 -115 102
q-98 0 -178 -86l-41 74q44 53 147 87q37 11 80 11z" />
    <glyph glyph-name="threequarters" unicode="&#xbe;" horiz-adv-x="1392"
d="M219 -14l-63 71l1210 1319l64 -67zM281 1032q-30 0 -56 -4v68q71 94 209 188h-280v86h405v-90q-169 -103 -231 -180q119 0 179 -60t60 -148q0 -89 -66 -151q-67 -61 -165 -61t-152 25q-55 25 -73 43l32 77q23 -23 70 -45t111 -22t107 35q42 35 42 96q0 143 -192 143z
M1163 240v301l-229 -301h229zM1163 0v158h-325v82l340 444h75v-444h86v-82h-86v-158h-90z" />
    <glyph glyph-name="questiondown" unicode="&#xbf;" horiz-adv-x="698"
d="M272 918q0 40 24 64t58 24t58 -24q22 -24 22 -64t-22 -64q-22 -22 -58 -22q-34 0 -58 22t-24 64zM307 537v53h99v-62q0 -92 -41 -158t-101 -134q-60 -70 -104 -144t-45 -177q0 -103 61 -158q62 -55 160 -55t160 46q61 47 110 113l66 -66q-81 -122 -215 -170
q-53 -19 -119 -20q-160 0 -246 85t-86 239t176 356q81 95 103 140q22 44 22 112z" />
    <glyph glyph-name="Agrave" unicode="&#xc0;" horiz-adv-x="1091"
d="M309 541h467l-235 696zM10 0l484 1366h98l489 -1366h-112l-160 438h-533l-155 -438h-111zM696 1456l-342 260l76 84l318 -284z" />
    <glyph glyph-name="Aacute" unicode="&#xc1;" horiz-adv-x="1091"
d="M309 541h467l-235 696zM10 0l484 1366h98l489 -1366h-112l-160 438h-533l-155 -438h-111zM414 1456l-49 60l317 284l76 -84z" />
    <glyph glyph-name="Acircumflex" unicode="&#xc2;" horiz-adv-x="1091"
d="M309 541h467l-235 696zM10 0l484 1366h98l489 -1366h-112l-160 438h-533l-155 -438h-111zM338 1450l-59 53l231 307h63l232 -307l-60 -53l-204 264z" />
    <glyph glyph-name="Atilde" unicode="&#xc3;" horiz-adv-x="1091"
d="M309 541h467l-235 696zM10 0l484 1366h98l489 -1366h-112l-160 438h-533l-155 -438h-111zM406 1638q-71 0 -119 -116l-72 30q63 168 203 168q73 0 148 -59t118 -59q67 0 119 129l71 -35q-68 -180 -198 -180q-71 0 -149 61q-79 61 -121 61z" />
    <glyph glyph-name="Adieresis" unicode="&#xc4;" horiz-adv-x="1091"
d="M309 541h467l-235 696zM10 0l484 1366h98l489 -1366h-112l-160 438h-533l-155 -438h-111zM715 1571q-31 0 -53 20q-22 19 -21 59q0 40 22 62q23 22 53 21q30 0 52 -22q22 -23 20 -61q0 -38 -21 -58t-52 -21zM365 1571q-31 0 -53 20q-22 19 -22 59t22 62t53 21
q31 0 53 -22q22 -23 20 -61q0 -38 -21 -58t-52 -21z" />
    <glyph glyph-name="Aring" unicode="&#xc5;" horiz-adv-x="1091"
d="M309 541h467l-235 696zM10 0l484 1366h98l489 -1366h-112l-160 438h-533l-155 -438h-111zM649 1634q0 56 -33 96q-34 40 -78 40t-77 -40q-33 -38 -33 -96t31 -93q31 -36 81 -36t80 36q29 36 29 93zM537 1841q91 0 141 -60q51 -59 51 -143t-52 -144t-141 -60
q-90 0 -140 60t-50 144q0 82 50 142t141 61z" />
    <glyph glyph-name="AE" unicode="&#xc6;" horiz-adv-x="1624"
d="M807 541v696l-399 -696h399zM1534 1366v-100h-625v-492h453v-100h-453v-574h662v-100h-764v438h-455l-254 -438h-108l790 1366h754z" />
    <glyph glyph-name="Ccedilla" unicode="&#xc7;" horiz-adv-x="1110"
d="M954 1063q-116 227 -342 227q-74 0 -150 -40q-77 -40 -131 -118q-116 -166 -116 -447t117 -445t318 -164t337 180l62 -86q-152 -192 -405 -193q-253 -2 -398 185q-144 187 -144 521q0 333 148 522q148 188 379 188q143 0 249 -73t162 -190zM483 -356l99 266h120
l-139 -266h-80z" />
    <glyph glyph-name="Egrave" unicode="&#xc8;" horiz-adv-x="974"
d="M156 0v1366h729v-100h-625v-492h453v-100h-453v-574h662v-100h-766zM643 1456l-342 260l76 84l317 -284z" />
    <glyph glyph-name="Eacute" unicode="&#xc9;" horiz-adv-x="974"
d="M156 0v1366h729v-100h-625v-492h453v-100h-453v-574h662v-100h-766zM395 1456l-49 60l318 284l75 -84z" />
    <glyph glyph-name="Ecircumflex" unicode="&#xca;" horiz-adv-x="974"
d="M156 0v1366h729v-100h-625v-492h453v-100h-453v-574h662v-100h-766zM315 1450l-59 53l231 307h64l231 -307l-59 -53l-205 264z" />
    <glyph glyph-name="Edieresis" unicode="&#xcb;" horiz-adv-x="974"
d="M156 0v1366h729v-100h-625v-492h453v-100h-453v-574h662v-100h-766zM705 1571q-31 0 -53 20q-22 19 -22 59t22 62t53 21q31 0 53 -22q22 -23 20 -61q0 -38 -21 -58t-52 -21zM354 1571q-30 0 -52 20q-22 19 -22 59t22 62t52 21q30 0 53 -22q21 -23 21 -61t-21 -59
q-22 -20 -53 -20z" />
    <glyph glyph-name="Igrave" unicode="&#xcc;" horiz-adv-x="417"
d="M156 0v1366h106v-1366h-106zM352 1456l-342 260l76 84l317 -284z" />
    <glyph glyph-name="Iacute" unicode="&#xcd;" horiz-adv-x="417"
d="M156 0v1366h106v-1366h-106zM98 1456l-49 60l318 284l75 -84z" />
    <glyph glyph-name="Icircumflex" unicode="&#xce;" horiz-adv-x="417"
d="M156 0v1366h106v-1366h-106zM14 1450l-59 53l231 307h64l231 -307l-59 -53l-205 264z" />
    <glyph glyph-name="Idieresis" unicode="&#xcf;" horiz-adv-x="417"
d="M156 0v1366h106v-1366h-106zM391 1571q-31 0 -53 20q-22 19 -21 59q0 40 22 62q23 22 53 21q30 0 52 -22q22 -23 21 -61q1 -38 -21 -58t-53 -21zM41 1571q-31 0 -53 20q-22 19 -21 59q0 40 22 62q23 22 53 21q30 0 52 -22q22 -23 21 -61q1 -38 -21 -58t-53 -21z" />
    <glyph glyph-name="Eth" unicode="&#xd0;" horiz-adv-x="1193"
d="M262 100h195q132 0 213 31q143 53 229 190t86 345t-89 404t-431 196h-203v-512h375v-88h-375v-566zM156 0v666h-152v88h152v612h319q372 0 496.5 -217t124.5 -473t-134.5 -466t-486.5 -210h-319z" />
    <glyph glyph-name="Ntilde" unicode="&#xd1;" horiz-adv-x="1255"
d="M156 0v1366h112l727 -1151v1151h105v-1366h-92l-748 1178v-1178h-104zM788 1516q-70 0 -148 61q-79 61 -122 61q-69 0 -119 -116l-71 30q63 168 202 168q72 0 147 -59q76 -59 120 -59q68 0 118 129l72 -35q-68 -180 -199 -180z" />
    <glyph glyph-name="Ograve" unicode="&#xd2;" horiz-adv-x="1263"
d="M950 1098q-115 194 -319 194t-318 -193q-100 -171 -100 -413q0 -243 109 -428q109 -184 310 -184t317 195q102 171 102 415t-101 414zM232 194q-130 192 -130 487t141 503q141 207 394 208t396 -220q128 -195 128 -486q0 -292 -128 -490q-65 -98 -165 -160t-235 -62
q-253 0 -401 220zM807 1456l-342 260l76 84l317 -284z" />
    <glyph glyph-name="Oacute" unicode="&#xd3;" horiz-adv-x="1263"
d="M950 1098q-115 194 -319 194t-318 -193q-100 -171 -100 -413q0 -243 109 -428q109 -184 310 -184t317 195q102 171 102 415t-101 414zM232 194q-130 192 -130 487t141 503q141 207 394 208t396 -220q128 -195 128 -486q0 -292 -128 -490q-65 -98 -165 -160t-235 -62
q-253 0 -401 220zM506 1456l-49 60l317 284l76 -84z" />
    <glyph glyph-name="Ocircumflex" unicode="&#xd4;" horiz-adv-x="1263"
d="M950 1098q-115 194 -319 194t-318 -193q-100 -171 -100 -413q0 -243 109 -428q109 -184 310 -184t317 195q102 171 102 415t-101 414zM232 194q-130 192 -130 487t141 503q141 207 394 208t396 -220q128 -195 128 -486q0 -292 -128 -490q-65 -98 -165 -160t-235 -62
q-253 0 -401 220zM440 1450l-59 53l231 307h64l231 -307l-59 -53l-205 264z" />
    <glyph glyph-name="Otilde" unicode="&#xd5;" horiz-adv-x="1263"
d="M950 1098q-115 194 -319 194t-318 -193q-100 -171 -100 -413q0 -243 109 -428q109 -184 310 -184t317 195q102 171 102 415t-101 414zM232 194q-130 192 -130 487t141 503q141 207 394 208t396 -220q128 -195 128 -486q0 -292 -128 -490q-65 -98 -165 -160t-235 -62
q-253 0 -401 220zM504 1638q-71 0 -119 -116l-72 30q63 168 203 168q72 0 147 -59q76 -59 119 -59q69 0 119 129l72 -35q-68 -180 -199 -180q-72 0 -149 63q-78 59 -121 59z" />
    <glyph glyph-name="Odieresis" unicode="&#xd6;" horiz-adv-x="1263"
d="M950 1098q-115 194 -319 194t-318 -193q-100 -171 -100 -413q0 -243 109 -428q109 -184 310 -184t317 195q102 171 102 415t-101 414zM232 194q-130 192 -130 487t141 503q141 207 394 208t396 -220q128 -195 128 -486q0 -292 -128 -490q-65 -98 -165 -160t-235 -62
q-253 0 -401 220zM809 1571q-31 0 -53 20q-22 19 -21 59q0 40 22 62q23 22 53 21q30 0 52 -22q22 -23 21 -61q1 -38 -21 -58t-53 -21zM459 1571q-31 0 -53 20q-22 19 -21 59q0 40 22 62q23 22 53 21q30 0 52 -22q22 -23 20 -61q0 -38 -21 -58t-52 -21z" />
    <glyph glyph-name="multiply" unicode="&#xd7;"
d="M209 287l-68 71l305 320l-305 321l68 72l303 -321l305 321l70 -72l-307 -321l307 -320l-70 -71l-305 321z" />
    <glyph glyph-name="Oslash" unicode="&#xd8;" horiz-adv-x="1265"
d="M943.5 255.5q109.5 181.5 109.5 402.5q0 220 -70 380l-621 -831q107 -133 273 -133q199 0 308.5 181.5zM322.5 1110.5q-107.5 -181.5 -107.5 -417.5q0 -237 90 -398l623 840q-111 157 -305 157q-193 0 -300.5 -181.5zM1057 1137q106 -196 106 -470t-96 -422.5
t-196.5 -210t-235.5 -61.5q-198 0 -340 144l-121 -162l-76 63l133 179q-127 192 -127 486q0 293 140.5 501.5t390.5 208.5q222 0 362 -168l131 178l80 -64z" />
    <glyph glyph-name="Ugrave" unicode="&#xd9;" horiz-adv-x="1210"
d="M141 455v911h105v-881q0 -186 92 -298q92 -111 266 -111t267 108t94 301v881h106v-911q0 -221 -132 -352t-333 -130q-202 0 -333 128q-132 129 -132 354zM756 1456l-342 260l75 84l318 -284z" />
    <glyph glyph-name="Uacute" unicode="&#xda;" horiz-adv-x="1210"
d="M141 455v911h105v-881q0 -186 92 -298q92 -111 266 -111t267 108t94 301v881h106v-911q0 -221 -132 -352t-333 -130q-202 0 -333 128q-132 129 -132 354zM522 1456l-49 60l318 284l75 -84z" />
    <glyph glyph-name="Ucircumflex" unicode="&#xdb;" horiz-adv-x="1210"
d="M141 455v911h105v-881q0 -186 92 -298q92 -111 266 -111t267 108t94 301v881h106v-911q0 -221 -132 -352t-333 -130q-202 0 -333 128q-132 129 -132 354zM416 1450l-60 53l232 307h63l232 -307l-60 -53l-205 264z" />
    <glyph glyph-name="Udieresis" unicode="&#xdc;" horiz-adv-x="1210"
d="M141 455v911h105v-881q0 -186 92 -298q92 -111 266 -111t267 108t94 301v881h106v-911q0 -221 -132 -352t-333 -130q-202 0 -333 128q-132 129 -132 354zM786 1571q-30 0 -52 20q-22 19 -22 59t22 62t52 21q30 0 53 -22q21 -23 21 -61t-21 -59q-22 -20 -53 -20zM436 1571
q-30 0 -52 20q-22 19 -22 59t22 62t52 21q30 0 52 -22q22 -23 22 -61t-22 -58t-52 -21z" />
    <glyph glyph-name="Yacute" unicode="&#xdd;" horiz-adv-x="1021"
d="M451 0v657l-441 709h121l375 -604l389 604h117l-455 -707v-659h-106zM479 1456l-49 60l318 284l75 -84z" />
    <glyph glyph-name="Thorn" unicode="&#xde;" horiz-adv-x="1011"
d="M254 385h301q135 0 214 79t79 217t-73 217t-222 79h-299v-592zM147 0v1366h107v-289h299q197 0 303.5 -101.5t106.5 -294.5t-112 -294.5t-296 -101.5h-301v-285h-107z" />
    <glyph glyph-name="germandbls" unicode="&#xdf;" horiz-adv-x="1044"
d="M444 166q109 -98 253 -98q81 0 130.5 47t49.5 129q0 121 -81 167.5t-165 76.5t-144.5 86.5t-60.5 161.5t77.5 173t205.5 68h55q-4 162 -67.5 244t-172.5 82t-175 -71t-66 -224v-1008h-101v887h-137v90h137v43q0 172 97 272.5t247 100.5t242 -109.5t92 -306.5v-90h-149
q-92 0 -138.5 -40t-46.5 -106t41 -101.5t171 -85.5t184.5 -120.5t54.5 -190.5t-79 -193t-213 -73t-199.5 42t-77.5 57z" />
    <glyph glyph-name="agrave" unicode="&#xe0;" horiz-adv-x="897"
d="M416 68q146 0 254 118v359q-326 -8 -429 -136q-42 -52 -42 -121q0 -166 137 -208q39 -12 80 -12zM94 272q0 347 576 363v39q0 237 -211 237q-131 0 -262 -100l-37 82q37 33 123 70q85 38 180 38q155 0 231 -87t76 -240v-674h-90l-6 86q-104 -109 -256 -109
q-151 0 -237 79q-87 80 -87 216zM606 1116l-342 260l76 84l317 -284z" />
    <glyph glyph-name="aacute" unicode="&#xe1;" horiz-adv-x="897"
d="M416 68q146 0 254 118v359q-326 -8 -429 -136q-42 -52 -42 -121q0 -166 137 -208q39 -12 80 -12zM94 272q0 347 576 363v39q0 237 -211 237q-131 0 -262 -100l-37 82q37 33 123 70q85 38 180 38q155 0 231 -87t76 -240v-674h-90l-6 86q-104 -109 -256 -109
q-151 0 -237 79q-87 80 -87 216zM344 1116l-49 60l317 284l76 -84z" />
    <glyph glyph-name="acircumflex" unicode="&#xe2;" horiz-adv-x="897"
d="M416 68q146 0 254 118v359q-326 -8 -429 -136q-42 -52 -42 -121q0 -166 137 -208q39 -12 80 -12zM94 272q0 347 576 363v39q0 237 -211 237q-131 0 -262 -100l-37 82q37 33 123 70q85 38 180 38q155 0 231 -87t76 -240v-674h-90l-6 86q-104 -109 -256 -109
q-151 0 -237 79q-87 80 -87 216zM254 1110l-59 53l231 307h63l232 -307l-59 -53l-205 264z" />
    <glyph glyph-name="atilde" unicode="&#xe3;" horiz-adv-x="897"
d="M416 68q146 0 254 118v359q-326 -8 -429 -136q-42 -52 -42 -121q0 -166 137 -208q39 -12 80 -12zM94 272q0 347 576 363v39q0 237 -211 237q-131 0 -262 -100l-37 82q37 33 123 70q85 38 180 38q155 0 231 -87t76 -240v-674h-90l-6 86q-104 -109 -256 -109
q-151 0 -237 79q-87 80 -87 216zM602 1262q69 0 119 129l72 -35q-37 -98 -91 -139t-116 -41q-63 0 -141 61q-79 61 -121 61q-71 0 -119 -116l-72 30q63 168 203 168q73 0 148 -59q74 -59 118 -59z" />
    <glyph glyph-name="adieresis" unicode="&#xe4;" horiz-adv-x="897"
d="M416 68q146 0 254 118v359q-326 -8 -429 -136q-42 -52 -42 -121q0 -166 137 -208q39 -12 80 -12zM94 272q0 347 576 363v39q0 237 -211 237q-131 0 -262 -100l-37 82q37 33 123 70q85 38 180 38q155 0 231 -87t76 -240v-674h-90l-6 86q-104 -109 -256 -109
q-151 0 -237 79q-87 80 -87 216zM631 1231q-31 0 -53 20q-22 19 -21 59q0 40 22 62q23 22 53 21q30 0 52 -22q22 -23 21 -61q1 -38 -21 -58t-53 -21zM281 1231q-31 0 -53 20q-22 19 -22 59t22 62t53 21q31 0 53 -22q22 -23 20 -61q0 -38 -21 -58t-52 -21z" />
    <glyph glyph-name="aring" unicode="&#xe5;" horiz-adv-x="897"
d="M416 68q146 0 254 118v359q-326 -8 -429 -136q-42 -52 -42 -121q0 -166 137 -208q39 -12 80 -12zM94 272q0 347 576 363v39q0 237 -211 237q-131 0 -262 -100l-37 82q37 33 123 70q85 38 180 38q155 0 231 -87t76 -240v-674h-90l-6 86q-104 -109 -256 -109
q-151 0 -237 79q-87 80 -87 216zM586 1294q0 56 -33 96t-78 40t-78 -39t-33 -97t32 -93q30 -36 80 -36t80 36t30 93zM666 1298q0 -82 -52 -144q-52 -60 -143 -60q-90 0 -139 60t-49 144q0 82 50 142q51 60 141 61q90 -1 141 -61t51 -142z" />
    <glyph glyph-name="ae" unicode="&#xe6;" horiz-adv-x="1548"
d="M1085 911q-109 0 -189.5 -75.5t-96.5 -229.5h561q-7 151 -86.5 228t-188.5 77zM696 516h-63q-141 0 -224 -16t-145.5 -68t-62.5 -158t64.5 -156t140.5 -50q137 0 213.5 65.5t76.5 167.5v215zM94 281q0 325 535 325h65v68q0 53 -31 145.5t-198 91.5q-139 0 -268 -100
l-37 84q151 106 296 106q144 0 210.5 -50t101.5 -134q104 184 306 184q201 0 298.5 -131t102.5 -354h-684q0 -207 80.5 -327.5t248.5 -120.5t287 125l31 -93q-71 -71 -163.5 -97t-162.5 -26q-256 0 -356 201q-59 -137 -164 -169t-178 -32q-154 0 -237 82t-83 222z" />
    <glyph glyph-name="ccedilla" unicode="&#xe7;" horiz-adv-x="897"
d="M526 -23q-297 0 -398 293q-32 94 -32 220q0 242 116 378q116 135 288 133q125 0 225 -73q70 -53 109 -131l-74 -52q-52 82 -110 124t-138 42q-80 1 -135 -31q-113 -65 -157 -222q-22 -77 -22 -171q1 -191 91 -305q89 -114 233 -112q76 0 137 26t127 94l39 -88
q-43 -45 -121 -85q-76 -40 -178 -40zM362 -356l99 266h121l-140 -266h-80z" />
    <glyph glyph-name="egrave" unicode="&#xe8;" horiz-adv-x="958"
d="M494 911q-109 -1 -188 -75t-101 -240h565q-7 151 -93 241q-74 74 -183 74zM197 506q0 -207 83 -323q82 -115 250 -115t287 125l31 -93q-68 -68 -201 -107q-55 -15 -125 -16q-206 -1 -316 135t-110 374t112 377q112 140 293 139q180 -1 280 -135t104 -361h-688zM649 1116
l-342 260l76 84l317 -284z" />
    <glyph glyph-name="eacute" unicode="&#xe9;" horiz-adv-x="958"
d="M494 911q-109 -1 -188 -75t-101 -240h565q-7 151 -93 241q-74 74 -183 74zM197 506q0 -207 83 -323q82 -115 250 -115t287 125l31 -93q-68 -68 -201 -107q-55 -15 -125 -16q-206 -1 -316 135t-110 374t112 377q112 140 293 139q180 -1 280 -135t104 -361h-688zM383 1116
l-49 60l317 284l76 -84z" />
    <glyph glyph-name="ecircumflex" unicode="&#xea;" horiz-adv-x="958"
d="M494 911q-109 -1 -188 -75t-101 -240h565q-7 151 -93 241q-74 74 -183 74zM197 506q0 -207 83 -323q82 -115 250 -115t287 125l31 -93q-68 -68 -201 -107q-55 -15 -125 -16q-206 -1 -316 135t-110 374t112 377q112 140 293 139q180 -1 280 -135t104 -361h-688zM301 1110
l-59 53l231 307h64l231 -307l-59 -53l-205 264z" />
    <glyph glyph-name="edieresis" unicode="&#xeb;" horiz-adv-x="958"
d="M494 911q-109 -1 -188 -75t-101 -240h565q-7 151 -93 241q-74 74 -183 74zM197 506q0 -207 83 -323q82 -115 250 -115t287 125l31 -93q-68 -68 -201 -107q-55 -15 -125 -16q-206 -1 -316 135t-110 374t112 377q112 140 293 139q180 -1 280 -135t104 -361h-688zM676 1231
q-30 0 -52 20q-22 19 -22 59t22 62t52 21q30 0 52 -22q22 -23 22 -61t-22 -58t-52 -21zM326 1231q-31 0 -53 20q-21 19 -21 59t22 62t52 21q30 0 52 -22q22 -23 22 -61t-22 -58q-21 -20 -52 -21z" />
    <glyph glyph-name="igrave" unicode="&#xec;" horiz-adv-x="382"
d="M152 0v977h100v-977h-100zM354 1116l-342 260l76 84l318 -284z" />
    <glyph glyph-name="iacute" unicode="&#xed;" horiz-adv-x="382"
d="M152 0v977h100v-977h-100zM78 1116l-49 60l317 284l76 -84z" />
    <glyph glyph-name="icircumflex" unicode="&#xee;" horiz-adv-x="382"
d="M152 0v977h100v-977h-100zM8 1110l-59 53l231 307h64l231 -307l-59 -53l-205 264z" />
    <glyph glyph-name="idieresis" unicode="&#xef;" horiz-adv-x="382"
d="M152 0v977h100v-977h-100zM385 1231q-31 0 -53 20q-22 19 -21 59q0 40 22 62q23 22 53 21q30 0 52 -22q22 -23 21 -61q1 -38 -21 -58t-53 -21zM35 1231q-31 0 -53 20q-22 19 -21 59q0 40 22 62q23 22 53 21q30 0 52 -22q22 -23 21 -61q1 -38 -21 -58t-53 -21z" />
    <glyph glyph-name="eth" unicode="&#xf0;" horiz-adv-x="1011"
d="M769.5 241q47.5 173 47.5 327t-37 255q-109 88 -259 88t-238 -109.5t-88 -310.5t90 -312t223 -111q214 0 261.5 173zM915 543q0 -278 -110.5 -422t-293.5 -144t-299 133.5t-116 375.5t112.5 378.5t281.5 136.5t264 -67q-62 155 -181 264l-227 -104l-53 57l219 100
q-80 61 -154 90l86 45q94 -46 152 -94l221 101l53 -58l-213 -96q258 -248 258 -696z" />
    <glyph glyph-name="ntilde" unicode="&#xf1;" horiz-adv-x="1013"
d="M889 0h-103v604q0 102 -18 154q-53 152 -238 151q-151 0 -288 -127v-782h-101v977h90l11 -92q133 118 301 116q269 0 325 -215q20 -68 21 -176v-610zM666 1262q68 0 118 129l72 -35q-36 -98 -90 -139t-116 -41t-141 61t-122 61q-69 0 -119 -116l-71 30q63 168 202 168
q72 0 147 -59q76 -59 120 -59z" />
    <glyph glyph-name="ograve" unicode="&#xf2;" horiz-adv-x="1017"
d="M743 780q-88 133 -234 132q-147 -1 -229 -123q-83 -122 -83 -296q0 -173 83 -300t230 -126q148 1 229 128q82 127 82 298q0 172 -78 287zM924 490q0 -211 -110 -362t-305 -151q-194 0 -303 154q-110 154 -110 363t107 358t301 149q195 0 307 -150q113 -150 113 -361z
M680 1116l-342 260l76 84l317 -284z" />
    <glyph glyph-name="oacute" unicode="&#xf3;" horiz-adv-x="1017"
d="M743 780q-88 133 -234 132q-147 -1 -229 -123q-83 -122 -83 -296q0 -173 83 -300t230 -126q148 1 229 128q82 127 82 298q0 172 -78 287zM924 490q0 -211 -110 -362t-305 -151q-194 0 -303 154q-110 154 -110 363t107 358t301 149q195 0 307 -150q113 -150 113 -361z
M385 1116l-49 60l317 284l76 -84z" />
    <glyph glyph-name="ocircumflex" unicode="&#xf4;" horiz-adv-x="1017"
d="M743 780q-88 133 -234 132q-147 -1 -229 -123q-83 -122 -83 -296q0 -173 83 -300t230 -126q148 1 229 128q82 127 82 298q0 172 -78 287zM924 490q0 -211 -110 -362t-305 -151q-194 0 -303 154q-110 154 -110 363t107 358t301 149q195 0 307 -150q113 -150 113 -361z
M315 1110l-59 53l231 307h64l231 -307l-59 -53l-205 264z" />
    <glyph glyph-name="otilde" unicode="&#xf5;" horiz-adv-x="1017"
d="M743 780q-88 133 -234 132q-147 -1 -229 -123q-83 -122 -83 -296q0 -173 83 -300t230 -126q148 1 229 128q82 127 82 298q0 172 -78 287zM924 490q0 -211 -110 -362t-305 -151q-194 0 -303 154q-110 154 -110 363t107 358t301 149q195 0 307 -150q113 -150 113 -361z
M666 1264q68 0 118 129l72 -35q-36 -98 -90 -139t-116 -41t-141 61t-122 61q-69 0 -119 -116l-71 30q63 168 202 168q72 0 147 -59q76 -59 120 -59z" />
    <glyph glyph-name="odieresis" unicode="&#xf6;" horiz-adv-x="1017"
d="M743 780q-88 133 -234 132q-147 -1 -229 -123q-83 -122 -83 -296q0 -173 83 -300t230 -126q148 1 229 128q82 127 82 298q0 172 -78 287zM924 490q0 -211 -110 -362t-305 -151q-194 0 -303 154q-110 154 -110 363t107 358t301 149q195 0 307 -150q113 -150 113 -361z
M694 1231q-30 0 -52 20q-22 19 -22 59t22 62t52 21q30 0 52 -22q22 -23 22 -61t-22 -58t-52 -21zM344 1231q-30 0 -52 20q-22 19 -22 59t22 62t52 21q30 0 52 -22q22 -23 22 -61t-22 -58t-52 -21z" />
    <glyph glyph-name="divide" unicode="&#xf7;"
d="M514 940q-37 0 -63.5 28.5t-26.5 70.5t26.5 70t63.5 28t63.5 -28t26.5 -70t-26.5 -70.5t-63.5 -28.5zM74 631v98h876v-98h-876zM514 221q-37 0 -63.5 27.5t-26.5 69.5t26.5 70t63.5 28t63.5 -28t26.5 -70t-26.5 -69.5t-63.5 -27.5z" />
    <glyph glyph-name="oslash" unicode="&#xf8;" horiz-adv-x="1017"
d="M508 68q151 0 232 127.5t81 284.5q0 156 -57 270l-449 -598q80 -84 193 -84zM508 911q-148 0 -229.5 -123.5t-81.5 -287.5t67 -279l447 602q-84 88 -203 88zM825 834q99 -152 99 -353q0 -202 -110.5 -353t-305.5 -151q-149 0 -250 97l-88 -117l-64 53l95 127
q-105 143 -105 356t107 360.5t305 147.5q153 0 262 -100l84 115l70 -53z" />
    <glyph glyph-name="ugrave" unicode="&#xf9;" horiz-adv-x="1011"
d="M125 362v615h100v-610q0 -102 21 -152q55 -149 237 -147q148 0 287 127v782h100v-977h-92l-8 92q-132 -117 -301 -117q-258 0 -324 213q-20 63 -20 174zM662 1116l-343 260l76 84l318 -284z" />
    <glyph glyph-name="uacute" unicode="&#xfa;" horiz-adv-x="1011"
d="M125 362v615h100v-610q0 -102 21 -152q55 -149 237 -147q148 0 287 127v782h100v-977h-92l-8 92q-132 -117 -301 -117q-258 0 -324 213q-20 63 -20 174zM406 1116l-50 60l318 284l76 -84z" />
    <glyph glyph-name="ucircumflex" unicode="&#xfb;" horiz-adv-x="1011"
d="M125 362v615h100v-610q0 -102 21 -152q55 -149 237 -147q148 0 287 127v782h100v-977h-92l-8 92q-132 -117 -301 -117q-258 0 -324 213q-20 63 -20 174zM307 1110l-59 53l231 307h64l231 -307l-59 -53l-205 264z" />
    <glyph glyph-name="udieresis" unicode="&#xfc;" horiz-adv-x="1011"
d="M125 362v615h100v-610q0 -102 21 -152q55 -149 237 -147q148 0 287 127v782h100v-977h-92l-8 92q-132 -117 -301 -117q-258 0 -324 213q-20 63 -20 174zM690 1231q-30 0 -52 20q-22 19 -22 59t22 62t52 21q30 0 52 -22q22 -23 22 -61t-22 -58t-52 -21zM340 1231
q-30 0 -52 20q-22 19 -22 59t22 62t52 21q30 0 52 -22q22 -23 22 -61t-22 -58t-52 -21z" />
    <glyph glyph-name="yacute" unicode="&#xfd;" horiz-adv-x="917"
d="M-4 -303q130 0 238 74t165 202l-381 1004h113l334 -897q193 404 326 897h106q-72 -283 -157 -498q-86 -215 -168 -391t-154 -273t-184 -153t-242 -55l-12 90h16zM379 1116l-49 60l317 284l76 -84z" />
    <glyph glyph-name="thorn" unicode="&#xfe;" horiz-adv-x="1003"
d="M805 492q0 290 -113.5 354.5t-195.5 64.5q-147 0 -250 -108v-666q88 -69 209 -69q158 0 254 112.5t96 311.5zM246 905q106 96 282 96t277.5 -137.5t101.5 -369.5t-121.5 -374.5t-320.5 -142.5q-124 0 -219 56v-428h-101v1761h101v-461z" />
    <glyph glyph-name="ydieresis" unicode="&#xff;" horiz-adv-x="917"
d="M-4 -303q130 0 238 74t165 202l-381 1004h113l334 -897q193 404 326 897h106q-72 -283 -157 -498q-86 -215 -168 -391t-154 -273t-184 -153t-242 -55l-12 90h16zM645 1231q-31 0 -53 20q-22 19 -21 59q0 40 22 62q23 22 53 21q30 0 52 -22q22 -23 21 -61q1 -38 -21 -58
t-53 -21zM295 1231q-31 0 -53 20q-22 19 -21 59q0 40 22 62q23 22 53 21q30 0 52 -22q22 -23 21 -61q1 -38 -21 -58t-53 -21z" />
    <glyph glyph-name="Amacron" unicode="&#x100;" horiz-adv-x="1091"
d="M309 541h467l-235 696zM10 0l484 1366h98l489 -1366h-112l-160 438h-533l-155 -438h-111zM260 1583v94h571v-94h-571z" />
    <glyph glyph-name="amacron" unicode="&#x101;" horiz-adv-x="897"
d="M416 68q146 0 254 118v359q-326 -8 -429 -136q-42 -52 -42 -121q0 -166 137 -208q39 -12 80 -12zM94 272q0 347 576 363v39q0 237 -211 237q-131 0 -262 -100l-37 82q37 33 123 70q85 38 180 38q155 0 231 -87t76 -240v-674h-90l-6 86q-104 -109 -256 -109
q-151 0 -237 79q-87 80 -87 216zM178 1243v94h572v-94h-572z" />
    <glyph glyph-name="Abreve" unicode="&#x102;" horiz-adv-x="1091"
d="M309 541h467l-235 696zM10 0l484 1366h98l489 -1366h-112l-160 438h-533l-155 -438h-111zM324 1767q26 -205 219 -211q132 0 187 107q22 41 30 104h82q-4 -147 -92 -221t-207 -75q-118 -1 -209 75q-90 76 -92 221h82z" />
    <glyph glyph-name="abreve" unicode="&#x103;" horiz-adv-x="897"
d="M416 68q146 0 254 118v359q-326 -8 -429 -136q-42 -52 -42 -121q0 -166 137 -208q39 -12 80 -12zM94 272q0 347 576 363v39q0 237 -211 237q-131 0 -262 -100l-37 82q37 33 123 70q85 38 180 38q155 0 231 -87t76 -240v-674h-90l-6 86q-104 -109 -256 -109
q-151 0 -237 79q-87 80 -87 216zM471 1217q190 0 217 210h82q-4 -145 -92 -220t-206 -76t-208 74t-94 222h82q14 -113 76 -162q61 -48 143 -48z" />
    <glyph glyph-name="Aogonek" unicode="&#x104;" horiz-adv-x="1091"
d="M309 541h467l-235 696zM973 -299q37 0 82 29l24 -86q-58 -35 -126 -35q-69 0 -111 39t-43 103q0 145 131 255q15 13 28 24l-149 408h-533l-155 -438h-111l484 1366h98l489 -1366h-46q-129 -103 -132 -213q0 -86 70 -86z" />
    <glyph glyph-name="aogonek" unicode="&#x105;" horiz-adv-x="897"
d="M416 68q146 0 254 118v359q-326 -8 -429 -136q-42 -52 -42 -121q0 -166 137 -208q39 -12 80 -12zM94 272q0 347 576 363v39q0 237 -211 237q-131 0 -262 -100l-37 82q37 33 123 70q85 38 180 38q155 0 231 -87t76 -240v-674h-31q-90 -75 -113 -125q-24 -51 -24 -92
q0 -86 70 -86q37 0 82 29l24 -86q-58 -35 -126 -35q-70 0 -112 39t-42 103q0 145 131 255q28 25 48 41l-3 43q-104 -109 -256 -109q-151 0 -237 79q-87 80 -87 216z" />
    <glyph glyph-name="Cacute" unicode="&#x106;" horiz-adv-x="1110"
d="M954 1063q-116 227 -342 227q-74 0 -150 -40q-77 -40 -131 -118q-116 -166 -116 -447t117 -445t318 -164t337 180l62 -86q-152 -192 -405 -193q-253 -2 -398 185q-144 187 -144 521q0 333 148 522q148 188 379 188q143 0 249 -73t162 -190zM483 1452l-49 59l318 285
l75 -84z" />
    <glyph glyph-name="cacute" unicode="&#x107;" horiz-adv-x="897"
d="M526 -23q-297 0 -398 293q-32 94 -32 220q0 242 116 378q116 135 288 133q125 0 225 -73q70 -53 109 -131l-74 -52q-52 82 -110 124t-138 42q-80 1 -135 -31q-113 -65 -157 -222q-22 -77 -22 -171q1 -191 91 -305q89 -114 233 -112q76 0 137 26t127 94l39 -88
q-43 -45 -121 -85q-76 -40 -178 -40zM362 1090l-49 59l318 285l76 -84z" />
    <glyph glyph-name="Ccircumflex" unicode="&#x108;" horiz-adv-x="1110"
d="M954 1063q-116 227 -342 227q-74 0 -150 -40q-77 -40 -131 -118q-116 -166 -116 -447t117 -445t318 -164t337 180l62 -86q-152 -192 -405 -193q-253 -2 -398 185q-144 187 -144 521q0 333 148 522q148 188 379 188q143 0 249 -73t162 -190zM418 1450l-60 53l232 307h63
l232 -307l-60 -53l-204 264z" />
    <glyph glyph-name="ccircumflex" unicode="&#x109;" horiz-adv-x="897"
d="M526 -23q-297 0 -398 293q-32 94 -32 220q0 242 116 378q116 135 288 133q125 0 225 -73q70 -53 109 -131l-74 -52q-52 82 -110 124t-138 42q-80 1 -135 -31q-113 -65 -157 -222q-22 -77 -22 -171q1 -191 91 -305q89 -114 233 -112q76 0 137 26t127 94l39 -88
q-43 -45 -121 -85q-76 -40 -178 -40zM301 1110l-59 53l231 307h64l231 -307l-59 -53l-205 264z" />
    <glyph glyph-name="Cdotaccent" unicode="&#x10a;" horiz-adv-x="1110"
d="M954 1063q-116 227 -342 227q-74 0 -150 -40q-77 -40 -131 -118q-116 -166 -116 -447t117 -445t318 -164t337 180l62 -86q-152 -192 -405 -193q-253 -2 -398 185q-144 187 -144 521q0 333 148 522q148 188 379 188q143 0 249 -73t162 -190zM643 1571q-31 0 -53 20
q-22 19 -21 59q0 40 22 62q23 22 53 21q30 0 52 -22q22 -23 21 -61q1 -38 -21 -58t-53 -21z" />
    <glyph glyph-name="cdotaccent" unicode="&#x10b;" horiz-adv-x="897"
d="M526 -23q-297 0 -398 293q-32 94 -32 220q0 242 116 378q116 135 288 133q125 0 225 -73q70 -53 109 -131l-74 -52q-52 82 -110 124t-138 42q-80 1 -135 -31q-113 -65 -157 -222q-22 -77 -22 -171q1 -191 91 -305q89 -114 233 -112q76 0 137 26t127 94l39 -88
q-43 -45 -121 -85q-76 -40 -178 -40zM512 1231q-30 0 -52 20q-22 19 -22 59t22 62t52 21q30 0 52 -22q22 -23 22 -61t-22 -58t-52 -21z" />
    <glyph glyph-name="Ccaron" unicode="&#x10c;" horiz-adv-x="1110"
d="M954 1063q-116 227 -342 227q-74 0 -150 -40q-77 -40 -131 -118q-116 -166 -116 -447t117 -445t318 -164t337 180l62 -86q-152 -192 -405 -193q-253 -2 -398 185q-144 187 -144 521q0 333 148 522q148 188 379 188q143 0 249 -73t162 -190zM594 1450l-232 307l60 53
l203 -264l204 264l60 -53l-232 -307h-63z" />
    <glyph glyph-name="ccaron" unicode="&#x10d;" horiz-adv-x="897"
d="M526 -23q-297 0 -398 293q-32 94 -32 220q0 242 116 378q116 135 288 133q125 0 225 -73q70 -53 109 -131l-74 -52q-52 82 -110 124t-138 42q-80 1 -135 -31q-113 -65 -157 -222q-22 -77 -22 -171q1 -191 91 -305q89 -114 233 -112q76 0 137 26t127 94l39 -88
q-43 -45 -121 -85q-76 -40 -178 -40zM481 1110l-231 307l59 53l203 -264l205 264l59 -53l-231 -307h-64z" />
    <glyph glyph-name="Dcaron" unicode="&#x10e;" horiz-adv-x="1193"
d="M262 100h195q135 0 213 31q143 53 229 191t86 344q0 208 -55 330q-120 266 -465 270h-203v-1166zM156 0v1366h319q190 0 307 -63q146 -75 230 -223t84 -404t-108 -424q-162 -251 -513 -252h-319zM477 1450l-231 307l59 53l203 -264l205 264l59 -53l-231 -307h-64z" />
    <glyph glyph-name="dcaron" unicode="&#x10f;" horiz-adv-x="1038"
d="M760 195v639q-33 30 -93 54t-134 24q-75 0 -137 -32q-125 -63 -175 -223q-25 -78 -25 -171q1 -191 85 -305q83 -115 229 -114q147 1 250 128zM760 86q-104 -109 -275 -109t-280 143t-109 367t117 370t311 144q140 0 236 -63v428h102v-1366h-92zM989 1018v348h131
l-49 -348h-82z" />
    <glyph glyph-name="Dcroat" unicode="&#x110;" horiz-adv-x="1193"
d="M262 100h195q132 0 213 31q143 53 229 190t86 345t-89 404t-431 196h-203v-512h375v-88h-375v-566zM156 0v666h-152v88h152v612h319q372 0 496.5 -217t124.5 -473t-134.5 -466t-486.5 -210h-319z" />
    <glyph glyph-name="dcroat" unicode="&#x111;" horiz-adv-x="1003"
d="M532 911q-149 0 -242 -119.5t-93 -306.5t82 -302t231 -115t250 127v639q-33 29 -93.5 53t-134.5 24zM760 86q-104 -109 -275 -109q-170 0 -279.5 142t-109.5 367q0 224 116 369.5t312 145.5q140 0 236 -63v203h-334v88h334v137h102v-137h197v-88h-197v-1141h-92z" />
    <glyph glyph-name="Emacron" unicode="&#x112;" horiz-adv-x="974"
d="M156 0v1366h729v-100h-625v-492h453v-100h-453v-574h662v-100h-766zM240 1583v94h571v-94h-571z" />
    <glyph glyph-name="emacron" unicode="&#x113;" horiz-adv-x="958"
d="M494 911q-109 -1 -188 -75t-101 -240h565q-7 151 -93 241q-74 74 -183 74zM197 506q0 -207 83 -323q82 -115 250 -115t287 125l31 -93q-68 -68 -201 -107q-55 -15 -125 -16q-206 -1 -316 135t-110 374t112 377q112 140 293 139q180 -1 280 -135t104 -361h-688zM223 1243
v94h572v-94h-572z" />
    <glyph glyph-name="Ebreve" unicode="&#x114;" horiz-adv-x="974"
d="M156 0v1366h729v-100h-625v-492h453v-100h-453v-574h662v-100h-766zM315 1767q26 -205 220 -211q132 0 187 107q22 41 30 104h82q-4 -147 -92 -221t-207 -75q-118 -1 -208 74t-94 222h82z" />
    <glyph glyph-name="ebreve" unicode="&#x115;" horiz-adv-x="958"
d="M494 911q-109 -1 -188 -75t-101 -240h565q-7 151 -93 241q-74 74 -183 74zM197 506q0 -207 83 -323q82 -115 250 -115t287 125l31 -93q-68 -68 -201 -107q-55 -15 -125 -16q-206 -1 -316 135t-110 374t112 377q112 140 293 139q180 -1 280 -135t104 -361h-688zM508 1217
q190 0 217 210h82q-4 -145 -92 -220t-207 -76t-208 74t-93 222h82q15 -115 76 -163q61 -47 143 -47z" />
    <glyph glyph-name="Edotaccent" unicode="&#x116;" horiz-adv-x="974"
d="M156 0v1366h729v-100h-625v-492h453v-100h-453v-574h662v-100h-766zM537 1571q-31 0 -53 20q-22 19 -22 59t22 62t53 21q31 0 53 -22q22 -23 20 -61q0 -38 -21 -58t-52 -21z" />
    <glyph glyph-name="edotaccent" unicode="&#x117;" horiz-adv-x="958"
d="M494 911q-109 -1 -188 -75t-101 -240h565q-7 151 -93 241q-74 74 -183 74zM197 506q0 -207 83 -323q82 -115 250 -115t287 125l31 -93q-68 -68 -201 -107q-55 -15 -125 -16q-206 -1 -316 135t-110 374t112 377q112 140 293 139q180 -1 280 -135t104 -361h-688zM504 1231
q-30 0 -52 20q-22 19 -22 59t22 62t52 21q30 0 52 -22q22 -23 22 -61t-22 -58t-52 -21z" />
    <glyph glyph-name="Eogonek" unicode="&#x118;" horiz-adv-x="974"
d="M625 -240q0 125 128 240h-597v1366h729v-100h-625v-492h453v-100h-453v-574h662v-100h-56q-90 -75 -113 -125q-24 -51 -24 -92q0 -86 70 -86q37 0 82 29l24 -86q-58 -35 -126 -35q-69 0 -111 39t-43 116z" />
    <glyph glyph-name="eogonek" unicode="&#x119;" horiz-adv-x="958"
d="M494 911q-109 -1 -188 -75t-101 -240h565q-7 151 -93 241q-74 74 -183 74zM463 -240q0 118 107 219q-23 -2 -48 -2q-206 -1 -316 135t-110 374t112 377q112 140 293 139q180 -1 280 -135t104 -361h-688q0 -207 83 -323q82 -115 250 -115t287 125l31 -93q-41 -41 -75 -57
q-81 -39 -143 -113t-62 -154q-1 -79 69 -79q37 0 82 29l24 -86q-57 -35 -126 -35t-111 39t-43 116z" />
    <glyph glyph-name="Ecaron" unicode="&#x11a;" horiz-adv-x="974"
d="M156 0v1366h729v-100h-625v-492h453v-100h-453v-574h662v-100h-766zM504 1450l-232 307l60 53l203 -264l204 264l60 -53l-232 -307h-63z" />
    <glyph glyph-name="ecaron" unicode="&#x11b;" horiz-adv-x="958"
d="M494 911q-109 -1 -188 -75t-101 -240h565q-7 151 -93 241q-74 74 -183 74zM197 506q0 -207 83 -323q82 -115 250 -115t287 125l31 -93q-68 -68 -201 -107q-55 -15 -125 -16q-206 -1 -316 135t-110 374t112 377q112 140 293 139q180 -1 280 -135t104 -361h-688zM489 1110
l-231 307l59 53l203 -264l205 264l59 -53l-231 -307h-64z" />
    <glyph glyph-name="Gcircumflex" unicode="&#x11c;" horiz-adv-x="1163"
d="M944 549h-244v100h351v-600q-173 -76 -411 -76t-388 184t-150 519q0 334 152 525q152 192 381 192q275 0 407 -258l-79 -64q-124 221 -328 221q-180 0 -300 -161t-120 -445q0 -283 120 -449q120 -165 306 -165t303 49v428zM436 1450l-59 53l231 307h64l231 -307l-59 -53
l-205 264z" />
    <glyph glyph-name="gcircumflex" unicode="&#x11d;" horiz-adv-x="972"
d="M764 887q-84 24 -175 24q-173 0 -280 -116q-108 -116 -107 -313t98 -307q97 -109 235 -107q72 0 133 28t96 60v731zM866 -45q0 -162 -94 -261q-94 -100 -276 -100t-312 58q-29 12 -37 18l31 94q45 -28 123 -54t176 -25q147 1 217 71t70 224v69q-104 -72 -267 -72
t-280 138t-117 368q0 231 131 377q192 214 635 105v-1010zM358 1110l-59 53l231 307h64l231 -307l-59 -53l-205 264z" />
    <glyph glyph-name="Gbreve" unicode="&#x11e;" horiz-adv-x="1163"
d="M944 549h-244v100h351v-600q-173 -76 -411 -76t-388 184t-150 519q0 334 152 525q152 192 381 192q275 0 407 -258l-79 -64q-124 221 -328 221q-180 0 -300 -161t-120 -445q0 -283 120 -449q120 -165 306 -165t303 49v428zM940 1767q-4 -145 -92 -220t-206 -76t-208 74
t-94 222h82q14 -113 75 -161q60 -48 119 -49q215 -4 242 210h82z" />
    <glyph glyph-name="gbreve" unicode="&#x11f;" horiz-adv-x="972"
d="M764 887q-84 24 -175 24q-173 0 -280 -116q-108 -116 -107 -313t98 -307q97 -109 235 -107q72 0 133 28t96 60v731zM866 -45q0 -162 -94 -261q-94 -100 -276 -100t-312 58q-29 12 -37 18l31 94q45 -28 123 -54t176 -25q147 1 217 71t70 224v69q-104 -72 -267 -72
t-280 138t-117 368q0 231 131 377q192 214 635 105v-1010zM344 1427q14 -113 95 -177q41 -33 124 -33q82 1 124 33q80 62 93 177h82q-4 -147 -92 -221t-206 -75t-208 74t-94 222h82z" />
    <glyph glyph-name="Gdotaccent" unicode="&#x120;" horiz-adv-x="1163"
d="M944 549h-244v100h351v-600q-173 -76 -411 -76t-388 184t-150 519q0 334 152 525q152 192 381 192q275 0 407 -258l-79 -64q-124 221 -328 221q-180 0 -300 -161t-120 -445q0 -283 120 -449q120 -165 306 -165t303 49v428zM651 1571q-31 0 -53 20q-22 19 -20 59
q0 40 22 62t52 21q30 0 52 -22q22 -23 21 -61q1 -38 -21 -58t-53 -21z" />
    <glyph glyph-name="gdotaccent" unicode="&#x121;" horiz-adv-x="972"
d="M764 887q-84 24 -175 24q-173 0 -280 -116q-108 -116 -107 -313t98 -307q97 -109 235 -107q72 0 133 28t96 60v731zM866 -45q0 -162 -94 -261q-94 -100 -276 -100t-312 58q-29 12 -37 18l31 94q45 -28 123 -54t176 -25q147 1 217 71t70 224v69q-104 -72 -267 -72
t-280 138t-117 368q0 231 131 377q192 214 635 105v-1010zM561 1231q-31 0 -53 20q-22 19 -21 59q0 40 22 62q23 22 53 21q30 0 52 -22q22 -23 21 -61q1 -38 -21 -58t-53 -21z" />
    <glyph glyph-name="Gcommaaccent" unicode="&#x122;" horiz-adv-x="1163"
d="M944 549h-244v100h351v-600q-173 -76 -411 -76t-388 184t-150 519q0 334 152 525q152 192 381 192q275 0 407 -258l-79 -64q-124 221 -328 221q-180 0 -300 -161t-120 -445q0 -283 120 -449q120 -165 306 -165t303 49v428zM498 -356l98 266h121l-139 -266h-80z" />
    <glyph glyph-name="gcommaaccent" unicode="&#x123;" horiz-adv-x="972"
d="M764 887q-84 24 -175 24q-173 0 -280 -116q-108 -116 -107 -313t98 -307q97 -109 235 -107q72 0 133 28t96 60v731zM866 -45q0 -162 -94 -261q-94 -100 -276 -100t-312 58q-29 12 -37 18l31 94q45 -28 123 -54t176 -25q147 1 217 71t70 224v69q-104 -72 -267 -72
t-280 138t-117 368q0 231 131 377q192 214 635 105v-1010zM518 1141l139 266h86l-98 -266h-127z" />
    <glyph glyph-name="Hcircumflex" unicode="&#x124;" horiz-adv-x="1230"
d="M156 0v1366h106v-608h709v608h104v-1366h-104v655h-709v-655h-106zM424 1450l-59 53l231 307h63l232 -307l-60 -53l-204 264z" />
    <glyph glyph-name="hcircumflex" unicode="&#x125;" horiz-adv-x="1013"
d="M242 0h-101v1366h101v-475q138 112 287 111t229 -56t110 -160q18 -66 19 -176v-610h-103v604q0 100 -18 154q-53 152 -238 151q-135 0 -286 -118v-791zM135 1450l-59 53l231 307h64l231 -307l-59 -53l-205 264z" />
    <glyph glyph-name="Hbar" unicode="&#x126;" horiz-adv-x="1230"
d="M262 758h709v282h-709v-282zM156 0v1040h-203v97h203v229h106v-229h709v229h104v-229h244v-97h-244v-1040h-104v655h-709v-655h-106z" />
    <glyph glyph-name="hbar" unicode="&#x127;" horiz-adv-x="1013"
d="M242 0h-101v1141h-155v88h155v137h101v-137h376v-88h-376v-250q136 110 286 110t230 -55t110 -160q18 -66 19 -176v-610h-103v604q0 100 -18 154q-53 152 -238 151q-138 0 -286 -118v-791z" />
    <glyph glyph-name="Itilde" unicode="&#x128;" horiz-adv-x="417"
d="M156 0v1366h106v-1366h-106zM346 1516q-72 0 -149 63q-78 59 -121 59q-71 0 -119 -116l-72 30q63 168 203 168q72 0 147 -59q76 -59 119 -59q69 0 119 129l72 -35q-68 -180 -199 -180z" />
    <glyph glyph-name="itilde" unicode="&#x129;" horiz-adv-x="417"
d="M141 0v977h101v-977h-101zM336 1262q67 0 119 129l71 -35q-37 -98 -90 -139t-116 -41t-141 61q-79 61 -122 61q-70 0 -118 -116l-72 30q63 168 203 168q71 0 146 -59q76 -59 120 -59z" />
    <glyph glyph-name="Imacron" unicode="&#x12a;" horiz-adv-x="417"
d="M156 0v1366h106v-1366h-106zM-70 1583v94h572v-94h-572z" />
    <glyph glyph-name="imacron" unicode="&#x12b;" horiz-adv-x="417"
d="M141 0v977h101v-977h-101zM-90 1243v94h571v-94h-571z" />
    <glyph glyph-name="Ibreve" unicode="&#x12c;" horiz-adv-x="417"
d="M156 0v1366h106v-1366h-106zM518 1767q-4 -145 -92 -220t-206 -76t-208 74t-94 222h82q14 -113 75 -161q60 -48 119 -49q104 -2 167 46t75 164h82z" />
    <glyph glyph-name="ibreve" unicode="&#x12d;" horiz-adv-x="417"
d="M141 0v977h101v-977h-101zM199 1217q190 0 217 210h82q-4 -147 -92 -221t-207 -75q-118 -1 -209 75q-90 76 -92 221h82q15 -114 75 -162q61 -48 144 -48z" />
    <glyph glyph-name="Iogonek" unicode="&#x12e;" horiz-adv-x="417"
d="M153 -395q-69 0 -112 39t-43 103q0 156 158 278v1341h106v-1340l8 -1q-4 -3 -8 -7v-18h-22q-90 -75 -113 -125q-24 -51 -25 -92q0 -86 70 -86q37 0 82 29l25 -86q-57 -35 -126 -35z" />
    <glyph glyph-name="iogonek" unicode="&#x12f;" horiz-adv-x="382"
d="M190 1184q-30 0 -52 20t-22 60t22 60q22 22 52 22t53 -22q21 -22 21 -60t-21 -60q-22 -20 -53 -20zM-27 -253q1 65 21 111q38 87 147 175v944h101v-951l4 -1l-4 -4v-21h-27q-90 -75 -113 -125q-24 -51 -24 -92q0 -86 69 -86q40 0 82 29l25 -86q-57 -35 -126 -35t-112 39
t-43 103z" />
    <glyph glyph-name="Idotaccent" unicode="&#x130;" horiz-adv-x="417"
d="M156 0v1366h106v-1366h-106zM213 1571q-31 0 -53 20q-22 19 -21 59q0 40 22 62q23 22 53 21q30 0 52 -22q22 -23 21 -61q1 -38 -21 -58t-53 -21z" />
    <glyph glyph-name="dotlessi" unicode="&#x131;" horiz-adv-x="382"
d="M141 0v977h101v-977h-101z" />
    <glyph glyph-name="IJ" unicode="&#x132;" horiz-adv-x="1136"
d="M156 0v1366h106v-1366h-106zM709 74q104 0 142 55t38 162v1075h106v-1092q1 -102 -27 -160t-95 -98t-140 -39q-150 0 -256 55q-27 13 -39 23l37 97q34 -34 109 -56t125 -22z" />
    <glyph glyph-name="ij" unicode="&#x133;" horiz-adv-x="774"
d="M190 1184q-30 0 -52 20t-22 60t22 60q22 22 52 22t53 -22q21 -22 21 -60t-21 -60q-22 -20 -53 -20zM141 0v977h101v-977h-101zM588 1184q-30 0 -52 20t-22 60t22 60q22 22 52 22t52 -22t22 -60t-22 -60q-22 -20 -52 -20zM532 977h101v-983q1 -152 -51 -243t-154 -152
l-41 84q82 55 114 127t31 184v983z" />
    <glyph glyph-name="Jcircumflex" unicode="&#x134;" horiz-adv-x="722"
d="M295 74q104 0 142 55t38 162v1075h107v-1092q0 -102 -28 -160t-94 -98q-66 -39 -140 -39t-136 12t-105 34t-54 32l36 97q35 -35 110 -57q75 -21 124 -21zM328 1450l-60 53l232 307h63l232 -307l-60 -53l-205 264z" />
    <glyph glyph-name="jcircumflex" unicode="&#x135;" horiz-adv-x="382"
d="M-14 1110l-60 53l232 307h63l232 -307l-60 -53l-205 264zM141 -6v983h101v-983q0 -152 -51.5 -243t-153.5 -152l-41 84q82 55 113.5 126.5t31.5 184.5z" />
    <glyph glyph-name="Kcommaaccent" unicode="&#x136;" horiz-adv-x="1062"
d="M502 653h-240v-653h-106v1366h106v-614h215q57 0 97 36t83 132l199 446h115l-207 -465q-33 -72 -65 -119t-72 -63q57 -16 89 -50t60 -106l225 -563h-114l-172 422q-25 57 -43 101q-36 87 -95 116q-30 14 -75 14zM383 -356l98 266h121l-139 -266h-80z" />
    <glyph glyph-name="kcommaaccent" unicode="&#x137;" horiz-adv-x="899"
d="M242 594h159q59 0 103 39q43 39 86 137l90 207h108l-102 -225q-72 -157 -143 -187q57 -16 91 -48t62 -103l164 -414h-106l-117 289q-25 57 -43 98q-37 84 -93 103q-30 11 -75 12h-184v-502h-101v1366h101v-772zM311 -356l99 266h120l-139 -266h-80z" />
    <glyph glyph-name="kgreenlandic" unicode="&#x138;" horiz-adv-x="899"
d="M141 0v977h101v-428h159q59 0 102.5 39t86.5 137l110 252h109l-123 -270q-72 -158 -143 -187q57 -16 91 -48t62 -103l148 -369h-107l-100 244q-47 114 -69 146q-47 68 -142 67h-184v-457h-101z" />
    <glyph glyph-name="Lacute" unicode="&#x139;" horiz-adv-x="921"
d="M156 0v1366h106v-1266h629v-100h-735zM61 1456l-49 60l318 284l76 -84z" />
    <glyph glyph-name="lacute" unicode="&#x13a;" horiz-adv-x="448"
d="M133 168v1198h100v-1173q-1 -72 15 -102t63 -30t109 31l18 -82q-59 -31 -125 -32q-65 -2 -99 14q-60 27 -75 102q-6 35 -6 74zM43 1456l-49 60l317 284l76 -84z" />
    <glyph glyph-name="Lcommaaccent" unicode="&#x13b;" horiz-adv-x="921"
d="M156 0v1366h106v-1266h629v-100h-735zM379 -356l98 266h121l-139 -266h-80z" />
    <glyph glyph-name="lcommaaccent" unicode="&#x13c;" horiz-adv-x="448"
d="M133 168v1198h100v-1173q-1 -72 15 -102t63 -30t109 31l18 -82q-59 -31 -125 -32q-65 -2 -99 14q-60 27 -75 102q-6 35 -6 74zM131 -356l98 266h121l-139 -266h-80z" />
    <glyph glyph-name="Lcaron" unicode="&#x13d;" horiz-adv-x="921"
d="M156 0v1366h106v-1266h629v-100h-735zM473 1018v348h131l-49 -348h-82z" />
    <glyph glyph-name="lcaron" unicode="&#x13e;" horiz-adv-x="448"
d="M133 168v1198h100v-1173q-1 -72 15 -102t63 -30t109 31l18 -82q-59 -31 -125 -32q-65 -2 -99 14q-60 27 -75 102q-6 35 -6 74zM358 1018v348h131l-49 -348h-82z" />
    <glyph glyph-name="Ldot" unicode="&#x13f;" horiz-adv-x="921"
d="M156 0v1366h106v-1266h629v-100h-735zM686 655q-30 1 -52 21t-22 59t22 61t52 22t52 -22t22 -61t-22 -59t-52 -21z" />
    <glyph glyph-name="ldot" unicode="&#x140;" horiz-adv-x="491"
d="M133 168v1198h100v-1173q-1 -72 15 -102t63 -30t109 31l18 -82q-59 -31 -125 -32q-65 -2 -99 14q-60 27 -75 102q-6 35 -6 74zM438 655q-30 1 -52 21t-22 59t22 61t52 22t52 -22t22 -61t-22 -59t-52 -21z" />
    <glyph glyph-name="Lslash" unicode="&#x141;" horiz-adv-x="921"
d="M156 0v604l-160 -108l-51 75l211 150v645h106v-584l266 187l52 -80l-318 -225v-564h629v-100h-735z" />
    <glyph glyph-name="lslash" unicode="&#x142;" horiz-adv-x="475"
d="M160 168v436l-121 -80l-49 74l170 117v651h100v-594l156 113l51 -80l-207 -146v-466q0 -72 16 -102t62 -30t108 31l19 -82q-64 -33 -127 -33q-110 0 -144 49.5t-34 141.5z" />
    <glyph glyph-name="Nacute" unicode="&#x143;" horiz-adv-x="1255"
d="M156 0v1366h112l727 -1151v1151h105v-1366h-92l-748 1178v-1178h-104zM526 1468l-49 60l318 284l75 -83z" />
    <glyph glyph-name="nacute" unicode="&#x144;" horiz-adv-x="1013"
d="M889 0h-103v604q0 102 -18 154q-53 152 -238 151q-151 0 -288 -127v-782h-101v977h90l11 -92q133 118 301 116q269 0 325 -215q20 -68 21 -176v-610zM379 1116l-49 60l317 284l76 -84z" />
    <glyph glyph-name="Ncommaaccent" unicode="&#x145;" horiz-adv-x="1255"
d="M156 0v1366h112l727 -1151v1151h105v-1366h-92l-748 1178v-1178h-104zM492 -356l98 266h121l-140 -266h-79z" />
    <glyph glyph-name="ncommaaccent" unicode="&#x146;" horiz-adv-x="1013"
d="M889 0h-103v604q0 102 -18 154q-53 152 -238 151q-151 0 -288 -127v-782h-101v977h90l11 -92q133 118 301 116q269 0 325 -215q20 -68 21 -176v-610zM379 -356l98 266h121l-139 -266h-80z" />
    <glyph glyph-name="Ncaron" unicode="&#x147;" horiz-adv-x="1255"
d="M156 0v1366h112l727 -1151v1151h105v-1366h-92l-748 1178v-1178h-104zM608 1446l-231 307l59 53l203 -264l205 264l59 -53l-231 -307h-64z" />
    <glyph glyph-name="ncaron" unicode="&#x148;" horiz-adv-x="1013"
d="M889 0h-103v604q0 102 -18 154q-53 152 -238 151q-151 0 -288 -127v-782h-101v977h90l11 -92q133 118 301 116q269 0 325 -215q20 -68 21 -176v-610zM500 1110l-232 307l60 53l202 -264l205 264l60 -53l-232 -307h-63z" />
    <glyph glyph-name="napostrophe" unicode="&#x149;" horiz-adv-x="1013"
d="M889 0h-103v604q0 102 -18 154q-53 152 -238 151q-151 0 -288 -127v-782h-101v977h90l11 -92q133 118 301 116q269 0 325 -215q20 -68 21 -176v-610zM43 1358q0 40 23 64q22 24 64 24t66 -34t24 -94t-42 -126q-41 -66 -94 -109l-35 45q75 75 82 136q-37 0 -63 28t-25 66z
" />
    <glyph glyph-name="Eng" unicode="&#x14a;" horiz-adv-x="1255"
d="M260 0h-104v1366h112l727 -1155v1155h105v-1372q0 -152 -51.5 -243t-153.5 -152l-41 84q80 53 111.5 122.5t33.5 178.5v24l-739 1170v-1178z" />
    <glyph glyph-name="eng" unicode="&#x14b;" horiz-adv-x="1013"
d="M526 1001q154 0 233 -54t109 -161q20 -63 21 -176v-616q0 -152 -51.5 -243t-153.5 -152l-43 84q80 53 112.5 122.5t32.5 178.5v620q0 100 -18 154q-53 152 -238 151q-154 0 -288 -127v-782h-101v977h90l11 -92q130 116 284 116z" />
    <glyph glyph-name="Omacron" unicode="&#x14c;" horiz-adv-x="1263"
d="M950 1098q-115 194 -319 194t-318 -193q-100 -171 -100 -413q0 -243 109 -428q109 -184 310 -184t317 195q102 171 102 415t-101 414zM232 194q-130 192 -130 487t141 503q141 207 394 208t396 -220q128 -195 128 -486q0 -292 -128 -490q-65 -98 -165 -160t-235 -62
q-253 0 -401 220zM346 1583v94h572v-94h-572z" />
    <glyph glyph-name="omacron" unicode="&#x14d;" horiz-adv-x="1017"
d="M743 780q-88 133 -234 132q-147 -1 -229 -123q-83 -122 -83 -296q0 -173 83 -300t230 -126q148 1 229 128q82 127 82 298q0 172 -78 287zM924 490q0 -211 -110 -362t-305 -151q-194 0 -303 154q-110 154 -110 363t107 358t301 149q195 0 307 -150q113 -150 113 -361z
M236 1249v94h571v-94h-571z" />
    <glyph glyph-name="Obreve" unicode="&#x14e;" horiz-adv-x="1263"
d="M950 1098q-115 194 -319 194t-318 -193q-100 -171 -100 -413q0 -243 109 -428q109 -184 310 -184t317 195q102 171 102 415t-101 414zM232 194q-130 192 -130 487t141 503q141 207 394 208t396 -220q128 -195 128 -486q0 -292 -128 -490q-65 -98 -165 -160t-235 -62
q-253 0 -401 220zM938 1767q-4 -145 -92 -220t-206 -76t-208 74t-94 222h82q14 -113 75 -161q60 -48 119 -49q215 -4 242 210h82z" />
    <glyph glyph-name="obreve" unicode="&#x14f;" horiz-adv-x="1017"
d="M743 780q-88 133 -234 132q-147 -1 -229 -123q-83 -122 -83 -296q0 -173 83 -300t230 -126q148 1 229 128q82 127 82 298q0 172 -78 287zM924 490q0 -211 -110 -362t-305 -151q-194 0 -303 154q-110 154 -110 363t107 358t301 149q195 0 307 -150q113 -150 113 -361z
M516 1217q190 0 217 210h82q-4 -145 -92 -220t-206 -76t-208 74t-94 222h82q14 -113 76 -162q61 -48 143 -48z" />
    <glyph glyph-name="Ohungarumlaut" unicode="&#x150;" horiz-adv-x="1263"
d="M950 1098q-115 194 -319 194t-318 -193q-100 -171 -100 -413q0 -243 109 -428q109 -184 310 -184t317 195q102 171 102 415t-101 414zM232 194q-130 192 -130 487t141 503q141 207 394 208t396 -220q128 -195 128 -486q0 -292 -128 -490q-65 -98 -165 -160t-235 -62
q-253 0 -401 220zM692 1458l-43 58l316 284l73 -82zM362 1458l-45 58l318 284l72 -82z" />
    <glyph glyph-name="ohungarumlaut" unicode="&#x151;" horiz-adv-x="1017"
d="M743 780q-88 133 -234 132q-147 -1 -229 -123q-83 -122 -83 -296q0 -173 83 -300t230 -126q148 1 229 128q82 127 82 298q0 172 -78 287zM924 490q0 -211 -110 -362t-305 -151q-194 0 -303 154q-110 154 -110 363t107 358t301 149q195 0 307 -150q113 -150 113 -361z
M580 1118l-43 58l315 284l74 -82zM250 1118l-45 58l317 284l72 -82z" />
    <glyph glyph-name="OE" unicode="&#x152;" horiz-adv-x="1734"
d="M918 1266h-240q-213 0 -337 -168t-124 -417t126 -415t335 -166h240v1166zM678 0q-262 0 -419 194t-157 491t159.5 489t416.5 192h967v-100h-625v-492h453v-100h-453v-574h661v-100h-1003z" />
    <glyph glyph-name="oe" unicode="&#x153;" horiz-adv-x="1675"
d="M1211 911q-108 0 -187.5 -74.5t-101.5 -240.5h565q-8 156 -88 235.5t-188 79.5zM741.5 790q-81.5 121 -231.5 121t-231.5 -123.5t-81.5 -293.5t81 -298t230 -128t232 127t83 300q0 174 -81.5 295zM864 221q-100 -244 -372 -244q-86 0 -163 44.5t-128 116t-78 165.5
t-27 249t108.5 302t305.5 147q139 0 223 -67.5t137 -179.5q47 119 134.5 183t194.5 64q197 0 297 -131.5t106 -363.5h-689q0 -207 83 -322.5t251 -115.5t287 125l31 -93q-71 -71 -163.5 -97t-162.5 -26q-141 0 -238.5 66t-136.5 178z" />
    <glyph glyph-name="Racute" unicode="&#x154;" horiz-adv-x="1091"
d="M557 719q299 0 299 276q0 129 -75 200t-218 71h-301v-547h295zM969 995q0 -244 -226 -331q66 -20 95 -78t48 -128q20 -69 36 -128t32 -119l56 -211h-113l-57 213q-58 202 -92 300q-14 40 -56 73t-102 32h-328v-618h-106v1366h409q197 0 301 -98t103 -273zM373 1456
l-49 60l317 284l76 -84z" />
    <glyph glyph-name="racute" unicode="&#x155;" horiz-adv-x="598"
d="M477 999q48 0 111 -14l-15 -98q-41 14 -86 14q-117 0 -245 -131v-770h-101v977h88l9 -100q122 122 239 122zM240 1116l-50 60l318 284l76 -84z" />
    <glyph glyph-name="Rcommaaccent" unicode="&#x156;" horiz-adv-x="1091"
d="M557 719q299 0 299 276q0 129 -75 200t-218 71h-301v-547h295zM969 995q0 -244 -226 -331q66 -20 95 -78t48 -128q20 -69 36 -128t32 -119l56 -211h-113l-57 213q-58 202 -92 300q-14 40 -56 73t-102 32h-328v-618h-106v1366h409q197 0 301 -98t103 -273zM418 -356
l98 266h121l-139 -266h-80z" />
    <glyph glyph-name="rcommaaccent" unicode="&#x157;" horiz-adv-x="598"
d="M477 999q48 0 111 -14l-15 -98q-41 14 -86 14q-117 0 -245 -131v-770h-101v977h88l9 -100q122 122 239 122zM31 -356l98 266h121l-139 -266h-80z" />
    <glyph glyph-name="Rcaron" unicode="&#x158;" horiz-adv-x="1091"
d="M557 719q299 0 299 276q0 129 -75 200t-218 71h-301v-547h295zM969 995q0 -244 -226 -331q66 -20 95 -78t48 -128q20 -69 36 -128t32 -119l56 -211h-113l-57 213q-58 202 -92 300q-14 40 -56 73t-102 32h-328v-618h-106v1366h409q197 0 301 -98t103 -273zM463 1450
l-232 307l60 53l203 -264l204 264l60 -53l-232 -307h-63z" />
    <glyph glyph-name="rcaron" unicode="&#x159;" horiz-adv-x="598"
d="M477 999q48 0 111 -14l-15 -98q-41 14 -86 14q-117 0 -245 -131v-770h-101v977h88l9 -100q122 122 239 122zM332 1110l-232 307l60 53l202 -264l205 264l60 -53l-232 -307h-63z" />
    <glyph glyph-name="Sacute" unicode="&#x15a;" horiz-adv-x="983"
d="M825 1133q-129 159 -327 159q-120 0 -202 -59q-83 -59 -83 -165t58 -166q58 -58 153 -93l133 -49q171 -62 257 -150q87 -88 87 -264t-113 -274t-303 -98t-351 114q-42 31 -66 62l57 96q106 -113 257 -157q52 -15 110 -15q132 0 216 69q83 69 83 201q0 180 -166 265
q-53 28 -121 53l-139 49q-269 94 -269 333q0 161 112 255t268 94q268 0 415 -181zM350 1456l-49 60l317 284l76 -84z" />
    <glyph glyph-name="sacute" unicode="&#x15b;" horiz-adv-x="772"
d="M209 781q0 -51 11 -77q30 -72 224 -139q129 -47 195 -115t66 -197q0 -128 -89 -201t-239 -74t-254 75q-27 18 -39 31l39 92q35 -35 103 -72q68 -36 165 -36q98 0 155 46q56 46 56 137t-54 140t-190 99q-137 49 -194 109q-58 60 -58 162t79 171t199 69q120 -1 196 -37
t114 -77l-43 -80q-125 108 -260 106q-92 0 -137 -41t-45 -91zM264 1116l-49 60l317 284l76 -84z" />
    <glyph glyph-name="Scircumflex" unicode="&#x15c;" horiz-adv-x="983"
d="M825 1133q-129 159 -327 159q-120 0 -202 -59q-83 -59 -83 -165t58 -166q58 -58 153 -93l133 -49q171 -62 257 -150q87 -88 87 -264t-113 -274t-303 -98t-351 114q-42 31 -66 62l57 96q106 -113 257 -157q52 -15 110 -15q132 0 216 69q83 69 83 201q0 180 -166 265
q-53 28 -121 53l-139 49q-269 94 -269 333q0 161 112 255t268 94q268 0 415 -181zM309 1450l-59 53l231 307h64l231 -307l-59 -53l-205 264z" />
    <glyph glyph-name="scircumflex" unicode="&#x15d;" horiz-adv-x="772"
d="M209 781q0 -51 11 -77q30 -72 224 -139q129 -47 195 -115t66 -197q0 -128 -89 -201t-239 -74t-254 75q-27 18 -39 31l39 92q35 -35 103 -72q68 -36 165 -36q98 0 155 46q56 46 56 137t-54 140t-190 99q-137 49 -194 109q-58 60 -58 162t79 171t199 69q120 -1 196 -37
t114 -77l-43 -80q-125 108 -260 106q-92 0 -137 -41t-45 -91zM201 1110l-60 53l232 307h63l232 -307l-60 -53l-205 264z" />
    <glyph glyph-name="Scedilla" unicode="&#x15e;" horiz-adv-x="983"
d="M825 1133q-129 159 -327 159q-120 0 -202 -59q-83 -59 -83 -165t58 -166q58 -58 153 -93l133 -49q171 -62 257 -150q87 -88 87 -264t-113 -274t-303 -98t-351 114q-42 31 -66 62l57 96q106 -113 257 -157q52 -15 110 -15q132 0 216 69q83 69 83 201q0 180 -166 265
q-53 28 -121 53l-139 49q-269 94 -269 333q0 161 112 255t268 94q268 0 415 -181zM344 -356l98 266h121l-139 -266h-80z" />
    <glyph glyph-name="scedilla" unicode="&#x15f;" horiz-adv-x="772"
d="M209 781q0 -51 11 -77q30 -72 224 -139q129 -47 195 -115t66 -197q0 -128 -89 -201t-239 -74t-254 75q-27 18 -39 31l39 92q35 -35 103 -72q68 -36 165 -36q98 0 155 46q56 46 56 137t-54 140t-190 99q-137 49 -194 109q-58 60 -58 162t79 171t199 69q120 -1 196 -37
t114 -77l-43 -80q-125 108 -260 106q-92 0 -137 -41t-45 -91zM240 -356l98 266h121l-140 -266h-79z" />
    <glyph glyph-name="Scaron" unicode="&#x160;" horiz-adv-x="983"
d="M825 1133q-129 159 -327 159q-120 0 -202 -59q-83 -59 -83 -165t58 -166q58 -58 153 -93l133 -49q171 -62 257 -150q87 -88 87 -264t-113 -274t-303 -98t-351 114q-42 31 -66 62l57 96q106 -113 257 -157q52 -15 110 -15q132 0 216 69q83 69 83 201q0 180 -166 265
q-53 28 -121 53l-139 49q-269 94 -269 333q0 161 112 255t268 94q268 0 415 -181zM481 1450l-231 307l59 53l203 -264l205 264l59 -53l-231 -307h-64z" />
    <glyph glyph-name="scaron" unicode="&#x161;" horiz-adv-x="772"
d="M209 781q0 -51 11 -77q30 -72 224 -139q129 -47 195 -115t66 -197q0 -128 -89 -201t-239 -74t-254 75q-27 18 -39 31l39 92q35 -35 103 -72q68 -36 165 -36q98 0 155 46q56 46 56 137t-54 140t-190 99q-137 49 -194 109q-58 60 -58 162t79 171t199 69q120 -1 196 -37
t114 -77l-43 -80q-125 108 -260 106q-92 0 -137 -41t-45 -91zM387 1110l-231 307l59 53l203 -264l205 264l59 -53l-231 -307h-64z" />
    <glyph glyph-name="Tcommaaccent" unicode="&#x162;" horiz-adv-x="931"
d="M412 0v1266h-402v100h912v-100h-404v-1266h-106zM299 -356l98 266h121l-139 -266h-80z" />
    <glyph glyph-name="tcommaaccent" unicode="&#x163;" horiz-adv-x="595"
d="M203 199v688h-160v90h160v260h100v-260h244v-90h-244v-680q0 -141 113 -139q48 0 119 45l40 -76q-29 -23 -67 -41t-108 -18q-197 -2 -197 221zM203 -356l98 266h121l-139 -266h-80z" />
    <glyph glyph-name="Tcaron" unicode="&#x164;" horiz-adv-x="931"
d="M412 0v1266h-402v100h912v-100h-404v-1266h-106zM428 1450l-231 307l59 53l203 -264l205 264l59 -53l-231 -307h-64z" />
    <glyph glyph-name="tcaron" unicode="&#x165;" horiz-adv-x="595"
d="M203 199v688h-160v90h160v260h100v-260h244v-90h-244v-680q0 -141 113 -139q48 0 119 45l40 -76q-29 -23 -67 -41t-108 -18q-197 -2 -197 221zM444 1085v349h131l-49 -349h-82z" />
    <glyph glyph-name="Tbar" unicode="&#x166;" horiz-adv-x="931"
d="M412 0v635h-303v96h303v535h-402v100h912v-100h-404v-535h322v-96h-322v-635h-106z" />
    <glyph glyph-name="tbar" unicode="&#x167;" horiz-adv-x="595"
d="M303 207q-1 -139 109 -139q50 0 123 45l40 -76q-29 -23 -67.5 -41.5t-110.5 -18.5q-194 0 -194 222v290h-160v91h160v307h-160v90h160v260h100v-260h244v-90h-244v-307h244v-91h-244v-282z" />
    <glyph glyph-name="Utilde" unicode="&#x168;" horiz-adv-x="1210"
d="M141 455v911h105v-881q0 -186 92 -298q92 -111 266 -111t267 108t94 301v881h106v-911q0 -221 -132 -352t-333 -130q-202 0 -333 128q-132 129 -132 354zM729 1516q-72 0 -149 63q-78 59 -121 59q-71 0 -119 -116l-72 30q63 168 203 168q72 0 147 -59q76 -59 119 -59
q69 0 119 129l72 -35q-68 -180 -199 -180z" />
    <glyph glyph-name="utilde" unicode="&#x169;" horiz-adv-x="1011"
d="M125 362v615h100v-610q0 -102 21 -152q55 -149 237 -147q148 0 287 127v782h100v-977h-92l-8 92q-132 -117 -301 -117q-258 0 -324 213q-20 63 -20 174zM635 1262q67 0 119 129l71 -35q-37 -98 -90 -139t-116 -41t-141 61q-79 61 -122 61q-70 0 -118 -116l-72 30
q63 168 203 168q71 0 146 -59q76 -59 120 -59z" />
    <glyph glyph-name="Umacron" unicode="&#x16a;" horiz-adv-x="1210"
d="M141 455v911h105v-881q0 -186 92 -298q92 -111 266 -111t267 108t94 301v881h106v-911q0 -221 -132 -352t-333 -130q-202 0 -333 128q-132 129 -132 354zM315 1583v94h572v-94h-572z" />
    <glyph glyph-name="umacron" unicode="&#x16b;" horiz-adv-x="1011"
d="M125 362v615h100v-610q0 -102 21 -152q55 -149 237 -147q148 0 287 127v782h100v-977h-92l-8 92q-132 -117 -301 -117q-258 0 -324 213q-20 63 -20 174zM209 1208v95h571v-95h-571z" />
    <glyph glyph-name="Ubreve" unicode="&#x16c;" horiz-adv-x="1210"
d="M141 455v911h105v-881q0 -186 92 -298q92 -111 266 -111t267 108t94 301v881h106v-911q0 -221 -132 -352t-333 -130q-202 0 -333 128q-132 129 -132 354zM404 1552q-89 75 -93 222h82q15 -116 76 -163q62 -48 143 -48q132 0 188 106q22 41 29 105h82q-4 -148 -92 -223
q-89 -74 -207 -74t-208 75z" />
    <glyph glyph-name="ubreve" unicode="&#x16d;" horiz-adv-x="1011"
d="M125 362v615h100v-610q0 -102 21 -152q55 -149 237 -147q148 0 287 127v782h100v-977h-92l-8 92q-132 -117 -301 -117q-258 0 -324 213q-20 63 -20 174zM500 1231q191 0 217 211h82q-4 -145 -93 -221t-206 -76q-193 0 -272 161q-28 56 -29 136h82q15 -118 84 -169
q54 -42 135 -42z" />
    <glyph glyph-name="Uring" unicode="&#x16e;" horiz-adv-x="1210"
d="M141 455v911h105v-881q0 -186 92 -298q92 -111 266 -111t267 108t94 301v881h106v-911q0 -221 -132 -352t-333 -130q-202 0 -333 128q-132 129 -132 354zM723 1634q0 56 -33 96t-78 40q-46 0 -78 -40q-32 -38 -32 -96t30 -93q30 -36 81 -36q50 0 80 36t30 93zM609 1434
q-91 0 -140 60t-49 144q0 82 50 142t140 61q90 0 141 -60q52 -59 52 -143t-52 -144q-51 -60 -142 -60z" />
    <glyph glyph-name="uring" unicode="&#x16f;" horiz-adv-x="1011"
d="M125 362v615h100v-610q0 -102 21 -152q55 -149 237 -147q148 0 287 127v782h100v-977h-92l-8 92q-132 -117 -301 -117q-258 0 -324 213q-20 63 -20 174zM618 1294q0 57 -32 97q-33 39 -78 39t-78 -39t-33 -97t31 -93q31 -36 81 -36t80 36q29 36 29 93zM506 1501
q91 0 141 -60q51 -59 51 -143t-52 -144t-142 -60t-138 60t-50 120q-3 156 107 210q36 17 83 17z" />
    <glyph glyph-name="Uhungarumlaut" unicode="&#x170;" horiz-adv-x="1210"
d="M141 455v911h105v-881q0 -186 92 -298q92 -111 266 -111t267 108t94 301v881h106v-911q0 -221 -132 -352t-333 -130q-202 0 -333 128q-132 129 -132 354zM696 1458l-43 58l316 284l73 -82zM367 1458l-45 58l317 284l72 -82z" />
    <glyph glyph-name="uhungarumlaut" unicode="&#x171;" horiz-adv-x="1011"
d="M125 362v615h100v-610q0 -102 21 -152q55 -149 237 -147q148 0 287 127v782h100v-977h-92l-8 92q-132 -117 -301 -117q-258 0 -324 213q-20 63 -20 174zM559 1124l-43 58l315 284l74 -82zM229 1124l-45 58l318 284l71 -82z" />
    <glyph glyph-name="Uogonek" unicode="&#x172;" horiz-adv-x="1210"
d="M714 -395q-69 0 -112 39t-43 103q0 131 104 229q-27 -3 -91 -3t-149 32q-175 66 -246 244q-36 89 -36 206v911h105v-881q0 -186 92 -298q92 -111 266 -111t267 108t94 301v881h106v-911q0 -221 -136 -357q-46 -45 -104 -74q-115 -88 -151 -165q-16 -35 -16 -76
q0 -86 69 -86q37 0 82 29l25 -86q-57 -35 -126 -35z" />
    <glyph glyph-name="uogonek" unicode="&#x173;" horiz-adv-x="1011"
d="M125 362v615h100v-610q0 -102 21 -152q55 -149 237 -147q148 0 287 127v782h100v-977h-32q-90 -75 -113 -125q-24 -51 -25 -92q0 -86 70 -86q37 0 82 29l25 -86q-58 -35 -126 -35q-69 0 -112 39t-43 103q0 141 131 255q28 24 48 40l-5 50q-132 -117 -301 -117
q-258 0 -324 213q-20 63 -20 174z" />
    <glyph glyph-name="Wcircumflex" unicode="&#x174;" horiz-adv-x="1470"
d="M330 0l-310 1366h109l258 -1139l297 1139h100l312 -1145l247 1145h107l-305 -1366h-92l-320 1159l-313 -1159h-90zM535 1450l-60 53l232 307h63l231 -307l-59 -53l-205 264z" />
    <glyph glyph-name="wcircumflex" unicode="&#x175;" horiz-adv-x="1286"
d="M295 0l-285 977h111l231 -840l246 840h90l246 -836l235 836h107l-293 -977h-104l-238 805l-244 -805h-102zM438 1110l-59 53l231 307h64l231 -307l-59 -53l-205 264z" />
    <glyph glyph-name="Ycircumflex" unicode="&#x176;" horiz-adv-x="1021"
d="M451 0v657l-441 709h121l375 -604l389 604h117l-455 -707v-659h-106zM303 1450l-59 53l231 307h64l231 -307l-59 -53l-205 264z" />
    <glyph glyph-name="ycircumflex" unicode="&#x177;" horiz-adv-x="917"
d="M-4 -303q130 0 238 74t165 202l-381 1004h113l334 -897q193 404 326 897h106q-72 -283 -157 -498q-86 -215 -168 -391t-154 -273t-184 -153t-242 -55l-12 90h16zM266 1110l-59 53l231 307h64l231 -307l-59 -53l-205 264z" />
    <glyph glyph-name="Ydieresis" unicode="&#x178;" horiz-adv-x="1021"
d="M451 0v657l-441 709h121l375 -604l389 604h117l-455 -707v-659h-106zM690 1571q-30 0 -52 20q-22 19 -22 59t22 62t52 21q30 0 52 -22q22 -23 22 -61t-22 -58t-52 -21zM340 1571q-30 0 -52 20q-22 19 -22 59t22 62t52 21q30 0 52 -22q22 -23 22 -61t-22 -58t-52 -21z" />
    <glyph glyph-name="Zacute" unicode="&#x179;" horiz-adv-x="1060"
d="M86 0v104l762 1162h-729v100h835v-113l-755 -1153h784v-100h-897zM397 1452l-49 59l318 285l75 -84z" />
    <glyph glyph-name="zacute" unicode="&#x17a;" horiz-adv-x="872"
d="M84 0v106l594 781h-572v90h674v-109l-594 -778h609v-90h-711zM319 1116l-49 60l318 284l76 -84z" />
    <glyph glyph-name="Zdotaccent" unicode="&#x17b;" horiz-adv-x="1060"
d="M86 0v104l762 1162h-729v100h835v-113l-755 -1153h784v-100h-897zM539 1538q-31 0 -53 20t-22 60q0 38 22 60t53 22t53 -22t20 -60q0 -38 -21 -60q-21 -20 -52 -20z" />
    <glyph glyph-name="zdotaccent" unicode="&#x17c;" horiz-adv-x="872"
d="M84 0v106l594 781h-572v90h674v-109l-594 -778h609v-90h-711zM453 1231q-31 0 -53 20q-22 19 -22 59t22 62t53 21q31 0 53 -22q22 -23 20 -61q0 -38 -21 -58t-52 -21z" />
    <glyph glyph-name="Zcaron" unicode="&#x17d;" horiz-adv-x="1060"
d="M86 0v104l762 1162h-729v100h835v-113l-755 -1153h784v-100h-897zM524 1444l-231 307l59 53l203 -264l205 264l59 -53l-231 -307h-64z" />
    <glyph glyph-name="zcaron" unicode="&#x17e;" horiz-adv-x="872"
d="M84 0v106l594 781h-572v90h674v-109l-594 -778h609v-90h-711zM449 1110l-232 307l59 53l203 -264l205 264l59 -53l-231 -307h-63z" />
    <glyph glyph-name="longs" unicode="&#x17f;" horiz-adv-x="526"
d="M438 1303q-74 0 -114 -46t-39 -176v-1081h-103v1087q0 158 69 232t173 74t182 -39l-22 -86q-72 35 -146 35z" />
    <glyph glyph-name="Schwa" unicode="&#x18f;" horiz-adv-x="1210"
d="M570 72q188 0 295 139t128 350h-788q9 -321 193 -442q70 -47 172 -47zM980 1172q128 -189 128 -488q0 -298 -140 -504t-393 -206q-252 -1 -378 209q-109 182 -109 476h911v19q0 262 -101 427q-114 187 -328 187q-213 0 -349 -122q-29 -26 -37 -33l-49 90q51 57 126 92
q155 72 299 73q271 2 420 -220z" />
    <glyph glyph-name="florin" unicode="&#x192;"
d="M-39 -303v96q156 9 216 55t86 99t40 125l141 721h-213v94h232l18 96q66 360 418 369v-97q-210 -11 -254.5 -117t-56.5 -167l-19 -84h330v-94h-348l-148 -744q-38 -189 -147 -270q-110 -82 -295 -82z" />
    <glyph glyph-name="Scommaaccent" unicode="&#x218;" horiz-adv-x="983"
d="M825 1133q-129 159 -327 159q-120 0 -202 -59q-83 -59 -83 -165t58 -166q58 -58 153 -93l133 -49q171 -62 257 -150q87 -88 87 -264t-113 -274t-303 -98t-351 114q-42 31 -66 62l57 96q106 -113 257 -157q52 -15 110 -15q132 0 216 69q83 69 83 201q0 180 -166 265
q-53 28 -121 53l-139 49q-269 94 -269 333q0 161 112 255t268 94q268 0 415 -181zM344 -356l98 266h121l-139 -266h-80z" />
    <glyph glyph-name="scommaaccent" unicode="&#x219;" horiz-adv-x="772"
d="M209 781q0 -51 11 -77q30 -72 224 -139q129 -47 195 -115t66 -197q0 -128 -89 -201t-239 -74t-254 75q-27 18 -39 31l39 92q35 -35 103 -72q68 -36 165 -36q98 0 155 46q56 46 56 137t-54 140t-190 99q-137 49 -194 109q-58 60 -58 162t79 171t199 69q120 -1 196 -37
t114 -77l-43 -80q-125 108 -260 106q-92 0 -137 -41t-45 -91zM240 -356l98 266h121l-140 -266h-79z" />
    <glyph glyph-name="uni021A" unicode="&#x21a;" horiz-adv-x="931"
d="M412 0v1266h-402v100h912v-100h-404v-1266h-106zM299 -356l98 266h121l-139 -266h-80z" />
    <glyph glyph-name="uni021B" unicode="&#x21b;" horiz-adv-x="595"
d="M203 199v688h-160v90h160v260h100v-260h244v-90h-244v-680q0 -141 113 -139q48 0 119 45l40 -76q-29 -23 -67 -41t-108 -18q-197 -2 -197 221zM203 -356l98 266h121l-139 -266h-80z" />
    <glyph glyph-name="dotlessj" unicode="&#x237;" horiz-adv-x="382"
d="M141 -6v983h101v-983q0 -152 -51.5 -243t-153.5 -152l-41 84q82 55 113.5 126.5t31.5 184.5z" />
    <glyph glyph-name="schwa" unicode="&#x259;" horiz-adv-x="958"
d="M465 68q111 0 189 74t102 243h-570q11 -157 98 -247q70 -70 181 -70zM438 1001q205 0 316 -135q110 -135 110 -374t-111 -377t-292 -138q-180 0 -281 135q-102 135 -104 361h688q0 211 -83 325t-252 114t-271 -111l-52 71q57 72 205 113q57 16 127 16z" />
    <glyph glyph-name="circumflex" unicode="&#x2c6;" horiz-adv-x="593"
d="M92 1110l-59 53l231 307h64l231 -307l-59 -53l-205 264z" />
    <glyph glyph-name="caron" unicode="&#x2c7;" horiz-adv-x="593"
d="M264 1110l-231 307l59 53l203 -264l205 264l59 -53l-231 -307h-64z" />
    <glyph glyph-name="uni02C9" unicode="&#x2c9;" horiz-adv-x="593"
d="M10 1243v94h572v-94h-572z" />
    <glyph glyph-name="breve" unicode="&#x2d8;" horiz-adv-x="593"
d="M299 1217q190 0 217 210h82q-4 -147 -93 -222t-207 -75t-207 75t-93 222h82q15 -116 77 -163t142 -47z" />
    <glyph glyph-name="dotaccent" unicode="&#x2d9;" horiz-adv-x="593"
d="M297 1231q-31 0 -52.5 20.5t-21.5 59.5t21.5 60.5t52.5 21.5t52.5 -21.5t21.5 -60.5t-21.5 -59.5t-52.5 -20.5z" />
    <glyph glyph-name="ring" unicode="&#x2da;" horiz-adv-x="593"
d="M408 1294q0 57 -33 96.5t-78 39.5t-78 -39t-33 -97t31 -93.5t81 -35.5t80 36t30 93zM487 1297q0 -38 -12 -74.5t-36.5 -65.5t-60.5 -46t-83 -17t-83 17t-59.5 46t-36 64.5t-12.5 74.5t12.5 76t36 65.5t59.5 46t83 17.5t83 -17.5t60.5 -46t36.5 -65.5t12 -75z" />
    <glyph glyph-name="ogonek" unicode="&#x2db;" horiz-adv-x="593"
d="M231 -217q0 -86 70 -86q40 0 82 29l25 -86q-58 -35 -126 -35q-69 0 -112 39t-43 103q0 108 55.5 174.5t126.5 123.5l90 -20q-168 -124 -168 -242z" />
    <glyph glyph-name="tilde" unicode="&#x2dc;" horiz-adv-x="593"
d="M436 1262q67 0 119 129l72 -35q-37 -98 -90.5 -139t-115.5 -41t-141 61t-122 61q-69 0 -119 -116l-72 30q63 168 203 168q72 0 147 -59q76 -59 119 -59z" />
    <glyph glyph-name="hungarumlaut" unicode="&#x2dd;" horiz-adv-x="593"
d="M311 1118l-43 58l316 284l73 -82zM-18 1118l-45 58l317 284l72 -82z" />
    <glyph glyph-name="tonos" unicode="&#x384;" horiz-adv-x="905"
d="M377 1104l-72 33l193 397l106 -43z" />
    <glyph glyph-name="dieresistonos" unicode="&#x385;" horiz-adv-x="700"
d="M377 1104l-72 33l193 397l106 -43zM293 1320q0 -38 -22.5 -63.5t-55.5 -25.5t-56.5 25.5t-23.5 63.5t23.5 64.5t56.5 26.5t55.5 -26.5t22.5 -64.5zM768 1320q0 -38 -22.5 -63.5t-55.5 -25.5t-56.5 25.5t-23.5 63.5t23.5 64.5t56.5 26.5t55.5 -26.5t22.5 -64.5z" />
    <glyph glyph-name="Alphatonos" unicode="&#x386;" horiz-adv-x="1091"
d="M166 926l-76 22l127 420l113 -27zM309 541h467l-235 696zM10 0l484 1366h98l489 -1366h-112l-160 438h-533l-155 -438h-111z" />
    <glyph glyph-name="Epsilontonos" unicode="&#x388;" horiz-adv-x="956"
d="M-49 926l-76 22l127 420l113 -27zM156 0v1366h729v-100h-625v-492h453v-100h-453v-574h662v-100h-766z" />
    <glyph glyph-name="Etatonos" unicode="&#x389;" horiz-adv-x="1234"
d="M156 0v1366h106v-608h709v608h104v-1366h-104v655h-709v-655h-106zM-55 926l-76 22l127 420l113 -27z" />
    <glyph glyph-name="Iotatonos" unicode="&#x38a;" horiz-adv-x="421"
d="M156 0v1366h106v-1366h-106zM-53 926l-76 22l127 420l113 -27z" />
    <glyph glyph-name="Omicrontonos" unicode="&#x38c;" horiz-adv-x="1251"
d="M950 1098q-115 194 -319 194t-318 -193q-100 -171 -100 -413q0 -243 109 -428q109 -184 310 -184t317 195q102 171 102 415t-101 414zM232 194q-130 192 -130 487t141 503q141 207 394 208t396 -220q128 -195 128 -486q0 -292 -128 -490q-65 -98 -165 -160t-235 -62
q-253 0 -401 220zM-6 926l-76 22l127 420l113 -27z" />
    <glyph glyph-name="Upsilontonos" unicode="&#x38e;" horiz-adv-x="1067"
d="M584 293v-293h-107v328q0 90 -9 176t-51 206q-43 120 -103 232q-123 227 -285 365l67 79q151 -128 281 -346q131 -218 160 -413q52 226 180 432q128 205 268 327l62 -75q-146 -123 -285 -371q-139 -249 -164 -451q-14 -100 -14 -196zM-164 926l-76 22l127 420l113 -27z
" />
    <glyph glyph-name="Omegatonos" unicode="&#x38f;" horiz-adv-x="1345"
d="M1223 731q0 -393 -285 -631h293v-100h-432v104q137 92 224 249t87 389t-113 392t-322 160t-325 -162q-117 -162 -117 -413q0 -197 86 -356q86 -158 230 -259v-104h-434v100h293q-288 236 -285 621q0 291 148 481q148 191 405 192t402 -186t145 -477zM8 926l-76 22
l127 420l113 -27z" />
    <glyph glyph-name="iotadieresistonos" unicode="&#x390;" horiz-adv-x="481"
d="M145 975h103v-766q0 -74 24 -107q24 -32 80 -32q55 0 107 24l16 -88q-63 -27 -145 -28q-82 0 -133 50t-52 165v782zM176 1104l-72 33l193 397l106 -43zM92 1320q0 -38 -22 -64t-56 -26q-32 0 -56 26t-24 64t24 64t56 27q32 -1 56 -27q22 -26 22 -64zM567 1320
q-1 -38 -23 -64t-55 -26t-57 26t-22 64q0 38 24 64t56 27q32 -1 54 -27t23 -64z" />
    <glyph glyph-name="Alpha" unicode="&#x391;" horiz-adv-x="1091"
d="M309 541h467l-235 696zM10 0l484 1366h98l489 -1366h-112l-160 438h-533l-155 -438h-111z" />
    <glyph glyph-name="Beta" unicode="&#x392;" horiz-adv-x="1024"
d="M262 770h234q137 0 209 71q71 71 71 191q-1 232 -266 234h-248v-496zM262 100h311q129 0 198 76t69 218t-89 208q-89 68 -249 68h-240v-570zM508 1366q379 0 379 -340q0 -252 -250 -301q141 -10 228 -94q87 -83 87 -255t-102 -274t-268 -102h-426v1366h352z" />
    <glyph glyph-name="Gamma" unicode="&#x393;" horiz-adv-x="929"
d="M262 1266v-1266h-106v1366h704v-100h-598z" />
    <glyph glyph-name="uni0394" unicode="&#x394;" horiz-adv-x="1107"
d="M547 1210l-389 -1112h790zM10 0l496 1366h86l506 -1366h-1088z" />
    <glyph glyph-name="Epsilon" unicode="&#x395;" horiz-adv-x="974"
d="M156 0v1366h729v-100h-625v-492h453v-100h-453v-574h662v-100h-766z" />
    <glyph glyph-name="Zeta" unicode="&#x396;" horiz-adv-x="1060"
d="M86 0v104l762 1162h-729v100h835v-113l-755 -1153h784v-100h-897z" />
    <glyph glyph-name="Eta" unicode="&#x397;" horiz-adv-x="1230"
d="M156 0v1366h106v-608h709v608h104v-1366h-104v655h-709v-655h-106z" />
    <glyph glyph-name="Theta" unicode="&#x398;" horiz-adv-x="1263"
d="M1051 684q0 111 -25 219.5t-76 194.5t-130.5 140t-187.5 54t-187.5 -53t-131 -140t-76 -195.5t-24.5 -286.5t110 -360.5t312 -182.5q106 0 185 54t130 140t76 195.5t25 220.5zM1161 684q0 -292 -96 -440t-195.5 -209.5t-294.5 -61.5t-334 208t-139 502t140.5 502
t394.5 208t389 -208.5t135 -500.5zM891 637h-514v100h514v-100z" />
    <glyph glyph-name="Iota" unicode="&#x399;" horiz-adv-x="417"
d="M156 0v1366h106v-1366h-106z" />
    <glyph glyph-name="Kappa" unicode="&#x39a;" horiz-adv-x="1056"
d="M262 0h-106v1366h106v-664l617 664h129l-498 -539l537 -827h-127l-484 745l-174 -180v-565z" />
    <glyph glyph-name="Lambda" unicode="&#x39b;" horiz-adv-x="1056"
d="M522 1188l-399 -1188h-113l473 1366h82l482 -1366h-113z" />
    <glyph glyph-name="Mu" unicode="&#x39c;" horiz-adv-x="1431"
d="M682 -23l-393 1188l-49 -1165h-105l62 1366h137l405 -1239l377 1239h131l62 -1366h-103l-51 1149l-364 -1172h-109z" />
    <glyph glyph-name="Nu" unicode="&#x39d;" horiz-adv-x="1255"
d="M156 0v1366h112l727 -1151v1151h105v-1366h-92l-748 1178v-1178h-104z" />
    <glyph glyph-name="Xi" unicode="&#x39e;" horiz-adv-x="1071"
d="M233 666v98h605v-98h-605zM137 1266v100h793v-100h-793zM127 0v100h817v-100h-817z" />
    <glyph glyph-name="Omicron" unicode="&#x39f;" horiz-adv-x="1263"
d="M950 1098q-115 194 -319 194t-318 -193q-100 -171 -100 -413q0 -243 109 -428q109 -184 310 -184t317 195q102 171 102 415t-101 414zM232 194q-130 192 -130 487t141 503q141 207 394 208t396 -220q128 -195 128 -486q0 -292 -128 -490q-65 -98 -165 -160t-235 -62
q-253 0 -401 220z" />
    <glyph glyph-name="Pi" unicode="&#x3a0;" horiz-adv-x="1210"
d="M948 0v1266h-686v-1266h-106v1366h899v-1366h-107z" />
    <glyph glyph-name="Rho" unicode="&#x3a1;" horiz-adv-x="1032"
d="M860 968q0 138 -73.5 218t-221.5 80h-301v-590h301q137 0 216 77t79 215zM565 573h-301v-573h-106v1366h407q195 0 300.5 -101t105.5 -294t-111 -295.5t-295 -102.5z" />
    <glyph glyph-name="Sigma" unicode="&#x3a3;" horiz-adv-x="1003"
d="M76 0v104l545 576l-549 580v106h854v-100h-719l553 -586l-551 -580h756v-100h-889z" />
    <glyph glyph-name="Tau" unicode="&#x3a4;" horiz-adv-x="931"
d="M412 0v1266h-402v100h912v-100h-404v-1266h-106z" />
    <glyph glyph-name="Upsilon" unicode="&#x3a5;" horiz-adv-x="1058"
d="M575 293v-293h-106v328q0 90 -9 176t-51 205.5t-134 290t-255 307.5l68 79q148 -125 280.5 -346t159.5 -413q51 222 181.5 432t267.5 327l61 -75q-143 -120 -282.5 -367t-165.5 -455q-15 -107 -15 -196z" />
    <glyph glyph-name="Phi" unicode="&#x3a6;" horiz-adv-x="1404"
d="M1202 682q0 197 -124.5 303.5t-315.5 106.5v-820q309 7 374.5 157.5t65.5 252.5zM219 680q0 -194 121.5 -301t314.5 -107v820q-305 -6 -370.5 -159t-65.5 -253zM1313 683q0 -230 -144.5 -364.5t-406.5 -144.5v-197h-107v197q-260 10 -403 141t-143 362t146.5 366
t399.5 147v201h107v-201q262 -12 406.5 -144.5t144.5 -362.5z" />
    <glyph glyph-name="Chi" unicode="&#x3a7;" horiz-adv-x="952"
d="M10 0l402 709l-367 657h125l305 -567l307 567h121l-366 -651l405 -715h-129l-340 627l-344 -627h-119z" />
    <glyph glyph-name="Psi" unicode="&#x3a8;" horiz-adv-x="1380"
d="M1257 928q0 -487 -512 -514v-414h-106v414q-264 10 -390 135t-126 391v426h106v-428q0 -222 108 -322t302 -100v850h106v-850q281 0 342.5 149.5t61.5 262.5v438h108v-438z" />
    <glyph glyph-name="Omega" unicode="&#x3a9;" horiz-adv-x="1345"
d="M1223 731q0 -393 -285 -631h293v-100h-432v104q137 92 224 249t87 389t-113 392t-322 160t-325 -162q-117 -162 -117 -413q0 -197 86 -356q86 -158 230 -259v-104h-434v100h293q-288 236 -285 621q0 291 148 481q148 191 405 192t402 -186t145 -477z" />
    <glyph glyph-name="Iotadieresis" unicode="&#x3aa;" horiz-adv-x="421"
d="M156 0v1366h106v-1366h-106zM387 1571q-31 0 -53 20q-22 19 -21 59q0 40 22 62q23 22 53 21q30 0 52 -22q22 -23 21 -61q1 -38 -21 -58t-53 -21zM37 1571q-31 0 -53 20q-22 19 -21 59q0 40 22 62q23 22 53 21q30 0 52 -22q22 -23 21 -61q1 -38 -21 -58t-53 -21z" />
    <glyph glyph-name="Upsilondieresis" unicode="&#x3ab;" horiz-adv-x="1058"
d="M711 1540q-31 0 -53 20t-22 60q0 38 22 60t53 22t53 -22t20 -60q0 -38 -21 -60q-21 -20 -52 -20zM360 1540q-30 0 -52 20t-22 60q0 38 22 60t52 22t53 -22q21 -22 21 -60t-22 -60q-22 -20 -52 -20zM575 0h-106v328q0 90 -9 176t-51 206q-43 120 -103 232
q-124 229 -286 365l68 79q146 -124 280 -345q133 -221 160 -414q52 224 180 430q128 207 269 329l61 -75q-144 -121 -283 -370t-165 -452q-12 -84 -15 -196v-293z" />
    <glyph glyph-name="alphatonos" unicode="&#x3ac;" horiz-adv-x="1067"
d="M477 68q148 0 231 136q60 99 60 329q0 231 -138 331q-54 39 -128 39q-215 0 -283 -249q-23 -83 -22 -193q-1 -195 79 -294t201 -99zM712 84q-95 -107 -254 -107q-160 0 -262 128t-102 356t101 384t297 156q126 1 202 -67t109 -164q14 135 63 231l101 -28
q-100 -238 -107 -574q0 -137 10 -200q10 -62 36 -95t77 -32q18 0 43 6l8 -92q-33 -8 -65 -9q-86 -1 -136 51t-57 146q-22 -42 -64 -90zM543 1104l-72 33l193 397l106 -43z" />
    <glyph glyph-name="epsilontonos" unicode="&#x3ad;" horiz-adv-x="913"
d="M501 66q146 0 298 75l16 -90q-55 -35 -143 -54t-172 -20q-178 0 -281 70q-102 70 -102 217q0 94 59 160t150 88q-84 23 -133 82t-50 141q0 123 90 195q89 72 225 72t214 -32q78 -30 133 -65l-33 -88q-147 96 -278 95q-130 -1 -188 -51t-58 -123q0 -141 164 -173
q62 -8 196 -8h90v-88h-106q-88 0 -177 -7q-89 -8 -143 -62t-53 -137q0 -83 68 -140t214 -57zM487 1104l-71 33l192 397l107 -43z" />
    <glyph glyph-name="etatonos" unicode="&#x3ae;" horiz-adv-x="1048"
d="M123 993q113 0 135 -133q117 141 328 141q158 0 247 -82t89 -255v-1051h-101v989q0 69 -11 137q-10 68 -68 118t-170 50t-191 -48q-111 -67 -117 -189q-2 -43 -2 -66v-604h-100v797q0 98 -64 98q-20 0 -59 -12l-19 88q44 22 103 22zM547 1104l-72 33l193 397l106 -43z
" />
    <glyph glyph-name="iotatonos" unicode="&#x3af;" horiz-adv-x="481"
d="M145 975h103v-766q0 -74 24 -107q24 -32 80 -32q55 0 107 24l16 -88q-63 -27 -145 -28q-82 0 -133 50t-52 165v782zM178 1104l-72 33l193 397l107 -43z" />
    <glyph glyph-name="upsilondieresistonos" unicode="&#x3b0;" horiz-adv-x="1015"
d="M112 993q111 0 139 -109q15 -69 15 -126v-369q0 -155 56 -237t184 -82q127 0 187 76q75 95 83 311q2 51 2 157t-39 357l105 14q33 -216 34 -392t-8 -245q-22 -170 -108 -270t-262 -101q-334 0 -334 400v377q0 23 -2 43q-2 96 -76 96q-18 0 -53 -10l-15 92q48 18 92 18z
M401 1104l-71 33l192 397l107 -43zM240 1411q33 -1 55 -27t22 -64q-1 -38 -23 -64t-54 -26t-57 26q-23 26 -23 64t24 64t56 27zM715 1411q33 -1 55 -27t23 -64q0 -38 -23 -64q-24 -26 -56 -26t-56 26t-24 64t24 64t57 27z" />
    <glyph glyph-name="alpha" unicode="&#x3b1;" horiz-adv-x="1067"
d="M477 68q149 0 220 118.5t71 348.5t-96 299t-170 69q-144 0 -224.5 -115.5t-80.5 -318.5t79.5 -302t200.5 -99zM983 72q18 0 43 6l8 -92q-33 -8 -65 -9q-86 0 -136.5 51.5t-56.5 145.5q-18 -35 -47 -72q-112 -125 -271 -125t-261.5 129t-102.5 358t102 383t296 154
q125 0 201.5 -67.5t109.5 -163.5q13 129 63 231l101 -28q-100 -238 -107 -574q0 -137 10 -200q10 -62 36 -94.5t77 -32.5z" />
    <glyph glyph-name="beta" unicode="&#x3b2;" horiz-adv-x="1110"
d="M909 366q0 152 -110 240t-291 88v97q110 0 199.5 70t89.5 183t-64.5 181.5t-194.5 68.5q-131 0 -206.5 -91.5t-75.5 -287.5v-661q172 -186 370 -186t240.5 109.5t42.5 188.5zM156 934q0 225 107.5 337.5t274.5 112.5t262 -87t95 -219q0 -133 -77.5 -219t-168.5 -109
q145 -13 254 -111.5t109 -272.5t-102.5 -281.5t-279.5 -107.5t-266.5 73t-111.5 97v-536h-96v1323z" />
    <glyph glyph-name="gamma" unicode="&#x3b3;" horiz-adv-x="933"
d="M65 991q54 0 93.5 -30.5t67.5 -84.5q56 -107 129.5 -349t101.5 -451q34 194 137.5 471.5t193.5 441.5l84 -35q-143 -286 -257.5 -631t-114.5 -395v-315h-103v104q0 188 -18 301q-30 192 -107 438.5t-133 352.5q-23 47 -45 63.5t-51 16.5t-70 -17l-18 95q56 24 110 24z
" />
    <glyph glyph-name="delta" unicode="&#x3b4;" horiz-adv-x="1028"
d="M788.5 711.5q-49.5 95.5 -145.5 191.5q-229 0 -335.5 -128.5t-106.5 -305.5t87 -287t235 -110t231.5 115.5t83.5 272.5q0 156 -49.5 251.5zM891 1366v-90h-529q215 -165 396 -346q182 -194 182 -428q0 -225 -109 -375t-314 -150t-312 145t-107 348.5t123.5 350
t345.5 154.5q-168 157 -327 272l36 119h615z" />
    <glyph glyph-name="epsilon" unicode="&#x3b5;" horiz-adv-x="913"
d="M499 66q145 0 300 75l16 -90q-55 -35 -143 -54.5t-172 -19.5q-178 0 -280.5 70t-102.5 217q0 94 59.5 159.5t149.5 88.5q-84 23 -133.5 82t-49.5 141q0 123 90.5 194.5t225.5 71.5t213 -30.5t133 -65.5l-33 -88q-144 94 -276 94t-190 -50t-58 -123q0 -141 164 -173
q62 -8 196 -8h90v-88h-106q-88 0 -177 -7t-142.5 -61.5t-53.5 -137.5t67.5 -140t212.5 -57z" />
    <glyph glyph-name="zeta" unicode="&#x3b6;" horiz-adv-x="843"
d="M506 1360q161 0 305 12v-80q-142 -86 -283 -225q-164 -166 -246.5 -342t-82.5 -341t107.5 -240.5t336.5 -75.5h90q35 0 53.5 -13.5t18.5 -52.5t-10.5 -87t-25.5 -97t-32.5 -95.5t-29.5 -78.5l-78 24q51 141 76 309h-231q-232 0 -305 143.5t-73 253.5q0 208 117.5 426.5
t259 335.5t178.5 142q-59 -6 -210 -6t-269 20l18 86q155 -18 316 -18z" />
    <glyph glyph-name="eta" unicode="&#x3b7;" horiz-adv-x="1048"
d="M123 993q113 0 135 -133q117 141 328 141q158 0 247 -82.5t89 -125.5v-1180h-101v989q0 67 -11 136t-68.5 119t-169.5 50t-207 -57.5t-99 -140t-4 -105.5v-604h-100v797q0 98 -64 98q-23 0 -59 -12l-19 88q44 22 103 22z" />
    <glyph glyph-name="theta" unicode="&#x3b8;" horiz-adv-x="993"
d="M466 1294q-122 0 -193 -162.5t-76 -406.5h602q-7 394 -109 481.5t-224 87.5zM499 70q162 0 231 162t69 407h-602q0 -397 107.5 -483t194.5 -86zM897 682q0 -705 -403 -705q-224 0 -313 199t-89 500q0 475 146.5 591.5t267.5 116.5t197.5 -61t135 -196.5t58.5 -444.5z" />
    <glyph glyph-name="iota" unicode="&#x3b9;" horiz-adv-x="481"
d="M145 193v782h103v-766q0 -74 24.5 -106.5t77.5 -32.5t109 24l16 -88q-67 -29 -147 -29t-131.5 50.5t-51.5 165.5z" />
    <glyph glyph-name="kappa" unicode="&#x3ba;" horiz-adv-x="1038"
d="M824 885q-44 0 -73.5 -14.5t-64.5 -54.5t-80 -90t-92 -108l453 -618h-121l-397 537l-201 -236v-301h-101v975h101v-539q225 285 386 457q84 90 187 90q73 0 117 -29l-20 -94q-50 25 -94 25z" />
    <glyph glyph-name="lambda" unicode="&#x3bb;" horiz-adv-x="954"
d="M240 1346q86 0 138 -45.5t83 -137.5l325 -958q23 -63 45.5 -97t69.5 -34q15 0 60 12l12 -88q-38 -21 -86 -21q-90 0 -135 60t-88 199l-191 583l-305 -819h-109l367 954l-66 183q-23 66 -54.5 89t-86.5 23t-133 -37l-25 86q93 48 179 48z" />
    <glyph glyph-name="uni03BC" unicode="&#x3bc;" horiz-adv-x="1081"
d="M254 -387h-98v1364h102v-617q0 -135 75 -213.5t189 -78.5q157 0 209.5 69.5t64.5 106.5t13 131v602h104v-764q0 -70 12.5 -107.5t63.5 -37.5q13 0 58 14l18 -86q-43 -19 -92 -19q-135 0 -156 142q-110 -142 -299 -142q-188 0 -264 144v-508z" />
    <glyph glyph-name="nu" unicode="&#x3bd;" horiz-adv-x="952"
d="M56 893q-28 0 -70 -14l-19 88q48 24 106 24t96 -25.5t66 -87.5q52 -115 125.5 -349.5t118.5 -440.5q184 567 301 905l92 -32q-106 -293 -329 -975h-140q-65 305 -163.5 581t-127 301t-56.5 25z" />
    <glyph glyph-name="xi" unicode="&#x3be;" horiz-adv-x="864"
d="M437 1364q135 0 347 12v-88q-252 -27 -392 -93t-140 -224q0 -203 71 -203h406v-90h-54q-54 0 -189 -9q-134 -9 -209.5 -95.5t-75.5 -211.5q0 -156 129 -224t403 -72h29q35 0 54.5 -12.5t19.5 -51.5q0 -69 -36 -182.5t-65 -175.5l-76 24q59 161 76 309q-295 5 -466 81
t-171 300q0 130 76 227t186 128q-88 20 -150.5 84t-62.5 170q0 107 84.5 197.5t217.5 117.5v2q-31 -4 -69 -4q-190 0 -263 18l20 88q165 -22 300 -22z" />
    <glyph glyph-name="omicron" unicode="&#x3bf;" horiz-adv-x="1011"
d="M743 780q-88 133 -234 132q-147 -1 -229 -123q-83 -122 -83 -296q0 -173 83 -300t230 -126q148 1 229 128q82 127 82 298q0 172 -78 287zM924 490q0 -211 -110 -362t-305 -151q-194 0 -303 154q-110 154 -110 363t107 358t301 149q195 0 307 -150q113 -150 113 -361z" />
    <glyph glyph-name="pi" unicode="&#x3c0;" horiz-adv-x="1236"
d="M956 207q0 -139 87 -139q44 0 92 18l12 -86q-53 -23 -115 -23q-174 0 -174 207v703h-448v-887h-99v887h-20q-111 0 -182 -109l-70 49q77 130 162.5 140t126.5 10h831v-90h-203v-680z" />
    <glyph glyph-name="rho" unicode="&#x3c1;" horiz-adv-x="1044"
d="M774.5 784.5q-71.5 126.5 -217.5 126.5t-227.5 -97.5t-81.5 -139.5v-430q67 -83 138 -129.5t150 -46.5t133 30.5t115.5 116t61.5 264.5t-71.5 305.5zM145 -387v570q0 570 110 694t305 124t291.5 -143t96.5 -358t-106 -369t-295 -154q-141 0 -212 62.5t-91 89.5v-516h-99z
" />
    <glyph glyph-name="sigma1" unicode="&#x3c2;" horiz-adv-x="880"
d="M768 7q0 -38 -10 -85t-24.5 -96t-31 -94t-28.5 -78l-80 22q54 155 74 306q-258 4 -420 134t-162 375t117 377.5t285 132.5t241.5 -81.5t93.5 -120.5l-75 -54q-47 74 -104.5 120t-138.5 46q-148 0 -232.5 -113t-84.5 -301t126 -303.5t386 -121.5q35 0 51.5 -13.5
t16.5 -51.5z" />
    <glyph glyph-name="sigma" unicode="&#x3c3;" horiz-adv-x="1112"
d="M815 469q0 214 -91 302.5t-128 111.5h-14q-172 0 -276.5 -107.5t-104.5 -297.5t85.5 -300t227 -110t221.5 114.5t80 286.5zM915 494q0 -225 -104 -371t-304 -146t-304.5 147.5t-104.5 334.5q0 330 159 414.5t237 90.5q151 12 237 13h283v-88h-299q90 -66 145 -174.5
t55 -220.5z" />
    <glyph glyph-name="tau" unicode="&#x3c4;" horiz-adv-x="974"
d="M395 193v694h-108q-116 0 -154.5 -40t-56.5 -71l-70 51q65 127 154.5 138.5t136.5 11.5h571v-90h-372v-668q0 -84 30 -116.5t94 -32.5t144 32l14 -90q-85 -35 -168 -35q-215 0 -215 216z" />
    <glyph glyph-name="upsilon" unicode="&#x3c5;" horiz-adv-x="1015"
d="M112 993q81 0 117.5 -55.5t36.5 -91.5v-457q0 -156 56.5 -237.5t183.5 -81.5t187.5 76.5t72.5 185.5t12 249t-39 390l105 14q35 -228 35 -401t-9 -236q-23 -170 -108.5 -270.5t-261.5 -100.5q-334 0 -334 400v199q0 200 -2 221q-2 96 -76 96q-18 0 -53 -10l-15 92
q48 18 92 18z" />
    <glyph glyph-name="phi" unicode="&#x3c6;" horiz-adv-x="1263"
d="M199 484q0 -176 108 -283t277 -111v797q-270 -13 -327.5 -162.5t-57.5 -240.5zM963.5 779q-109.5 104 -281.5 108v-797q166 4 278.5 112.5t112.5 290.5t-109.5 286zM1029 137.5q-147 -133.5 -347 -137.5v-387h-98v387q-209 4 -347.5 134t-138.5 352t138.5 350t347.5 141
v389h98v-389q215 -4 354.5 -130t139.5 -351t-147 -358.5z" />
    <glyph glyph-name="chi" unicode="&#x3c7;" horiz-adv-x="952"
d="M121 1001q83 0 120.5 -45.5t92.5 -175.5l145 -368l283 583l92 -39l-324 -645l226 -483q29 -61 60.5 -97t75.5 -36t73 14l16 -88q-46 -20 -94 -20q-96 0 -149.5 62.5t-98.5 166.5l-170 379l-313 -615l-90 37l346 682l-172 435q-25 61 -52.5 107t-69.5 46t-69 -12l-20 92
q45 20 92 20z" />
    <glyph glyph-name="psi" unicode="&#x3c8;" horiz-adv-x="1355"
d="M233 731v-239q0 -408 388 -416v1165h100v-1165q166 4 272 78t114.5 210t8.5 265t-37 346l103 14q39 -254 39 -405q0 -152 -21 -254q-71 -333 -479 -353v-366h-100v369q-256 14 -372 137t-116 364v248q0 148 -16 244l100 14q16 -76 16 -256z" />
    <glyph glyph-name="omega" unicode="&#x3c9;" horiz-adv-x="1480"
d="M449 -23q-171 0 -257 126t-86 333q0 139 48 295.5t114 253.5l90 -31q-149 -241 -149 -516q0 -184 68.5 -274t181.5 -90q154 0 187.5 130t38.5 194t5 212v103h103v-84q0 -164 6 -231q13 -146 68 -236t169 -90q113 0 178.5 107.5t65.5 258.5t-44 291.5t-112 224.5l90 29
q66 -78 117 -224.5t51 -264.5q0 -232 -89 -374.5t-260 -142.5q-172 0 -225.5 102.5t-66.5 156.5q-81 -259 -292 -259z" />
    <glyph glyph-name="iotadieresis" unicode="&#x3ca;" horiz-adv-x="481"
d="M145 975h103v-766q0 -74 24 -107q24 -32 80 -32q55 0 107 24l16 -88q-63 -27 -145 -28q-82 0 -133 50t-52 165v782zM377 1231q-31 0 -53 20q-22 19 -21 59q0 40 22 62q23 22 53 21q30 0 52 -22q22 -23 21 -61q1 -38 -21 -58t-53 -21zM27 1231q-31 0 -53 20q-22 19 -22 59
t22 62t53 21q31 0 53 -22q22 -23 20 -61q0 -38 -21 -58t-52 -21z" />
    <glyph glyph-name="upsilondieresis" unicode="&#x3cb;" horiz-adv-x="1015"
d="M112 993q111 0 139 -109q15 -69 15 -126v-369q0 -155 56 -237t184 -82q127 0 187 76q75 95 83 311q2 51 2 157t-39 357l105 14q33 -216 34 -392t-8 -245q-22 -170 -108 -270t-262 -101q-334 0 -334 400v377q0 23 -2 43q-2 96 -76 96q-18 0 -53 -10l-15 92q48 18 92 18z
M666 1231q-31 0 -53 20q-21 19 -21 59t22 62t52 21q30 0 52 -22q22 -23 22 -61t-22 -58q-21 -20 -52 -21zM315 1231q-31 0 -53 20q-22 19 -20 59q0 40 22 62t52 21q30 0 52 -22q22 -23 22 -61t-22 -59q-22 -20 -53 -20z" />
    <glyph glyph-name="omicrontonos" unicode="&#x3cc;" horiz-adv-x="1011"
d="M498 1104l-72 33l192 397l107 -43zM743 780q-88 133 -234 132q-147 -1 -229 -123q-83 -122 -83 -296q0 -173 83 -300t230 -126q148 1 229 128q82 127 82 298q0 172 -78 287zM924 490q0 -211 -110 -362t-305 -151q-194 0 -303 154q-110 154 -110 363t107 358t301 149
q195 0 307 -150q113 -150 113 -361z" />
    <glyph glyph-name="upsilontonos" unicode="&#x3cd;" horiz-adv-x="1015"
d="M112 993q111 0 139 -109q15 -69 15 -126v-369q0 -155 56 -237t184 -82q127 0 187 76q75 95 83 311q2 51 2 157t-39 357l105 14q33 -216 34 -392t-8 -245q-22 -170 -108 -270t-262 -101q-334 0 -334 400v377q0 23 -2 43q-2 96 -76 96q-18 0 -53 -10l-15 92q48 18 92 18z
M506 1104l-72 33l193 397l106 -43z" />
    <glyph glyph-name="omegatonos" unicode="&#x3ce;" horiz-adv-x="1480"
d="M1046 -23q-128 0 -204 74t-101 185q-37 -117 -87 -166q-50 -50 -97 -72t-123 -21q-76 0 -140 36q-185 102 -188 423q0 140 49 298q49 157 113 251l90 -31q-149 -241 -149 -516q0 -189 73 -279q66 -85 177 -85q156 0 206 199q25 100 25 337v103h103v-84q0 -164 6 -231
q30 -328 237 -327q112 1 178 109t66 260q0 153 -43 290q-43 136 -113 224l90 29q68 -80 118 -225t50 -264q0 -364 -196 -478q-66 -39 -140 -39zM750 1104l-72 33l192 397l107 -43z" />
    <glyph glyph-name="afii10023" unicode="&#x401;" horiz-adv-x="974"
d="M168 0v1366h729v-100h-625v-492h453v-100h-453v-574h662v-100h-766zM698 1571q-30 0 -52 20q-22 19 -22 59t22 62t52 21q30 0 53 -22q21 -23 21 -61t-21 -59q-22 -20 -53 -20zM348 1571q-30 0 -52 20q-22 19 -22 59t22 62t52 21q30 0 52 -22q22 -23 22 -61t-22 -58
t-52 -21z" />
    <glyph glyph-name="afii10051" unicode="&#x402;" horiz-adv-x="1300"
d="M449 795q184 127 360 127t290.5 -120.5t114.5 -343.5t-117.5 -340.5t-314.5 -117.5h-77v100h83q226 0 271 129t45 226q0 172 -84 267t-232 95q-95 0 -188 -42.5t-151 -94.5v-680h-107v1266h-330v100h791v-100h-354v-471z" />
    <glyph glyph-name="afii10052" unicode="&#x403;" horiz-adv-x="911"
d="M274 1264v-1264l-106 -2v1368h725v-102h-619zM399 1454l-49 59l318 285l75 -84z" />
    <glyph glyph-name="afii10053" unicode="&#x404;" horiz-adv-x="1099"
d="M1049 170q-155 -195 -433 -195q-104 0 -203.5 49.5t-205 187.5t-105.5 471t148.5 521.5t378.5 188.5q143 0 249.5 -73t161.5 -190l-86 -67q-52 105 -142 166t-188 61q-188 0 -295.5 -161t-111.5 -384h496v-100h-498q0 -233 116.5 -401t318.5 -168q201 0 337 180z" />
    <glyph glyph-name="afii10054" unicode="&#x405;" horiz-adv-x="989"
d="M825 1133q-129 159 -327 159q-120 0 -202 -59q-83 -59 -83 -165t58 -166q58 -58 153 -93l133 -49q171 -62 257 -150q87 -88 87 -264t-113 -274t-303 -98t-351 114q-42 31 -66 62l57 96q106 -113 257 -157q52 -15 110 -15q132 0 216 69q83 69 83 201q0 180 -166 265
q-53 28 -121 53l-139 49q-269 94 -269 333q0 161 112 255t268 94q268 0 415 -181z" />
    <glyph glyph-name="afii10055" unicode="&#x406;" horiz-adv-x="442"
d="M168 0v1366h106v-1366h-106z" />
    <glyph glyph-name="afii10056" unicode="&#x407;" horiz-adv-x="442"
d="M168 0v1366h106v-1366h-106zM403 1571q-31 0 -53 20q-22 19 -20 59q0 40 22 62t52 21q30 0 52 -22q22 -23 22 -61t-22 -59q-22 -20 -53 -20zM53 1571q-31 0 -53 20q-22 19 -20 59q0 40 22 62t52 21q30 0 52 -22q22 -23 21 -61q1 -38 -21 -58t-53 -21z" />
    <glyph glyph-name="afii10057" unicode="&#x408;" horiz-adv-x="722"
d="M295 74q104 0 142 55t38 162v1075h107v-1092q0 -102 -28 -160t-94 -98q-66 -39 -140 -39t-136 12t-105 34t-54 32l36 97q35 -35 110 -57q75 -21 124 -21z" />
    <glyph glyph-name="afii10058" unicode="&#x409;" horiz-adv-x="1810"
d="M1618 428q0 150 -86 231.5t-240 81.5h-278v-643h274q164 0 247 90t83 240zM356 1366h658v-526h284q205 0 316.5 -108.5t111.5 -302.5t-112.5 -311.5t-321.5 -117.5h-385v1266h-444v-164q0 -356 -39 -591t-95 -335t-123 -138t-163 -38h-25v98h35q57 0 106.5 29t86.5 117
q70 164 90 395t20 547v180z" />
    <glyph glyph-name="afii10059" unicode="&#x40a;" horiz-adv-x="1816"
d="M1620 422q0 299 -334 299h-266v-621h264q160 0 248 83t88 239zM1733 419q0 -198 -120 -308.5t-329 -110.5h-371v721h-639v-721h-106v1366h106v-545h639v545h107v-545h274q209 0 324 -102t115 -300z" />
    <glyph glyph-name="afii10060" unicode="&#x40b;" horiz-adv-x="1337"
d="M806 922q171 0 272.5 -104.5t101.5 -323.5v-494h-109v494q0 230 -103.5 276.5t-169.5 46.5q-107 0 -198.5 -44.5t-148.5 -96.5v-676h-107v1266h-332v100h791v-100h-352v-471q184 127 355 127z" />
    <glyph glyph-name="afii10061" unicode="&#x40c;" horiz-adv-x="1054"
d="M274 647v-647h-106v1366h106v-621h154q89 0 134 68t105 245q60 176 116 242t165 66h80v-100h-61q-75 0 -110 -40t-89 -191t-90 -220q-35 -69 -84 -115l434 -700h-123l-407 647h-224zM471 1456l-49 60l317 284l76 -84z" />
    <glyph glyph-name="uni040D" unicode="&#x40d;" horiz-adv-x="1269"
d="M995 0v1065l-721 -924v-141h-106v1366h106v-1067l721 924v143h107v-1366h-107zM766 1456l-342 260l76 84l317 -284z" />
    <glyph glyph-name="afii10062" unicode="&#x40e;" horiz-adv-x="1042"
d="M176 -12v102h43q91 0 138 37q85 67 161 250l-491 989h120l431 -877q195 409 340 877h110q-160 -518 -430 -1063q-30 -61 -62 -117q-111 -200 -286 -198h-74zM547 1554q72 0 129 42t74 139h92q-8 -125 -95 -197t-203 -73q-117 -1 -203 71q-87 72 -91 199h96
q31 -181 201 -181z" />
    <glyph glyph-name="afii10145" unicode="&#x40f;" horiz-adv-x="1243"
d="M682 0v-295h-107v295h-407v1366h108v-1266h693v1266h106v-1366h-393z" />
    <glyph glyph-name="afii10017" unicode="&#x410;" horiz-adv-x="1079"
d="M309 541h467l-235 696zM10 0l484 1366h98l489 -1366h-112l-160 438h-533l-155 -438h-111z" />
    <glyph glyph-name="afii10018" unicode="&#x411;" horiz-adv-x="1058"
d="M864 400q0 157 -87 229.5t-224 72.5h-279v-602h277q154 0 233.5 71.5t79.5 228.5zM975 406q0 -406 -432 -406h-375v1366h670v-100h-564v-465h267q211 0 322.5 -100t111.5 -295z" />
    <glyph glyph-name="afii10019" unicode="&#x412;" horiz-adv-x="1048"
d="M793 1028q0 236 -267 238h-247v-496h233q137 0 209 71t72 187zM279 100h311q130 0 198 76t68 218t-89 208q-89 68 -249 68h-239v-570zM524 1366q379 0 379 -340q0 -252 -250 -301q141 -10 229 -94t87 -255q-1 -172 -103 -274t-268 -102h-426v1366h352z" />
    <glyph glyph-name="afii10020" unicode="&#x413;" horiz-adv-x="911"
d="M274 1264v-1264l-106 -2v1368h725v-102h-619z" />
    <glyph glyph-name="afii10021" unicode="&#x414;" horiz-adv-x="1183"
d="M901 1268h-420q0 -214 -48 -529.5t-228 -640.5h696v1170zM1008 -295v295h-893v-295h-107v393h74q157 245 233 588q62 269 62 680h631v-1268h106v-393h-106z" />
    <glyph glyph-name="afii10022" unicode="&#x415;" horiz-adv-x="974"
d="M168 0v1366h729v-100h-625v-492h453v-100h-453v-574h662v-100h-766z" />
    <glyph glyph-name="afii10024" unicode="&#x416;" horiz-adv-x="1525"
d="M813 631v-631h-100v631h-168l-375 -631h-121l406 684q-59 43 -97.5 125.5t-78.5 190.5t-59 155t-47 79t-114 32h-26v100h65q108 0 149.5 -51t67 -111.5t59.5 -149.5q77 -201 118.5 -262t121.5 -61h99v635h100v-635h96q83 0 126.5 64t98.5 206q54 142 80.5 202.5
t66.5 111.5t149 51h61v-100h-31q-85 0 -113 -32t-47.5 -79t-59.5 -157q-90 -249 -169 -308l404 -690h-125l-367 631h-170z" />
    <glyph glyph-name="afii10025" unicode="&#x417;" horiz-adv-x="1017"
d="M496 1292q-210 0 -334 -196l-72 61q59 117 172 176.5t240 59.5q195 0 298 -93.5t103 -237.5t-73.5 -233.5t-188.5 -119.5q141 -14 215 -106.5t74 -233.5q0 -193 -122 -293.5t-329 -100.5q-278 0 -432 189l68 94q66 -84 152.5 -133t230.5 -49t231.5 73.5t87.5 210.5
t-82 210t-213 81q-66 4 -74 4h-104v97h84q191 0 277 88.5t86 204.5t-75 181.5t-220 65.5z" />
    <glyph glyph-name="afii10026" unicode="&#x418;" horiz-adv-x="1269"
d="M995 0v1065l-721 -924v-141h-106v1366h106v-1067l721 924v143h107v-1366h-107z" />
    <glyph glyph-name="afii10027" unicode="&#x419;" horiz-adv-x="1269"
d="M995 0v1065l-721 -924v-141h-106v1366h106v-1067l721 924v143h107v-1366h-107zM651 1563q72 0 129 42t74 138h92q-7 -123 -95 -197q-87 -73 -203 -73q-117 0 -204 72t-90 198h97q31 -180 200 -180z" />
    <glyph glyph-name="afii10028" unicode="&#x41a;" horiz-adv-x="1054"
d="M274 647v-647h-106v1366h106v-621h154q88 0 134.5 69.5t105.5 245.5q59 175 115.5 240.5t164.5 65.5h80v-100h-61q-75 0 -110 -39.5t-72 -144.5q-74 -204 -108.5 -270t-82.5 -112l434 -700h-123l-407 647h-224z" />
    <glyph glyph-name="afii10029" unicode="&#x41b;" horiz-adv-x="1228"
d="M950 0v1268h-477v-195q0 -328 -39 -562.5t-94 -334.5t-124 -138t-163 -38h-35v98h15q76 0 130 27.5t91 112.5q115 270 115 774v354h688v-1366h-107z" />
    <glyph glyph-name="afii10030" unicode="&#x41c;" horiz-adv-x="1443"
d="M682 -23l-393 1188l-49 -1165h-105l62 1366h137l405 -1239l377 1239h131l62 -1366h-103l-51 1149l-364 -1172h-109z" />
    <glyph glyph-name="afii10031" unicode="&#x41d;" horiz-adv-x="1255"
d="M168 0v1366h106v-608h709v608h104v-1366h-104v655h-709v-655h-106z" />
    <glyph glyph-name="afii10032" unicode="&#x41e;" horiz-adv-x="1263"
d="M950 1098q-115 194 -319 194t-318 -193q-100 -171 -100 -413q0 -243 109 -428q109 -184 310 -184t317 195q102 171 102 415t-101 414zM232 194q-130 192 -130 487t141 503q141 207 394 208t396 -220q128 -195 128 -486q0 -292 -128 -490q-65 -98 -165 -160t-235 -62
q-253 0 -401 220z" />
    <glyph glyph-name="afii10033" unicode="&#x41f;" horiz-adv-x="1253"
d="M979 0v1266h-705v-1266h-106v1366h917v-1366h-106z" />
    <glyph glyph-name="afii10034" unicode="&#x420;" horiz-adv-x="1038"
d="M276 674h302q135 0 214 79q78 79 78 217t-72 217q-73 79 -223 79h-299v-592zM170 0v1366h405q197 0 303 -101t107 -294q0 -193 -113 -296q-113 -102 -294 -102h-302v-573h-106z" />
    <glyph glyph-name="afii10035" unicode="&#x421;" horiz-adv-x="1099"
d="M954 1063q-116 227 -342 227q-74 0 -150 -40q-77 -40 -131 -118q-116 -166 -116 -447t117 -445t318 -164t337 180l62 -86q-152 -192 -405 -193q-253 -2 -398 185q-144 187 -144 521q0 333 148 522q148 188 379 188q143 0 249 -73t162 -190z" />
    <glyph glyph-name="afii10036" unicode="&#x422;" horiz-adv-x="946"
d="M418 0v1266h-402v100h912v-100h-404v-1266h-106z" />
    <glyph glyph-name="afii10037" unicode="&#x423;" horiz-adv-x="1042"
d="M176 -12v102h43q91 0 157 52.5t142 234.5l-491 989h120l431 -877q195 409 340 877h110q-163 -529 -430 -1063q-31 -61 -102 -188t-246 -127h-74z" />
    <glyph glyph-name="afii10038" unicode="&#x424;" horiz-adv-x="1382"
d="M1059.5 985q-122.5 107 -316.5 107v-820q197 0 318 103.5t121 303.5q0 199 -122.5 306zM637 1092q-308 0 -371 -154t-63 -255q0 -196 119 -303.5t315 -107.5v820zM1292 684q0 -231 -140 -365.5t-409 -144.5v-197h-106v197q-264 10 -404.5 143.5t-140.5 365.5t141.5 363.5
t403.5 143.5v201h106v-201q268 -12 408.5 -143.5t140.5 -362.5z" />
    <glyph glyph-name="afii10039" unicode="&#x425;" horiz-adv-x="940"
d="M6 0l402 709l-367 657h125l305 -567l307 567h121l-367 -651l406 -715h-129l-340 627l-344 -627h-119z" />
    <glyph glyph-name="afii10040" unicode="&#x426;" horiz-adv-x="1243"
d="M1067 -295v295h-899v1366h106v-1268h687v1268h106v-1268h107v-393h-107z" />
    <glyph glyph-name="afii10041" unicode="&#x427;" horiz-adv-x="1169"
d="M520 557q-206 0 -293.5 77t-105.5 236q-8 74 -8 158v338h106v-319q0 -173 24.5 -236t74.5 -107.5t203 -44.5q152 0 245.5 26t128.5 42v639h106v-1366h-106v621q-169 -64 -375 -64z" />
    <glyph glyph-name="afii10042" unicode="&#x428;" horiz-adv-x="1681"
d="M168 0v1366h108v-1268h515v1268h104v-1268h512v1268h106v-1366h-1345z" />
    <glyph glyph-name="afii10043" unicode="&#x429;" horiz-adv-x="1662"
d="M1485 -295v295h-1317v1366h108v-1268h496v1268h102v-1268h506v1268h103v-1268h110v-393h-108z" />
    <glyph glyph-name="afii10044" unicode="&#x42a;" horiz-adv-x="1167"
d="M973 442.5q0 153.5 -87 242.5t-243 89h-307v-674h307q168 0 249 94.5t81 248zM974.5 117.5q-108.5 -117.5 -323.5 -117.5h-422v1266h-200v100h307v-492h307q217 0 328.5 -117t111.5 -319.5t-108.5 -320z" />
    <glyph glyph-name="afii10045" unicode="&#x42b;" horiz-adv-x="1495"
d="M1223 0v1366h104v-1366h-104zM874 442.5q0 153.5 -84.5 242.5t-238.5 89h-277v-674h275q166 0 245.5 94.5t79.5 248zM989 388q0 -153 -109.5 -270.5t-324.5 -117.5h-387v1366h106v-492h275q323 0 381.5 -166.5t58.5 -319.5z" />
    <glyph glyph-name="afii10046" unicode="&#x42c;" horiz-adv-x="1103"
d="M909 427q0 155 -88 229.5t-239 74.5h-308v-629h310q158 0 241.5 85t83.5 240zM1020 426q0 -197 -110.5 -311.5t-334.5 -114.5h-407v1366h106v-535h310q219 0 327.5 -104t108.5 -301z" />
    <glyph glyph-name="afii10047" unicode="&#x42d;" horiz-adv-x="1114"
d="M498 1288q-223 0 -367 -225l-76 63q68 119 186.5 193t241.5 74t215.5 -39t162 -124t110.5 -219t41 -411t-149.5 -451t-387.5 -174q-145 0 -253 65t-171 161l70 88q133 -215 362 -215q201 0 307.5 148.5t108.5 424.5h-502v101h500q-13 382 -160 461t-239 79z" />
    <glyph glyph-name="afii10048" unicode="&#x42e;" horiz-adv-x="1736"
d="M814 1109q-103 -177 -103 -425t104.5 -426t298.5 -178t302 174t108 428q0 253 -107.5 428.5t-303.5 175.5t-299 -177zM1499 181q-135 -206 -381 -206t-377.5 190.5t-144.5 477.5h-317v-643h-107v1366h107v-621h317q18 280 151.5 464t368.5 184q135 0 233.5 -60.5
t191.5 -208.5t93 -442.5t-135 -500.5z" />
    <glyph glyph-name="afii10049" unicode="&#x42f;" horiz-adv-x="1081"
d="M494 1266q-137 0 -210 -76t-73 -204t73.5 -211t217.5 -83h301v574h-309zM803 0v594h-322q-55 -362 -148 -478t-204 -116h-51v102h37q25 0 58.5 9.5t93 88.5t110.5 408q-137 43 -208 133t-71 250t106 267.5t310 107.5h395v-1366h-106z" />
    <glyph glyph-name="afii10065" unicode="&#x430;" horiz-adv-x="882"
d="M182 288q0 -115 64 -168q64 -52 153 -52q148 0 254 118v359q-323 -8 -429 -136q-42 -52 -42 -121zM653 674q0 237 -211 237q-128 0 -262 -100l-37 82q37 33 123 70q85 38 180 38q156 0 232 -87t76 -240v-674h-90l-7 86q-104 -109 -272 -109q-210 0 -284 170
q-24 55 -23 125q0 347 575 363v39z" />
    <glyph glyph-name="afii10066" unicode="&#x431;" horiz-adv-x="1013"
d="M747 732.5q-82 113.5 -222 113.5t-228 -105t-88 -266t80.5 -283t226.5 -122t229.5 115.5t83.5 274.5t-82 272.5zM201 134q-105 159 -105 427q0 362 100.5 542.5t321.5 180.5h80q66 0 105.5 22.5t50.5 82.5l86 -17q-12 -102 -75 -140t-159 -42l-96 -4
q-236 -10 -269.5 -192.5t-41.5 -260.5q106 205 340 205q181 0 287 -135.5t106 -337.5t-111.5 -346t-313 -144t-306.5 159z" />
    <glyph glyph-name="afii10067" unicode="&#x432;" horiz-adv-x="923"
d="M705 725q0 160 -173 160h-288v-344h276q96 0 140.5 55t44.5 129zM745 282q0 64 -54 115.5t-156 51.5h-291v-359h311q79 0 118.5 30t55.5 64t16 98zM526 975q279 0 279 -238q0 -96 -43 -154.5t-109 -80.5q82 -16 137.5 -69.5t55.5 -174.5t-79 -189.5t-198 -68.5h-426v975
h383z" />
    <glyph glyph-name="afii10068" unicode="&#x433;" horiz-adv-x="718"
d="M713 975v-90h-467v-885h-103v975h570z" />
    <glyph glyph-name="afii10069" unicode="&#x434;" horiz-adv-x="1030"
d="M778 885h-411v-236q0 -262 -62.5 -386t-109.5 -173h583v795zM887 -227v227h-783v-227h-100v317h53q175 114 191 319t16 291v275h617v-885h108v-317h-102z" />
    <glyph glyph-name="afii10070" unicode="&#x435;" horiz-adv-x="950"
d="M488 911q-110 -1 -188 -75t-101 -240h565q-7 151 -93 241q-73 74 -183 74zM190 506q0 -207 83 -323q83 -115 251 -115t287 125l31 -93q-68 -68 -201 -107q-55 -15 -125 -16q-206 -1 -316 135t-110 374t112 377q112 140 292 139q179 -1 280 -135t105 -361h-689z" />
    <glyph glyph-name="afii10072" unicode="&#x436;" horiz-adv-x="1298"
d="M1217 885q-50 0 -78.5 -31t-72.5 -118t-74.5 -139t-59.5 -71l289 -526h-113l-250 463h-162v-463h-96v463h-162l-256 -463h-110l288 522q-31 23 -53 61t-51 93t-46 93t-44 77t-86 39h-39v90h57q82 0 124 -49.5t84 -138.5q69 -148 106.5 -191t95.5 -43h92v422h96v-422h92
q57 0 100.5 57.5t85.5 144.5q68 141 107.5 180.5t116.5 39.5h57v-90h-38z" />
    <glyph glyph-name="afii10073" unicode="&#x437;" horiz-adv-x="831"
d="M61 776q108 225 358 225q140 0 223 -65.5t83 -166.5t-45 -172t-129 -95q90 -16 144.5 -73t54.5 -155q0 -147 -95.5 -223t-239.5 -76t-238 48t-134 106l53 84q51 -66 120.5 -108t189.5 -42t181.5 52.5t61.5 140.5q0 199 -65 199h-277v84h83q84 0 160.5 43.5t76.5 166.5
q0 82 -63.5 123t-157.5 41t-155 -46t-116 -140z" />
    <glyph glyph-name="afii10074" unicode="&#x438;" horiz-adv-x="1013"
d="M770 0v735l-526 -631v-104h-101v975h101v-737l526 630v107h100v-975h-100z" />
    <glyph glyph-name="afii10075" unicode="&#x439;" horiz-adv-x="1013"
d="M770 0v735l-526 -631v-104h-101v975h101v-737l526 630v107h100v-975h-100zM535 1214q72 0 129 42t73 139h92q-8 -125 -94 -197q-87 -72 -203 -73q-117 -1 -204 72q-88 73 -90 198h96q31 -181 201 -181z" />
    <glyph glyph-name="afii10076" unicode="&#x43a;" horiz-adv-x="894"
d="M246 459v-459h-103v975h103v-426h129q54 0 82 39.5t75 144.5q46 106 72.5 145.5t64.5 68t124 28.5h57v-90h-47q-59 0 -95 -28t-74 -117t-63.5 -140t-54.5 -76l342 -524h-123l-299 459h-190z" />
    <glyph glyph-name="afii10077" unicode="&#x43b;" horiz-adv-x="993"
d="M750 0v885h-402q-10 -496 -38 -627t-89 -194.5t-174 -63.5h-37v92q83 0 130 29.5t70 123.5t30.5 250.5t7.5 479.5h602v-975h-100z" />
    <glyph glyph-name="afii10078" unicode="&#x43c;" horiz-adv-x="1159"
d="M938 0l-45 819l-279 -825h-71l-279 823l-45 -817h-96l55 977h133l271 -825l268 825h131l55 -977h-98z" />
    <glyph glyph-name="afii10079" unicode="&#x43d;" horiz-adv-x="1005"
d="M762 0v463h-518v-463h-101v977h101v-420h518v420h100v-977h-100z" />
    <glyph glyph-name="afii10080" unicode="&#x43e;" horiz-adv-x="1003"
d="M815 493q0 171 -78 287q-88 133 -234 132q-147 -1 -229 -122t-83 -295q-1 -173 82 -301t231 -127t229 128q82 127 82 298zM918 490q0 -211 -110 -362t-305 -151q-194 0 -303 154q-110 154 -110 363t107 358t301 149q195 0 307 -150q113 -150 113 -361z" />
    <glyph glyph-name="afii10081" unicode="&#x43f;" horiz-adv-x="1003"
d="M760 0v887h-516v-887h-101v977h717v-977h-100z" />
    <glyph glyph-name="afii10082" unicode="&#x440;" horiz-adv-x="993"
d="M451 68q158 0 254 112t96 312q0 286 -168 386q-59 34 -141 33q-127 0 -250 -120v-654q88 -69 209 -69zM512 1001q189 0 290 -138t101 -367t-120 -374t-322 -145q-124 0 -219 56v-428h-101v1372h90l11 -84q120 110 270 108z" />
    <glyph glyph-name="afii10083" unicode="&#x441;" horiz-adv-x="876"
d="M519 -23q-296 0 -397 293q-32 94 -32 220q0 242 116 378q116 135 288 133q125 0 225 -73q68 -52 108 -131l-73 -52q-52 82 -110 124t-138 42q-144 0 -229 -118q-86 -118 -85 -308q1 -189 90 -303t234 -112q76 0 137 26t127 94l39 -88q-43 -45 -121 -85t-179 -40z" />
    <glyph glyph-name="afii10084" unicode="&#x442;" horiz-adv-x="759"
d="M430 887v-887h-100v887h-310v90h719v-90h-309z" />
    <glyph glyph-name="afii10085" unicode="&#x443;" horiz-adv-x="917"
d="M-4 -303q130 0 238 74t165 202l-381 1004h113l334 -897q193 404 326 897h106q-72 -283 -157 -498q-86 -215 -168 -391t-154 -273t-184 -153t-242 -55l-12 90h16z" />
    <glyph glyph-name="afii10086" unicode="&#x444;" horiz-adv-x="1267"
d="M190 486q0 -181 109.5 -283t286.5 -115v786q-172 -4 -284 -105.5t-112 -282.5zM1079 485q0 187 -110 283.5t-289 105.5v-786q276 13 337.5 155t61.5 242zM1043.5 131.5q-138.5 -125.5 -363.5 -133.5v-395h-94v395q-220 8 -359 136.5t-139 351.5q0 222 138.5 346.5
t359.5 132.5v399h94v-399q223 -8 362.5 -131t139.5 -350t-138.5 -352.5z" />
    <glyph glyph-name="afii10087" unicode="&#x445;" horiz-adv-x="759"
d="M10 0l316 500l-299 477h112l242 -393l244 393h108l-299 -475l316 -502h-111l-258 418l-260 -418h-111z" />
    <glyph glyph-name="afii10088" unicode="&#x446;" horiz-adv-x="991"
d="M858 -227v227h-715v975h105v-887h493v887h103v-887h106v-315h-92z" />
    <glyph glyph-name="afii10089" unicode="&#x447;" horiz-adv-x="980"
d="M463 422q125 0 272 53v500h103v-975h-103v379q-173 -51 -313 -51q-141 0 -230.5 57.5t-89.5 271.5v318h103v-309q0 -70 6 -101q14 -78 70.5 -110.5t181.5 -32.5z" />
    <glyph glyph-name="afii10090" unicode="&#x448;" horiz-adv-x="1466"
d="M143 0v975h103v-885h438v885h100v-885h437v885h102v-975h-1180z" />
    <glyph glyph-name="afii10091" unicode="&#x449;" horiz-adv-x="1454"
d="M143 975h103v-885h430v885h98v-885h430v885h103v-885h106v-317h-92v227h-1178v975z" />
    <glyph glyph-name="afii10092" unicode="&#x44a;" horiz-adv-x="1007"
d="M823 338q0 121 -69.5 174t-194.5 53h-246v-475h244q266 0 266 248zM837.5 94.5q-92.5 -94.5 -272.5 -94.5h-356v883h-199v92h303v-318h252q181 0 273 -88t92 -234t-92.5 -240.5z" />
    <glyph glyph-name="afii10093" unicode="&#x44b;" horiz-adv-x="1277"
d="M1032 0v975h103v-975h-103zM741 391q0 174 -256 174h-237v-475h237q127 0 191.5 63.5t64.5 237.5zM759 95q-91 -95 -272 -95h-344v975h105v-318h241q182 0 271.5 -87.5t89.5 -233.5t-91 -241z" />
    <glyph glyph-name="afii10094" unicode="&#x44c;" horiz-adv-x="950"
d="M500 90q266 0 266 246q0 229 -264 229h-254v-475h252zM872 335q0 -145 -91 -240t-273 -95h-365v975h105v-318h260q272 0 318 -126.5t46 -195.5z" />
    <glyph glyph-name="afii10095" unicode="&#x44d;" horiz-adv-x="901"
d="M274 461v92h437q-11 174 -99 266t-195 92q-106 0 -172.5 -40t-119.5 -130l-74 50q34 74 126.5 142t223.5 68q288 0 350 -188.5t62 -320.5q0 -252 -116 -384.5t-314 -132.5q-163 0 -237 60.5t-95 91.5l55 84q95 -145 283 -145q141 0 230.5 98t93.5 297h-439z" />
    <glyph glyph-name="afii10096" unicode="&#x44e;" horiz-adv-x="1415"
d="M1153 782.5q-74 116.5 -224 116.5t-225 -116t-75 -296q0 -286 112.5 -352.5t189.5 -66.5t133 33.5t109.5 115t53.5 265.5t-74 300.5zM1227.5 120.5q-99.5 -145.5 -295.5 -145.5t-294.5 134t-111.5 348h-280v-457h-103v975h103v-424h282q17 191 117.5 315.5t291.5 124.5
t290.5 -141.5t99.5 -362.5t-99.5 -366.5z" />
    <glyph glyph-name="afii10097" unicode="&#x44f;" horiz-adv-x="962"
d="M719 883h-268q-111 0 -176.5 -56.5t-65.5 -157.5t61.5 -157.5t173.5 -56.5h275v428zM401 362q-69 -362 -258 -362h-61v94h35q56 0 107 55t81 232q-130 42 -164.5 130.5t-34.5 158.5q0 141 94.5 223t262.5 82h356v-975h-100v362h-318z" />
    <glyph glyph-name="afii10071" unicode="&#x451;" horiz-adv-x="950"
d="M488 911q-110 -1 -188 -75t-101 -240h565q-7 151 -93 241q-73 74 -183 74zM190 506q0 -207 83 -323q83 -115 251 -115t287 125l31 -93q-68 -68 -201 -107q-55 -15 -125 -16q-206 -1 -316 135t-110 374t112 377q112 140 292 139q179 -1 280 -135t105 -361h-689zM668 1231
q-31 0 -53 20q-21 19 -21 59t22 62t52 21q30 0 52 -22q22 -23 22 -61t-22 -58q-21 -20 -52 -21zM317 1231q-31 0 -53 20q-22 19 -20 59q0 40 22 62t52 21q30 0 52 -22q22 -23 22 -61t-22 -59q-22 -20 -53 -20z" />
    <glyph glyph-name="afii10099" unicode="&#x452;" horiz-adv-x="1021"
d="M576 922q173 0 248 -98.5t75 -284.5v-490q0 -252 -82 -334t-133 -116l-49 82q89 70 124.5 152t35.5 216v492q0 147 -59.5 217.5t-197.5 70.5t-292 -137v-692h-103v1165h-157v84h157v117h103v-117h297v-84h-297v-370q157 127 330 127z" />
    <glyph glyph-name="afii10100" unicode="&#x453;" horiz-adv-x="718"
d="M713 975v-90h-467v-885h-103v975h570zM305 1116l-49 60l317 284l76 -84z" />
    <glyph glyph-name="afii10101" unicode="&#x454;" horiz-adv-x="876"
d="M517 -23q-198 0 -313.5 137.5t-115.5 377.5t115 374.5t289 134.5q126 0 209.5 -62t123.5 -142l-73 -52q-53 82 -110.5 124t-133.5 42q-139 0 -221 -102.5t-94 -261.5h434v-90h-437q8 -176 95.5 -281.5t228.5 -105.5q76 0 137.5 26.5t126.5 93.5l39 -88q-43 -45 -121 -85
t-179 -40z" />
    <glyph glyph-name="afii10102" unicode="&#x455;" horiz-adv-x="774"
d="M199 781q0 -51 11 -77q30 -73 224 -139q129 -47 195 -115q65 -69 65 -198t-89 -201t-238 -73q-150 -1 -254 75q-27 18 -39 31l39 92q35 -35 103 -72q68 -36 165 -36q98 0 155 46q56 46 56 137t-54 140t-190 99q-137 49 -194 109q-58 60 -58 162t79 171t199 69
q119 -1 195 -37t115 -77l-43 -80q-125 108 -260 106q-92 0 -137 -41t-45 -91z" />
    <glyph glyph-name="afii10103" unicode="&#x456;" horiz-adv-x="370"
d="M188 1184q-30 0 -52 20t-22 60t22 60q22 22 52 22t53 -22q21 -22 21 -60t-21 -60q-22 -20 -53 -20zM139 0v977h101v-977h-101z" />
    <glyph glyph-name="afii10104" unicode="&#x457;" horiz-adv-x="370"
d="M137 0v977h101v-977h-101zM365 1231q-31 0 -53 20q-22 19 -22 59t22 62t53 21q31 0 53 -22q22 -23 20 -61q0 -38 -21 -58t-52 -21zM14 1231q-30 0 -52 20q-22 19 -22 59t22 62t52 21q30 0 53 -22q21 -23 21 -61t-21 -59q-22 -20 -53 -20z" />
    <glyph glyph-name="afii10105" unicode="&#x458;" horiz-adv-x="378"
d="M195 1184q-31 0 -53 20t-22 60t22 60q22 22 53 22t53 -22t20 -60q0 -38 -21 -60q-21 -20 -52 -20zM139 977h101v-983q0 -152 -52 -243t-153 -152l-41 84q82 55 114 127t31 184v983z" />
    <glyph glyph-name="afii10106" unicode="&#x459;" horiz-adv-x="1476"
d="M1294 340q0 225 -262 225h-233v-475h231q133 0 198.5 65.5t65.5 184.5zM696 0v885h-346q-10 -494 -39 -625t-88 -195.5t-164 -64.5h-49v94h33q58 0 100.5 34.5t60.5 112.5q30 135 37 288t7 446h551v-318h233q190 0 280.5 -89t90.5 -230t-91 -239.5t-276 -98.5h-340z" />
    <glyph glyph-name="afii10107" unicode="&#x45a;" horiz-adv-x="1505"
d="M1327 301q0 113 -65.5 158t-178.5 45h-243v-414h241q119 0 182.5 49t63.5 162zM1432 303q0 -139 -86 -221t-261 -82h-348v504h-491v-504h-103v977h103v-383h491v383h103v-383h250q172 0 257 -76t85 -215z" />
    <glyph glyph-name="afii10108" unicode="&#x45b;" horiz-adv-x="1021"
d="M581 922q168 0 243 -98.5t75 -284.5v-539h-102v541q0 154 -59.5 221t-189.5 67t-302 -139v-690h-103v1163h-159v86h159v117h103v-117h299v-86h-299v-368q167 127 335 127z" />
    <glyph glyph-name="afii10109" unicode="&#x45c;" horiz-adv-x="894"
d="M246 459v-459h-103v975h103v-426h129q54 0 78 34q39 55 82 156q43 99 69 139t65 68q38 28 124 29h57v-90h-47q-59 0 -95 -28t-74 -117t-64 -140t-54 -76l342 -524h-123l-299 459h-190zM381 1116l-49 60l317 284l76 -84z" />
    <glyph glyph-name="uni045D" unicode="&#x45d;" horiz-adv-x="1013"
d="M770 0v735l-526 -631v-104h-101v975h101v-737l526 630v107h100v-975h-100zM631 1116l-342 260l76 84l317 -284z" />
    <glyph glyph-name="afii10110" unicode="&#x45e;" horiz-adv-x="917"
d="M-4 -303q130 0 238 74t165 202l-381 1004h113l334 -897q193 404 326 897h106q-72 -283 -157 -498q-86 -215 -168 -391t-154 -273t-184 -153t-242 -55l-12 90h16zM477 1214q72 0 129 42t74 139h92q-7 -123 -94 -196t-203 -74t-203 71q-88 72 -92 199h96q31 -181 201 -181z
" />
    <glyph glyph-name="afii10193" unicode="&#x45f;" horiz-adv-x="997"
d="M549 0v-227h-100v227h-306v975h105v-887h504v887h102v-975h-305z" />
    <glyph glyph-name="afii10050" unicode="&#x490;" horiz-adv-x="911"
d="M274 1266v-1266h-106v1366h620v168h105v-268h-619z" />
    <glyph glyph-name="afii10098" unicode="&#x491;" horiz-adv-x="718"
d="M612 975v123h101v-215h-467v-883h-103v975h469z" />
    <glyph glyph-name="uni04D8" unicode="&#x4d8;" horiz-adv-x="1210"
d="M570 72q188 0 295 137.5t128 351.5h-788q8 -321 135.5 -405t229.5 -84zM559 1393q273 0 411 -205.5t138 -503.5q0 -299 -140.5 -505t-392.5 -206t-369.5 195.5t-117.5 490.5h911v19q0 262 -107.5 438t-321.5 176q-213 0 -295 -73.5t-91 -81.5l-49 90q84 94 212 130
t212 36z" />
    <glyph glyph-name="uni04D9" unicode="&#x4d9;" horiz-adv-x="958"
d="M465 68q111 0 189.5 73.5t101.5 243.5h-570q11 -160 89.5 -238.5t189.5 -78.5zM764 473q0 211 -83 324.5t-245 113.5q-84 0 -157.5 -29.5t-120.5 -80.5l-52 71q57 72 160 100.5t172 28.5q205 0 315.5 -135t110.5 -374t-112.5 -377t-291.5 -138t-279.5 132.5t-104.5 363.5
h688z" />
    <glyph glyph-name="Wgrave" unicode="&#x1e80;" horiz-adv-x="1470"
d="M330 0l-310 1366h109l258 -1139l297 1139h100l312 -1145l247 1145h107l-305 -1366h-92l-320 1159l-313 -1159h-90zM819 1456l-342 260l76 84l317 -284z" />
    <glyph glyph-name="wgrave" unicode="&#x1e81;" horiz-adv-x="1286"
d="M295 0l-285 977h111l231 -840l246 840h90l246 -836l235 836h107l-293 -977h-104l-238 805l-244 -805h-102zM727 1116l-342 260l76 84l317 -284z" />
    <glyph glyph-name="Wacute" unicode="&#x1e82;" horiz-adv-x="1470"
d="M330 0l-310 1366h109l258 -1139l297 1139h100l312 -1145l247 1145h107l-305 -1366h-92l-320 1159l-313 -1159h-90zM649 1456l-49 60l318 284l75 -84z" />
    <glyph glyph-name="wacute" unicode="&#x1e83;" horiz-adv-x="1286"
d="M295 0l-285 977h111l231 -840l246 840h90l246 -836l235 836h107l-293 -977h-104l-238 805l-244 -805h-102zM555 1116l-49 60l317 284l76 -84z" />
    <glyph glyph-name="Wdieresis" unicode="&#x1e84;" horiz-adv-x="1470"
d="M330 0l-310 1366h109l258 -1139l297 1139h100l312 -1145l247 1145h107l-305 -1366h-92l-320 1159l-313 -1159h-90zM909 1571q-31 0 -53 20q-22 19 -20 59q0 40 22 62t52 21q30 0 52 -22q22 -23 22 -61t-22 -59q-22 -20 -53 -20zM559 1571q-31 0 -53 20q-22 19 -21 59
q0 40 22 62q23 22 53 21q30 0 52 -22q22 -23 21 -61q1 -38 -21 -58t-53 -21z" />
    <glyph glyph-name="wdieresis" unicode="&#x1e85;" horiz-adv-x="1286"
d="M295 0l-285 977h111l231 -840l246 840h90l246 -836l235 836h107l-293 -977h-104l-238 805l-244 -805h-102zM817 1231q-31 0 -53 20q-22 19 -21 59q0 40 22 62q23 22 53 21q30 0 52 -22q22 -23 21 -61q1 -38 -21 -58t-53 -21zM467 1231q-31 0 -53 20q-22 19 -21 59
q0 40 22 62q23 22 53 21q30 0 52 -22q22 -23 21 -61q1 -38 -21 -58t-53 -21z" />
    <glyph glyph-name="Ygrave" unicode="&#x1ef2;" horiz-adv-x="1021"
d="M451 0v657l-441 709h121l375 -604l389 604h117l-455 -707v-659h-106zM580 1456l-342 260l75 84l318 -284z" />
    <glyph glyph-name="ygrave" unicode="&#x1ef3;" horiz-adv-x="917"
d="M-4 -303q130 0 238 74t165 202l-381 1004h113l334 -897q193 404 326 897h106q-72 -283 -157 -498q-86 -215 -168 -391t-154 -273t-184 -153t-242 -55l-12 90h16zM530 1116l-342 260l76 84l318 -284z" />
    <glyph glyph-name="endash" unicode="&#x2013;" horiz-adv-x="1024"
d="M0 489v93h1024v-93h-1024z" />
    <glyph glyph-name="emdash" unicode="&#x2014;" horiz-adv-x="2048"
d="M0 489v93h2048v-93h-2048z" />
    <glyph glyph-name="afii00208" unicode="&#x2015;" horiz-adv-x="2048"
d="M0 489v93h2048v-93h-2048z" />
    <glyph glyph-name="quoteleft" unicode="&#x2018;" horiz-adv-x="339"
d="M268 1104q0 -39 -22.5 -63.5t-64.5 -24.5t-65.5 33t-23.5 93t41 126.5t94 109.5l35 -45q-75 -75 -82 -135q37 0 62.5 -27.5t25.5 -66.5z" />
    <glyph glyph-name="quoteright" unicode="&#x2019;" horiz-adv-x="339"
d="M82 1290q0 39 22.5 63.5t64.5 24.5t65.5 -33t23.5 -93t-41 -126.5t-94 -109.5l-35 45q75 75 82 135q-37 0 -62.5 27.5t-25.5 66.5z" />
    <glyph glyph-name="quotesinglbase" unicode="&#x201a;" horiz-adv-x="323"
d="M76 96q0 39 22.5 63.5t64.5 24.5t65.5 -33t23.5 -93t-41 -126.5t-94 -109.5l-35 45q75 75 82 135q-37 0 -62.5 27.5t-25.5 66.5z" />
    <glyph glyph-name="quotedblleft" unicode="&#x201c;" horiz-adv-x="647"
d="M586 1104q0 -38 -23 -64q-23 -24 -65 -24t-65 34t-23 93t41 126t94 109l35 -45q-77 -77 -82 -135q36 0 62 -28t26 -66zM279 1104q0 -38 -23 -64q-22 -24 -64 -24t-66 34t-24 93t41 126t95 109l34 -45q-75 -75 -82 -135q37 0 63 -28t26 -66z" />
    <glyph glyph-name="quotedblright" unicode="&#x201d;" horiz-adv-x="647"
d="M399 1290q0 38 23 64q22 24 64 24t66 -34t24 -92q0 -60 -42 -126q-41 -66 -94 -110l-34 45q76 76 81 135q-37 0 -63 28t-25 66zM92 1290q0 38 23 64q23 24 65 24t65 -34t23 -92q0 -60 -41 -126t-94 -110l-35 45q77 77 82 135q-36 0 -62 28t-26 66z" />
    <glyph glyph-name="quotedblbase" unicode="&#x201e;" horiz-adv-x="630"
d="M393 96q0 38 23 64q22 24 64 24t66 -34t24 -92q0 -60 -42 -126q-41 -66 -94 -110l-35 45q77 77 82 135q-37 0 -63 28t-25 66zM86 96q0 38 23 64q23 24 65 24t65 -34t23 -92q0 -60 -41 -126t-94 -110l-35 45q75 75 82 135q-36 0 -62 28t-26 66z" />
    <glyph glyph-name="dagger" unicode="&#x2020;" horiz-adv-x="843"
d="M371 -299v1090h-305v100h305v475h104v-475h303v-100h-303v-1090h-104z" />
    <glyph glyph-name="daggerdbl" unicode="&#x2021;" horiz-adv-x="843"
d="M371 -299v475h-305v100h305v515h-305v100h305v475h104v-475h303v-100h-303v-515h303v-100h-303v-475h-104z" />
    <glyph glyph-name="bullet" unicode="&#x2022;" horiz-adv-x="968"
d="M751.5 488q-108.5 -117 -267.5 -117t-267 115.5t-108 281.5t109.5 280.5t265.5 114.5t266 -116.5t110 -279t-108.5 -279.5z" />
    <glyph glyph-name="ellipsis" unicode="&#x2026;" horiz-adv-x="1099"
d="M530 -23q-36 0 -60 25t-24 67q0 43 25 67t59 24t61 -25q25 -25 25 -67t-26 -66q-26 -25 -60 -25zM891 -23q-35 0 -60 25t-25 67q0 43 26 67q24 24 59 24t61 -25t25 -67q1 -42 -25 -66q-26 -25 -61 -25zM172 -23q-36 0 -60 25t-24 67q0 43 25 67t59 24t60 -25t26 -67
t-26 -66q-26 -25 -60 -25z" />
    <glyph glyph-name="perthousand" unicode="&#x2030;" horiz-adv-x="2070"
d="M926.5 438.5q-52.5 -63.5 -52.5 -150.5t52 -150.5t131.5 -63.5t133.5 62t54 152t-54.5 152t-133 62t-131 -63.5zM471 1231q-53 61 -134 61t-133 -61.5t-52 -151t52 -152.5t133 -63t134 62.5t53 153t-53 151.5zM1868.5 439q-54.5 63 -133.5 63q-80 0 -132.5 -63.5
t-52.5 -150.5t52 -150.5t133 -63.5t134.5 63t53.5 151t-54.5 151zM1258 74.5q-79 -88.5 -197 -88.5t-197.5 88.5t-79.5 213.5t80 211.5t197 86.5t196.5 -87t79.5 -211q0 -125 -79 -213.5zM121 -14l-64 71l1211 1319l63 -67zM535 866.5q-79 -88.5 -196 -88.5t-196.5 88.5
t-79.5 213.5t80 211.5t196 86.5t195.5 -87t79.5 -211q0 -125 -79 -213.5zM1935.5 74.5q-79.5 -88.5 -197.5 -88.5q-117 0 -196.5 88.5t-79.5 213.5t80 211.5t196 86.5t196.5 -86.5t80.5 -211.5t-79.5 -213.5z" />
    <glyph glyph-name="guilsinglleft" unicode="&#x2039;" horiz-adv-x="610"
d="M461 121l-383 391l352 408l62 -60l-297 -340l325 -336z" />
    <glyph glyph-name="guilsinglright" unicode="&#x203a;" horiz-adv-x="610"
d="M180 121l-61 59l297 342l-326 334l57 64l383 -392z" />
    <glyph glyph-name="fraction" unicode="&#x2044;" horiz-adv-x="428"
d="M-360 -14l-64 71l1210 1319l64 -67z" />
    <glyph glyph-name="fourinferior" unicode="&#x2084;" horiz-adv-x="565"
d="M367 240v301l-230 -301h230zM367 0v158h-326v82l340 444h76v-444h86v-82h-86v-158h-90z" />
    <glyph glyph-name="Euro" unicode="&#x20ac;"
d="M51 748v98h168q16 272 128 402t284 130q121 0 198.5 -51t131.5 -121l-70 -73q-53 66 -111.5 106.5t-148.5 40.5q-271 0 -301 -434h323v-98h-602zM647 -23q-383 0 -426 519h-170v98h602v-98h-321q22 -327 138 -373.5t190 -46.5t133 31.5t125 107.5l55 -86
q-49 -59 -129 -105.5t-197 -46.5z" />
    <glyph glyph-name="afii61352" unicode="&#x2116;" horiz-adv-x="1966"
d="M1815 984q0 56 -12.5 108.5t-38 92.5t-65.5 63.5t-120 23.5t-133 -81t-53 -204q0 -199 78.5 -247t132.5 -48t94.5 24.5t66 64.5t38 93.5t12.5 109.5zM266 0h-104v1366h121l708 -1118v1118h107v-1366h-76l-756 1184v-1184zM1832.5 716q-82.5 -114 -231.5 -114t-229 113.5
t-80 267.5q0 155 81 268t229 113t230.5 -110t82.5 -267t-82.5 -271z" />
    <glyph glyph-name="trademark" unicode="&#x2122;" horiz-adv-x="1136"
d="M217 778v512h-180v76h438v-76h-178v-512h-80zM614 778h-77v588h94l172 -479l160 479h98v-588h-80v424l-145 -428h-64l-158 424v-420z" />
    <glyph glyph-name="uni2126" unicode="&#x2126;" horiz-adv-x="1345"
d="M1223 731q0 -398 -285 -631h293v-100h-432v104q137 92 224 249t87 392t-114 392t-321.5 157t-324.5 -161.5t-117 -413.5q0 -197 86.5 -355.5t229.5 -259.5v-104h-434v100h293q-285 233 -285 621q0 291 148 482.5t406 191.5t402 -187.5t144 -476.5z" />
    <glyph glyph-name="partialdiff" unicode="&#x2202;" horiz-adv-x="1073"
d="M862 552q0 144 -37 267q-137 92 -285 92t-237.5 -109.5t-89.5 -311.5t89 -312t231.5 -110t235.5 134t93 350zM967 592q0 -303 -122 -459t-312 -156q-191 0 -310 133.5t-119 376.5t119 378.5t309 135.5q151 0 263 -69q-62 154 -225 249t-363 117l18 80q255 -20 445 -151
q31 -20 94 -80q92 -98 147.5 -244.5t55.5 -310.5z" />
    <glyph glyph-name="Delta" unicode="&#x2206;" horiz-adv-x="1107"
d="M547 1210l-389 -1112h790zM10 0l496 1366h86l506 -1366h-1088z" />
    <glyph glyph-name="product" unicode="&#x220f;" horiz-adv-x="1282"
d="M201 0v1266h-168v100h1216v-100h-172v-1266h-108v1266h-660v-1266h-108z" />
    <glyph glyph-name="summation" unicode="&#x2211;" horiz-adv-x="1001"
d="M84 0v104l573 584l-569 572v106h844v-100h-707l578 -578l-584 -588h729v-100h-864z" />
    <glyph glyph-name="minus" unicode="&#x2212;"
d="M74 631v98h876v-98h-876z" />
    <glyph glyph-name="uni2215" unicode="&#x2215;" horiz-adv-x="428"
d="M-360 -14l-64 71l1210 1319l64 -67z" />
    <glyph glyph-name="uni2219" unicode="&#x2219;" horiz-adv-x="557"
d="M278.5 666q-34.5 0 -59 24.5t-24.5 66.5t24.5 66.5t59 24.5t60.5 -24.5t26 -66.5t-26 -66.5t-60.5 -24.5z" />
    <glyph glyph-name="radical" unicode="&#x221a;" horiz-adv-x="1079"
d="M55 479v96h219l195 -419l453 1312l98 -32l-496 -1436h-94l-229 479h-146z" />
    <glyph glyph-name="infinity" unicode="&#x221e;" horiz-adv-x="1110"
d="M314 963q-89 0 -132 -68t-43 -168q0 -101 45 -160t119 -59q103 0 147 99t56 128q-51 111 -95.5 169.5t-96.5 58.5zM802 965q-72 0 -116.5 -67t-87.5 -165q71 -161 122.5 -193t92.5 -32q76 0 118 73t42 168q0 94 -49.5 155t-121.5 61zM43 745q0 142 71.5 222t186.5 80
q76 0 138.5 -44.5t115.5 -168.5q51 115 109 162.5t158 47.5t172.5 -81t72.5 -216t-66 -229t-190 -94q-70 0 -132.5 42t-125.5 163q-97 -205 -252 -205q-127 0 -192.5 89.5t-65.5 231.5z" />
    <glyph glyph-name="integral" unicode="&#x222b;" horiz-adv-x="729"
d="M25 -397v94q147 -7 214.5 70t67.5 221v1013q0 205 99.5 290t298.5 87v-94q-237 0 -264 -111.5t-27 -179.5v-1011q0 -207 -95 -293t-294 -86z" />
    <glyph glyph-name="approxequal" unicode="&#x2248;" horiz-adv-x="1079"
d="M1006 815q-102 -76 -254 -76q-84 0 -210 38t-220 38t-203 -55l-43 84q110 69 223 69q115 0 253 -38q138 -37 221 -37t188 59zM300 543q114 0 252 -38t219 -38t190 59l45 -82q-39 -29 -104.5 -52t-153.5 -23t-210 38q-122 37 -216 37t-203 -55l-43 84q111 70 224 70z" />
    <glyph glyph-name="notequal" unicode="&#x2260;"
d="M74 401v99h262l229 276h-491v98h573l164 201l70 -63l-115 -138h186v-98h-266l-229 -276h495v-99h-577l-166 -200l-68 63l115 137h-182z" />
    <glyph glyph-name="lessequal" unicode="&#x2264;"
d="M891 309l-778 328v90l766 317l36 -94l-649 -266l662 -276zM74 0v98h876v-98h-876z" />
    <glyph glyph-name="greaterequal" unicode="&#x2265;"
d="M147 309l-34 99l659 276l-647 266l39 94l764 -317v-90zM74 0v98h876v-98h-876z" />
    <glyph glyph-name="lozenge" unicode="&#x25ca;" horiz-adv-x="1110"
d="M561 160l307 573l-315 545l-311 -543zM553 -33l-430 764l430 744l434 -744z" />
    <glyph glyph-name="commaaccent" horiz-adv-x="593"
d="M186 -356l99 266h121l-140 -266h-80z" />
    <glyph glyph-name="kratka" horiz-adv-x="811"
d="M406 1214q72 0 129 42t73 139h92q-8 -125 -95 -198t-203 -73q-115 0 -202 72t-91 199h96q31 -181 201 -181z" />
    <glyph glyph-name="tonos.cap" horiz-adv-x="493"
d="M207 926l-76 22l127 420l113 -27z" />
    <glyph glyph-name="revcommaaccent" horiz-adv-x="860"
d="M471 1141l139 266h86l-98 -266h-127z" />
    <glyph glyph-name="caron.alt" horiz-adv-x="1024"
d="M473 1018v348h131l-49 -348h-82z" />
    </font>
</defs>
</svg>
